<?xml version="1.0" encoding="utf-8"?>
<!-- Generator: Adobe Illustrator 16.0.0, SVG Export Plug-In . SVG Version: 6.00 Build 0)  -->
<!DOCTYPE svg PUBLIC "-//W3C//DTD SVG 1.1//EN" "http://www.w3.org/Graphics/SVG/1.1/DTD/svg11.dtd">
<svg version="1.1" id="Layer_1" xmlns="http://www.w3.org/2000/svg" xmlns:xlink="http://www.w3.org/1999/xlink" x="0px" y="0px"
	 width="49.859px" height="31.422px" viewBox="0 0 49.859 31.422" enable-background="new 0 0 49.859 31.422" xml:space="preserve">
<path fill="#006CFF" stroke="#006CFF" stroke-width="3" stroke-linecap="round" stroke-linejoin="round" stroke-miterlimit="10" d="
	M-91.614-149.35l-35.412-32.495l-0.018-0.02c-1.853-1.67-4.632-1.659-6.466,0.026l-35.6,32.992c-1.377,1.279-1.46,3.43-0.18,4.808
	c0.669,0.724,1.502,1.439,2.494,1.439c5.866,0,4.211,0,7.374,0h1.132v28.092c0,0.773,0.623,1.398,1.396,1.398h17.049
	c0.739,0,1.338-0.6,1.338-1.339v-15.179c0-0.934,0.758-1.688,1.689-1.688h12.921c0.936,0,1.689,0.755,1.689,1.688v15.179
	c0,0.739,0.6,1.339,1.34,1.339h17.049c0.77,0,1.398-0.625,1.398-1.398v-28.092h6.205c2.008,0,3.535-0.559,4.807-1.943
	S-90.229-148.079-91.614-149.35z"/>
<path fill="none" stroke="#A9A9A9" stroke-width="3" stroke-linecap="round" stroke-linejoin="round" stroke-miterlimit="10" d="
	M6.023-148.96l-35.414-32.493l-0.018-0.02c-1.853-1.669-4.631-1.659-6.466,0.025l-35.6,32.991c-1.377,1.278-1.46,3.43-0.18,4.808
	c0.669,0.723,1.503,1.439,2.495,1.439c5.865,0,4.211,0,7.373,0h1.132v28.092c0,0.773,0.624,1.396,1.397,1.396h17.049
	c0.738,0,1.338-0.598,1.338-1.338v-15.178c0-0.934,0.757-1.689,1.689-1.689h12.922c0.934,0,1.689,0.756,1.689,1.689v15.178
	c0,0.74,0.598,1.338,1.339,1.338h17.05c0.77,0,1.396-0.623,1.396-1.396v-28.092h6.205c2.01,0,3.537-0.561,4.809-1.943
	C7.5-145.537,7.406-147.688,6.023-148.96z"/>
<path fill="#006CFF" d="M299.802-156.476c-0.266-0.81-0.689-1.54-1.232-2.162c-0.895-1.106-2.148-1.9-3.58-2.193l-17.305-3.559
	l-8.654-15.225c-0.162-0.283-0.351-0.548-0.552-0.799c-1.161-1.574-3.017-2.532-5.001-2.532c-2.232,0-4.306,1.206-5.41,3.146
	l-8.752,15.399l-17.351,3.568c-2.187,0.447-3.972,2.045-4.664,4.168c-0.626,1.933-0.256,4.038,0.942,5.644
	c0.16,0.229,0.334,0.451,0.525,0.661l11.791,12.921l-1.966,17.58c-0.188,1.697,0.337,3.379,1.401,4.66
	c0.358,0.469,0.781,0.895,1.271,1.249c1.071,0.778,2.335,1.19,3.661,1.19c0.891,0,1.753-0.186,2.564-0.553l16.133-7.314
	l16.136,7.316c2.026,0.914,4.437,0.66,6.226-0.64c1.801-1.31,2.771-3.504,2.522-5.724l-1.97-17.602l11.938-13.084
	C299.985-152.006,300.489-154.348,299.802-156.476"/>
<path fill="#A9A9A9" d="M331.678-112.852c-1.325,0-2.59-0.412-3.66-1.189c-1.805-1.307-2.773-3.502-2.525-5.721l1.969-17.604
	l-11.94-13.086c-1.505-1.646-2.011-3.99-1.321-6.116c0.693-2.123,2.479-3.721,4.664-4.169l17.352-3.568l8.752-15.399
	c1.104-1.94,3.177-3.147,5.41-3.147c2.229,0,4.303,1.207,5.406,3.145l8.756,15.401l17.349,3.568c2.184,0.448,3.97,2.046,4.663,4.168
	c0.688,2.128,0.184,4.471-1.324,6.118l-11.938,13.085l1.969,17.601c0.248,2.222-0.719,4.416-2.522,5.725
	c-1.79,1.3-4.198,1.553-6.224,0.639l-16.135-7.316l-16.133,7.314C333.432-113.037,332.569-112.852,331.678-112.852 M350.377-179.89
	c-1.172,0-2.258,0.632-2.838,1.649l-9.082,15.981c-0.211,0.371-0.572,0.632-0.988,0.72l-18.01,3.703
	c-1.146,0.235-2.082,1.073-2.444,2.185c-0.36,1.115-0.097,2.342,0.692,3.203l12.394,13.583c0.286,0.315,0.423,0.739,0.377,1.164
	l-2.043,18.271c-0.132,1.162,0.377,2.313,1.321,2.998c0.941,0.682,2.211,0.813,3.265,0.334l16.744-7.592
	c0.388-0.175,0.834-0.175,1.222,0l16.745,7.592c1.062,0.477,2.325,0.348,3.265-0.334c0.943-0.686,1.45-1.836,1.321-3l-2.045-18.269
	c-0.046-0.425,0.089-0.849,0.376-1.164l12.393-13.581c0.789-0.863,1.056-2.09,0.693-3.206c-0.361-1.111-1.299-1.949-2.441-2.184
	l-18.01-3.703c-0.416-0.088-0.777-0.349-0.988-0.72l-9.086-15.982C352.631-179.258,351.545-179.89,350.377-179.89"/>
<g>
	<path fill="#006CFF" d="M51.481-152.272c-11.455,0-20.775,9.32-20.775,20.776c0,11.455,9.32,20.777,20.775,20.777
		c11.458,0,20.778-9.322,20.778-20.777C72.26-142.952,62.939-152.272,51.481-152.272z M51.481-114.09
		c-9.597,0-17.406-7.809-17.406-17.406s7.81-17.407,17.406-17.407c9.599,0,17.407,7.809,17.407,17.407S61.08-114.09,51.481-114.09z"
		/>
	<path fill="#006CFF" d="M51.481-138.697c-3.97,0-7.2,3.23-7.2,7.201s3.23,7.201,7.2,7.201c3.973,0,7.203-3.23,7.203-7.201
		S55.454-138.697,51.481-138.697z M51.481-127.664c-2.111,0-3.831-1.719-3.831-3.832c0-2.111,1.72-3.832,3.831-3.832
		c2.114,0,3.834,1.721,3.834,3.832C55.315-129.383,53.596-127.664,51.481-127.664z"/>
	<path fill="#006CFF" d="M114.403-125.119c-0.184-0.908-1.079-1.49-1.987-1.305l-6.534,1.363c-0.067,0.014-0.127-0.025-0.146-0.086
		l-4.534-12.857c-1.379-3.91-5.09-6.542-9.239-6.542H89.88l0.041-18.784c0.006-1.499-0.564-2.91-1.605-3.99
		c-1.1-1.146-2.65-1.75-4.235-1.75H53.166v-5.396c0-5.097-4.148-9.253-9.246-9.253h-5.979c-0.921,0-1.729,0.716-1.756,1.644
		c-0.021,0.955,0.742,1.73,1.69,1.73h6.044c3.242,0,5.88,2.638,5.88,5.879v20.01c0.55-0.04,1.12-0.066,1.685-0.066
		c9.371,0,17.451,5.634,21.044,13.688h13.979l-0.007,3.725l-0.007,8.941c0.551-0.1,1.114-0.146,1.69-0.146s1.141,0.047,1.684,0.146
		l0.007-8.941v-4.063h2.088c2.724,0,5.156,1.723,6.063,4.295l4.528,12.852c0.497,1.418,1.85,2.34,3.308,2.34
		c0.232,0,0.471-0.025,0.709-0.08l6.528-1.359C114.014-123.316,114.597-124.205,114.403-125.119z M86.54-159.036H53.166v-6.661
		h31.048c0.623,0,1.212,0.245,1.656,0.689c0.438,0.444,0.683,1.034,0.676,1.664L86.54-159.036z"/>
	<path fill="#006CFF" d="M88.184-125.994c-4.212,0-7.638,3.426-7.638,7.637s3.426,7.639,7.638,7.639
		c4.211,0,7.638-3.428,7.638-7.639S92.395-125.994,88.184-125.994z M88.184-114.002c-2.401,0-4.354-1.955-4.354-4.355
		s1.953-4.354,4.354-4.354s4.354,1.953,4.354,4.354S90.585-114.002,88.184-114.002z"/>
	<circle fill="#006CFF" cx="88.184" cy="-118.357" r="1.434"/>
</g>
<g>
	<path fill="#A9A9A9" d="M144.022-152.271c-11.455,0-20.775,9.32-20.775,20.775c0,11.457,9.32,20.777,20.775,20.777
		c11.458,0,20.778-9.32,20.778-20.777C164.801-142.951,155.48-152.271,144.022-152.271z M144.022-114.089
		c-9.597,0-17.406-7.808-17.406-17.407c0-9.598,7.81-17.406,17.406-17.406c9.599,0,17.407,7.809,17.407,17.406
		C161.43-121.896,153.621-114.089,144.022-114.089z"/>
	<path fill="#A9A9A9" d="M144.022-138.697c-3.97,0-7.2,3.231-7.2,7.201c0,3.973,3.23,7.202,7.2,7.202
		c3.973,0,7.203-3.229,7.203-7.202C151.226-135.466,147.995-138.697,144.022-138.697z M144.022-127.664
		c-2.111,0-3.831-1.719-3.831-3.832c0-2.111,1.72-3.83,3.831-3.83c2.114,0,3.834,1.719,3.834,3.83
		C147.856-129.383,146.137-127.664,144.022-127.664z"/>
	<path fill="#A9A9A9" d="M206.944-125.118c-0.184-0.908-1.079-1.491-1.987-1.306l-6.534,1.365c-0.067,0.014-0.127-0.027-0.146-0.086
		l-4.534-12.858c-1.379-3.911-5.09-6.542-9.239-6.542h-2.082l0.041-18.785c0.006-1.499-0.564-2.91-1.605-3.99
		c-1.1-1.146-2.65-1.75-4.235-1.75h-30.914v-5.396c0-5.097-4.148-9.253-9.246-9.253h-5.979c-0.921,0-1.729,0.716-1.756,1.644
		c-0.021,0.955,0.742,1.73,1.69,1.73h6.044c3.242,0,5.88,2.638,5.88,5.879v20.01c0.55-0.04,1.12-0.066,1.685-0.066
		c9.371,0,17.451,5.634,21.044,13.687h13.979l-0.007,3.726l-0.007,8.94c0.551-0.099,1.114-0.146,1.69-0.146s1.141,0.047,1.684,0.146
		l0.007-8.94v-4.063h2.088c2.724,0,5.156,1.723,6.063,4.295l4.528,12.853c0.497,1.418,1.85,2.339,3.308,2.339
		c0.232,0,0.471-0.025,0.709-0.078l6.528-1.359C206.555-123.314,207.138-124.203,206.944-125.118z M179.081-159.035h-33.374v-6.661
		h31.048c0.623,0,1.212,0.246,1.656,0.689c0.438,0.444,0.683,1.034,0.676,1.664L179.081-159.035z"/>
	<path fill="#A9A9A9" d="M180.725-125.994c-4.212,0-7.638,3.427-7.638,7.638c0,4.212,3.426,7.638,7.638,7.638
		c4.211,0,7.638-3.426,7.638-7.638C188.362-122.567,184.936-125.994,180.725-125.994z M180.725-114.002
		c-2.401,0-4.354-1.953-4.354-4.354c0-2.4,1.953-4.354,4.354-4.354s4.354,1.954,4.354,4.354
		C185.079-115.955,183.126-114.002,180.725-114.002z"/>
	<circle fill="#A9A9A9" cx="180.725" cy="-118.356" r="1.434"/>
</g>
<path fill="#7FB5FF" d="M-97.1-58.665c-0.244-0.747-0.637-1.423-1.139-1.997c-0.828-1.03-1.992-1.772-3.324-2.047l-16.018-3.293
	l-8.01-14.085c-0.152-0.266-0.326-0.51-0.516-0.744c-1.076-1.462-2.795-2.354-4.635-2.354c-2.068,0-3.986,1.119-5.008,2.916
	l-8.104,14.256l-16.066,3.304c-2.025,0.417-3.678,1.896-4.32,3.862c-0.58,1.793-0.232,3.746,0.885,5.236
	c0.146,0.213,0.309,0.418,0.484,0.61l10.91,11.955l-1.822,16.278c-0.174,1.576,0.316,3.135,1.307,4.324
	c0.332,0.432,0.723,0.826,1.178,1.155c0.992,0.722,2.162,1.103,3.387,1.103c0.828,0,1.625-0.172,2.377-0.514l14.939-6.771
	l14.938,6.772c1.875,0.849,4.107,0.614,5.764-0.59c1.668-1.212,2.566-3.244,2.336-5.299l-1.822-16.298l11.053-12.114
	C-96.93-54.522-96.461-56.692-97.1-58.665"/>
<path fill="#A9A9A9" d="M-72.513-17.719c-1.232,0-2.406-0.381-3.401-1.104c-1.674-1.215-2.572-3.252-2.343-5.313l1.828-16.346
	l-11.089-12.152c-1.397-1.529-1.864-3.705-1.227-5.68c0.643-1.971,2.303-3.455,4.332-3.871l16.112-3.313l8.127-14.299
	c1.024-1.803,2.949-2.924,5.021-2.924c2.071,0,3.995,1.121,5.021,2.92l8.13,14.303l16.111,3.313c2.026,0.416,3.686,1.9,4.331,3.871
	c0.638,1.975,0.17,4.15-1.231,5.68L-33.875-40.48l1.828,16.344c0.23,2.062-0.667,4.099-2.342,5.314
	c-1.662,1.207-3.898,1.441-5.779,0.594l-14.983-6.793l-14.979,6.791C-70.885-17.891-71.686-17.719-72.513-17.719 M-55.151-79.969
	c-1.087,0-2.097,0.588-2.634,1.533l-8.434,14.838c-0.197,0.346-0.532,0.588-0.917,0.67l-16.724,3.438
	c-1.065,0.219-1.935,0.996-2.271,2.029c-0.333,1.035-0.09,2.174,0.644,2.974l11.508,12.613c0.266,0.293,0.394,0.687,0.35,1.079
	l-1.896,16.966c-0.123,1.079,0.351,2.147,1.229,2.784c0.873,0.634,2.052,0.755,3.029,0.31l15.55-7.048
	c0.359-0.163,0.773-0.163,1.134,0l15.548,7.048c0.986,0.443,2.159,0.324,3.031-0.31c0.877-0.637,1.348-1.705,1.228-2.785
	l-1.897-16.965c-0.043-0.393,0.082-0.786,0.348-1.079l11.507-12.612c0.733-0.801,0.981-1.939,0.646-2.977
	c-0.337-1.031-1.206-1.809-2.268-2.027l-16.723-3.438c-0.386-0.082-0.723-0.324-0.918-0.67l-8.436-14.84
	C-53.057-79.381-54.066-79.969-55.151-79.969"/>
<g>
	
		<polygon fill="none" stroke="#A9A9A9" stroke-width="2.5" stroke-linecap="round" stroke-linejoin="round" stroke-miterlimit="10" points="
		64.899,-20.195 64.26,-14.719 68.686,-18.008 82.517,-41.965 78.728,-44.152 	"/>
	<path fill="none" stroke="#A9A9A9" stroke-width="2.5" stroke-linecap="round" stroke-linejoin="round" stroke-miterlimit="10" d="
		M66.71-52.264l28.843,16.652c2.997-5.193,2.879-11.328,0.227-16.244l9.226-15.979c3.344-0.77,6.373-2.869,8.223-6.076
		L91.039-86.719c-1.851,3.205-2.153,6.879-1.148,10.16l-9.226,15.977C75.081-60.42,69.708-57.455,66.71-52.264z"/>
</g>
<g>
	<polygon fill="#58595B" points="7.442,-19.83 6.803,-14.352 11.229,-17.643 25.06,-41.6 21.271,-43.787 	"/>
	
		<polygon fill="none" stroke="#58595B" stroke-width="2" stroke-linecap="round" stroke-linejoin="round" stroke-miterlimit="10" points="
		7.442,-19.83 6.803,-14.352 11.229,-17.643 25.06,-41.6 21.271,-43.787 	"/>
	<path fill="#FF9CC2" d="M9.253-51.898l28.843,16.652c2.997-5.193,2.878-11.328,0.228-16.244l9.225-15.979
		c3.344-0.77,6.372-2.869,8.224-6.074L33.583-86.354c-1.852,3.205-2.154,6.879-1.15,10.16l-9.225,15.977
		C17.624-60.055,12.251-57.09,9.253-51.898"/>
	<path fill="none" stroke="#FF9CC2" stroke-width="3" stroke-linecap="round" stroke-linejoin="round" stroke-miterlimit="10" d="
		M9.253-51.898l28.843,16.652c2.997-5.193,2.878-11.328,0.228-16.244l9.225-15.979c3.344-0.77,6.372-2.869,8.224-6.074
		L33.583-86.354c-1.852,3.205-2.154,6.879-1.15,10.16l-9.225,15.977C17.624-60.055,12.251-57.09,9.253-51.898z"/>
</g>
<g>
	<path fill="none" stroke="#A9A9A9" stroke-width="2.8" stroke-linecap="round" stroke-linejoin="round" stroke-miterlimit="10" d="
		M173.096-34.759c1.781-3.113,5.156-5.215,9.02-5.215c5.74,0,10.41,4.652,10.41,10.41c0,5.738-4.67,10.406-10.41,10.406
		c-5.756,0-10.407-4.668-10.407-10.406C171.708-31.458,172.215-33.224,173.096-34.759z"/>
	<path fill="none" stroke="#A9A9A9" stroke-width="2.8" stroke-linecap="round" stroke-linejoin="round" stroke-miterlimit="10" d="
		M173.115-68.558c-0.9-1.516-1.407-3.299-1.407-5.193c0-5.758,4.651-10.407,10.407-10.407c5.74,0,10.41,4.649,10.41,10.407
		c0,5.74-4.67,10.41-10.41,10.41C178.252-63.341,174.895-65.444,173.115-68.558z"/>
	<path fill="none" stroke="#A9A9A9" stroke-width="2.8" stroke-linecap="round" stroke-linejoin="round" stroke-miterlimit="10" d="
		M152.783-56.854c-1.781-3.113-5.16-5.211-9.021-5.211c-5.74,0-10.408,4.652-10.408,10.41c0,5.734,4.668,10.406,10.408,10.406
		c3.861,0,7.223-2.1,9.004-5.213c0.898-1.52,1.407-3.301,1.407-5.193C154.173-53.554,153.664-55.315,152.783-56.854z"/>
	
		<line fill="none" stroke="#A9A9A9" stroke-width="2.8" stroke-linecap="round" stroke-linejoin="round" stroke-miterlimit="10" x1="152.783" y1="-56.854" x2="173.115" y2="-68.558"/>
	
		<line fill="none" stroke="#A9A9A9" stroke-width="2.8" stroke-linecap="round" stroke-linejoin="round" stroke-miterlimit="10" x1="152.766" y1="-46.462" x2="173.096" y2="-34.759"/>
</g>
<g>
	<g>
		<defs>
			<rect id="SVGID_1_" x="247.5" y="-31.719" width="50.999" height="9"/>
		</defs>
		<clipPath id="SVGID_2_">
			<use xlink:href="#SVGID_1_"  overflow="visible"/>
		</clipPath>
		
			<linearGradient id="SVGID_3_" gradientUnits="userSpaceOnUse" x1="-438.0435" y1="225.8027" x2="-437.0435" y2="225.8027" gradientTransform="matrix(0 -167.3333 -167.3333 0 38057.2344 -73277.0938)">
			<stop  offset="0" style="stop-color:#FFFFFF"/>
			<stop  offset="0.3842" style="stop-color:#FFF427"/>
			<stop  offset="0.4821" style="stop-color:#FDD925"/>
			<stop  offset="0.6305" style="stop-color:#FAB622"/>
			<stop  offset="0.7706" style="stop-color:#F99D20"/>
			<stop  offset="0.8977" style="stop-color:#F78D1E"/>
			<stop  offset="1" style="stop-color:#F7881E"/>
		</linearGradient>
		<rect x="247.5" y="-31.719" clip-path="url(#SVGID_2_)" fill="url(#SVGID_3_)" width="50.999" height="9"/>
	</g>
	<g>
		<defs>
			<path id="SVGID_4_" d="M267-76.719c0,2.157,1.145,4.047,2.855,5.102L259.13-54.199l-19.595-8.203
				c0.299-0.713,0.465-1.495,0.465-2.316c0-3.314-2.686-6-6-6s-6,2.686-6,6c0,3.313,2.686,6,6,6c0.965,0,1.873-0.234,2.68-0.639
				l10.817,21.632l-0.019,0.007h0.021h50.98h0.019l-0.015-0.007l10.818-21.64c0.813,0.41,1.727,0.646,2.696,0.646
				c3.315,0,6.001-2.688,6.001-6c0-3.314-2.686-6-6.001-6c-3.312,0-6,2.686-6,6c0,0.818,0.167,1.598,0.464,2.309l-19.615,8.212
				l-10.709-17.414c1.713-1.058,2.861-2.946,2.861-5.106c0-3.316-2.688-6-6-6S267-80.035,267-76.719"/>
		</defs>
		<clipPath id="SVGID_5_">
			<use xlink:href="#SVGID_4_"  overflow="visible"/>
		</clipPath>
		
			<linearGradient id="SVGID_6_" gradientUnits="userSpaceOnUse" x1="-438.0435" y1="225.8027" x2="-437.0435" y2="225.8027" gradientTransform="matrix(0 -167.3333 -167.3333 0 38057.2344 -73277.0938)">
			<stop  offset="0" style="stop-color:#FFFFFF"/>
			<stop  offset="0.3842" style="stop-color:#FFF427"/>
			<stop  offset="0.4821" style="stop-color:#FDD925"/>
			<stop  offset="0.6305" style="stop-color:#FAB622"/>
			<stop  offset="0.7706" style="stop-color:#F99D20"/>
			<stop  offset="0.8977" style="stop-color:#F78D1E"/>
			<stop  offset="1" style="stop-color:#F7881E"/>
		</linearGradient>
		<rect x="228" y="-82.719" clip-path="url(#SVGID_5_)" fill="url(#SVGID_6_)" width="90" height="45"/>
	</g>
</g>
<path fill="#A9A9A9" d="M-82.031,18.875c-0.015-0.092-0.037-0.18-0.063-0.271c-0.025-0.088-0.055-0.176-0.088-0.264
	c-0.033-0.084-0.069-0.168-0.114-0.254c-0.04-0.08-0.084-0.16-0.131-0.24c-0.048-0.076-0.103-0.158-0.161-0.23
	c-0.052-0.074-0.114-0.146-0.176-0.215c0.074-0.086,0.136-0.178,0.202-0.27c0.063-0.088,0.117-0.182,0.173-0.281
	c0.051-0.096,0.098-0.197,0.142-0.297c0.041-0.102,0.081-0.205,0.113-0.311c0.033-0.107,0.059-0.213,0.082-0.318
	c0.021-0.111,0.039-0.221,0.051-0.33c0.015-0.109,0.021-0.221,0.021-0.334c0-0.109-0.003-0.223-0.014-0.336
	c-0.019-0.213-0.058-0.422-0.125-0.623c-0.059-0.201-0.14-0.396-0.238-0.582c-0.095-0.184-0.213-0.355-0.341-0.52
	c-0.131-0.162-0.274-0.316-0.432-0.451c-0.162-0.139-0.333-0.264-0.513-0.373c-0.184-0.111-0.377-0.201-0.579-0.279
	c-0.201-0.076-0.411-0.135-0.626-0.176c-0.216-0.039-0.439-0.063-0.67-0.063h-0.967h-0.97h-0.97h-0.971h-0.971h-0.967h-0.974h-0.967
	c0.047-0.15,0.099-0.318,0.154-0.494c0.051-0.176,0.105-0.365,0.161-0.561c0.055-0.197,0.109-0.402,0.161-0.615
	c0.051-0.211,0.102-0.432,0.154-0.65c0.047-0.225,0.095-0.447,0.131-0.674c0.044-0.229,0.081-0.459,0.11-0.686
	s0.055-0.451,0.073-0.674c0.015-0.223,0.022-0.443,0.022-0.656c0-0.219-0.011-0.436-0.037-0.641
	c-0.029-0.205-0.063-0.406-0.109-0.596c-0.044-0.191-0.099-0.375-0.161-0.551c-0.063-0.176-0.129-0.344-0.198-0.502
	c-0.074-0.156-0.15-0.307-0.228-0.445c-0.077-0.141-0.157-0.271-0.234-0.393c-0.081-0.121-0.158-0.23-0.235-0.334
	c-0.072-0.098-0.143-0.189-0.212-0.266c-0.1-0.125-0.206-0.242-0.309-0.352c-0.109-0.111-0.22-0.213-0.329-0.313
	c-0.109-0.098-0.224-0.186-0.333-0.271c-0.114-0.084-0.228-0.16-0.34-0.23c-0.11-0.064-0.224-0.127-0.338-0.18
	c-0.113-0.055-0.223-0.098-0.333-0.135c-0.11-0.037-0.216-0.063-0.323-0.08c-0.106-0.02-0.208-0.029-0.307-0.029
	c-0.172,0-0.333,0.01-0.487,0.033c-0.157,0.018-0.304,0.047-0.447,0.084c-0.139,0.031-0.275,0.072-0.399,0.121
	c-0.128,0.043-0.242,0.092-0.348,0.139s-0.205,0.1-0.293,0.146c-0.084,0.047-0.161,0.092-0.223,0.131
	c-0.065,0.041-0.117,0.078-0.157,0.107c-0.044,0.025-0.07,0.047-0.085,0.059c-0.021,0.018-0.047,0.039-0.066,0.059
	c-0.022,0.021-0.04,0.043-0.063,0.068c-0.018,0.023-0.037,0.049-0.051,0.074c-0.015,0.021-0.029,0.047-0.044,0.076
	c-0.01,0.025-0.021,0.055-0.033,0.082c-0.007,0.029-0.018,0.059-0.025,0.088c-0.004,0.029-0.011,0.059-0.011,0.088
	c-0.003,0.029-0.003,0.059-0.003,0.09V3.52v0.541v0.547v0.541v0.543v0.541v0.543V7.32l-0.451,0.967l-0.447,0.971l-0.446,0.971
	l-0.451,0.971l-0.447,0.967l-0.446,0.971l-0.447,0.967l-0.447,0.971c-0.01-0.045-0.021-0.088-0.04-0.133
	c-0.019-0.041-0.041-0.08-0.062-0.121c-0.023-0.037-0.052-0.072-0.081-0.105s-0.059-0.066-0.095-0.096
	c-0.033-0.025-0.073-0.051-0.11-0.072c-0.041-0.023-0.081-0.045-0.121-0.059c-0.044-0.016-0.088-0.025-0.136-0.037
	c-0.044-0.008-0.092-0.012-0.14-0.012h-0.809h-0.805h-0.806h-0.81h-0.805h-0.807h-0.809h-0.806c-0.231,0-0.457,0.025-0.681,0.07
	c-0.216,0.043-0.428,0.109-0.634,0.197c-0.201,0.084-0.392,0.191-0.575,0.311c-0.179,0.121-0.344,0.262-0.498,0.414
	c-0.154,0.154-0.293,0.318-0.413,0.498c-0.125,0.184-0.228,0.375-0.312,0.576c-0.088,0.201-0.154,0.416-0.202,0.637
	c-0.044,0.219-0.066,0.447-0.066,0.682v1.289v1.289v1.293v1.289v1.291v1.293v1.289v1.289c0,0.234,0.021,0.463,0.066,0.682
	c0.048,0.221,0.113,0.432,0.202,0.637c0.084,0.199,0.187,0.393,0.312,0.576c0.12,0.18,0.259,0.344,0.413,0.498
	c0.154,0.152,0.319,0.293,0.498,0.414c0.184,0.119,0.374,0.227,0.575,0.311c0.206,0.088,0.418,0.154,0.634,0.201
	c0.224,0.045,0.45,0.066,0.681,0.066h0.484h0.487h0.483h0.484h0.484h0.483h0.487h0.484c0.168,0,0.337-0.016,0.501-0.037
	c0.169-0.025,0.329-0.066,0.483-0.113c0.161-0.047,0.315-0.105,0.462-0.176c0.15-0.07,0.289-0.15,0.425-0.246
	c0.14-0.088,0.268-0.189,0.389-0.299c0.12-0.111,0.237-0.229,0.344-0.352c0.102-0.129,0.197-0.264,0.286-0.404
	c0.087-0.143,0.164-0.293,0.23-0.449c0.135,0.064,0.274,0.127,0.417,0.182c0.143,0.057,0.29,0.111,0.436,0.158
	c0.146,0.051,0.3,0.096,0.447,0.137c0.154,0.039,0.3,0.076,0.446,0.109c0.15,0.033,0.297,0.063,0.44,0.088
	c0.139,0.021,0.278,0.047,0.414,0.063c0.136,0.014,0.264,0.029,0.389,0.035c0.121,0.008,0.238,0.012,0.344,0.012h1.483h1.479h1.479
	h1.484h1.483h1.479h1.479h1.48c0.19,0,0.37-0.016,0.545-0.045c0.181-0.029,0.352-0.072,0.517-0.131
	c0.168-0.059,0.329-0.129,0.483-0.209c0.154-0.084,0.301-0.18,0.437-0.285c0.135-0.104,0.263-0.221,0.38-0.348
	c0.118-0.125,0.224-0.26,0.319-0.406c0.091-0.141,0.172-0.293,0.238-0.451c0.069-0.162,0.125-0.326,0.16-0.498
	c0.019-0.08,0.033-0.164,0.044-0.246c0.011-0.08,0.018-0.164,0.026-0.244c0.003-0.084,0.007-0.166,0.003-0.246
	c0-0.076-0.003-0.16-0.011-0.242c-0.007-0.076-0.018-0.156-0.033-0.234c-0.014-0.08-0.033-0.156-0.051-0.238
	c-0.022-0.076-0.044-0.152-0.07-0.23c-0.029-0.076-0.058-0.152-0.087-0.227c0.117-0.066,0.231-0.143,0.34-0.223
	c0.106-0.082,0.209-0.17,0.304-0.264c0.095-0.092,0.184-0.191,0.264-0.297c0.08-0.104,0.154-0.213,0.223-0.33
	c0.066-0.113,0.125-0.23,0.175-0.352c0.052-0.125,0.096-0.248,0.129-0.381c0.037-0.129,0.066-0.26,0.081-0.395
	c0.021-0.133,0.029-0.268,0.029-0.41c0-0.053-0.004-0.104-0.004-0.158c-0.003-0.051-0.007-0.105-0.011-0.158
	c-0.008-0.051-0.014-0.105-0.022-0.156c-0.007-0.053-0.019-0.104-0.029-0.154c-0.007-0.051-0.022-0.1-0.037-0.15
	c-0.011-0.051-0.025-0.102-0.041-0.15c-0.018-0.051-0.037-0.098-0.055-0.15c-0.015-0.047-0.037-0.094-0.059-0.141
	c0.121-0.07,0.234-0.145,0.34-0.229c0.11-0.08,0.212-0.168,0.304-0.26c0.096-0.096,0.183-0.195,0.264-0.301
	c0.084-0.102,0.158-0.213,0.224-0.326s0.128-0.23,0.175-0.355c0.055-0.123,0.099-0.248,0.132-0.377
	c0.034-0.127,0.063-0.26,0.081-0.395c0.019-0.137,0.025-0.271,0.025-0.41c0-0.096-0.003-0.188-0.01-0.283
	C-82.002,19.059-82.014,18.967-82.031,18.875z M-84.99,20.896c-0.033,0.008-0.07,0.021-0.103,0.037
	c-0.037,0.014-0.074,0.031-0.103,0.051c-0.033,0.021-0.062,0.043-0.091,0.066c-0.029,0.025-0.059,0.047-0.084,0.076
	c-0.021,0.025-0.048,0.055-0.07,0.088c-0.022,0.029-0.041,0.063-0.059,0.096s-0.033,0.068-0.044,0.105
	c-0.01,0.041-0.018,0.074-0.025,0.113c-0.007,0.037-0.01,0.074-0.014,0.113c0,0.037,0,0.074,0.003,0.111
	c0.003,0.039,0.01,0.076,0.021,0.113c0.008,0.033,0.018,0.068,0.037,0.105c0.01,0.033,0.029,0.07,0.047,0.104
	c0.019,0.029,0.04,0.061,0.062,0.09c0.025,0.033,0.052,0.059,0.081,0.086c0.036,0.035,0.073,0.072,0.102,0.109
	c0.033,0.037,0.065,0.08,0.091,0.117c0.029,0.039,0.059,0.084,0.081,0.125c0.025,0.043,0.047,0.088,0.066,0.131
	c0.018,0.045,0.037,0.092,0.051,0.139c0.015,0.045,0.029,0.092,0.037,0.141c0.011,0.047,0.018,0.094,0.025,0.146
	c0.004,0.047,0.004,0.098,0.004,0.146c0,0.094-0.007,0.182-0.021,0.27c-0.02,0.088-0.041,0.172-0.074,0.254
	c-0.033,0.08-0.074,0.16-0.117,0.234c-0.044,0.072-0.095,0.143-0.154,0.209c-0.059,0.061-0.124,0.123-0.19,0.176
	c-0.07,0.055-0.144,0.102-0.22,0.143c-0.081,0.039-0.161,0.072-0.249,0.098c-0.085,0.029-0.176,0.049-0.268,0.059
	c-0.036,0.004-0.077,0.012-0.113,0.023c-0.033,0.006-0.07,0.018-0.103,0.035c-0.037,0.016-0.073,0.029-0.102,0.053
	c-0.033,0.018-0.062,0.041-0.092,0.064c-0.029,0.023-0.059,0.049-0.084,0.074c-0.026,0.029-0.047,0.059-0.07,0.088
	c-0.021,0.031-0.039,0.066-0.059,0.098c-0.018,0.033-0.033,0.07-0.043,0.107c-0.015,0.037-0.022,0.072-0.029,0.109
	c-0.008,0.041-0.008,0.076-0.011,0.117c0,0.033,0,0.074,0.003,0.109c0.004,0.037,0.011,0.074,0.022,0.111
	c0.007,0.035,0.019,0.072,0.033,0.105c0.015,0.037,0.033,0.07,0.051,0.102c0.019,0.033,0.041,0.063,0.062,0.096
	c0.026,0.029,0.052,0.055,0.078,0.084c0.051,0.045,0.095,0.096,0.136,0.141c0.04,0.051,0.077,0.102,0.109,0.156
	c0.037,0.055,0.066,0.107,0.087,0.166c0.029,0.059,0.048,0.113,0.066,0.176c0.019,0.059,0.033,0.117,0.044,0.178
	c0.011,0.063,0.015,0.129,0.018,0.191c0,0.063,0,0.125-0.007,0.189c-0.003,0.066-0.014,0.133-0.029,0.199
	c-0.018,0.08-0.043,0.156-0.077,0.234c-0.033,0.072-0.073,0.146-0.117,0.211c-0.044,0.07-0.095,0.133-0.154,0.191
	c-0.059,0.059-0.122,0.113-0.187,0.164c-0.065,0.053-0.139,0.096-0.217,0.137c-0.073,0.035-0.153,0.068-0.237,0.098
	c-0.08,0.025-0.169,0.049-0.257,0.059c-0.087,0.02-0.175,0.023-0.271,0.023h-1.48h-1.479h-1.479h-1.483h-1.484H-96.6h-1.479h-1.483
	c-0.128,0-0.264-0.004-0.41-0.023c-0.143-0.01-0.297-0.035-0.455-0.063c-0.153-0.025-0.315-0.061-0.476-0.098
	c-0.161-0.037-0.322-0.08-0.479-0.133c-0.158-0.047-0.311-0.098-0.458-0.156c-0.146-0.055-0.285-0.113-0.413-0.176
	c-0.128-0.066-0.249-0.129-0.348-0.201c-0.014-0.01-0.021-0.018-0.034-0.027v-1.064v-1.451v-1.453V22.34v-1.451v-1.453V17.98v-0.955
	l0.044-0.021l0.161-0.082l0.162-0.08l0.161-0.08l0.161-0.082l0.162-0.08c0.021-0.01,0.036-0.018,0.058-0.031
	c0.022-0.012,0.037-0.023,0.055-0.037c0.018-0.016,0.037-0.025,0.055-0.041l0.048-0.047c0.015-0.016,0.029-0.033,0.044-0.049
	c0.015-0.018,0.029-0.035,0.041-0.055c0.015-0.018,0.026-0.039,0.037-0.059c0.011-0.018,0.022-0.039,0.029-0.059l0.487-1.051
	l0.484-1.047l0.483-1.051l0.487-1.047l0.483-1.053l0.484-1.047l0.483-1.047l0.484-1.051c0.007-0.016,0.014-0.025,0.018-0.041
	c0.003-0.016,0.011-0.025,0.015-0.039c0.004-0.016,0.008-0.029,0.012-0.041c0.006-0.016,0.006-0.029,0.014-0.045
	c0-0.014,0.003-0.025,0.003-0.039c0.004-0.016,0.008-0.029,0.008-0.045c0-0.014,0.004-0.029,0.004-0.043V7.492V6.984v-0.51v-0.51
	V5.457v-0.51V4.439V3.93V3.42l0.109-0.055c0.037-0.018,0.077-0.033,0.121-0.051c0.04-0.016,0.081-0.033,0.128-0.047
	c0.044-0.016,0.092-0.029,0.14-0.045c0.047-0.014,0.095-0.025,0.146-0.037c0.051-0.01,0.106-0.021,0.158-0.029
	c0.055-0.006,0.106-0.014,0.165-0.018c0.055-0.004,0.113-0.008,0.172-0.008c0.073,0,0.165,0.025,0.274,0.078
	c0.107,0.051,0.228,0.123,0.352,0.215c0.128,0.096,0.264,0.213,0.403,0.344c0.135,0.137,0.271,0.287,0.407,0.455
	c0.132,0.168,0.26,0.355,0.377,0.553c0.121,0.197,0.227,0.406,0.315,0.631c0.091,0.223,0.169,0.453,0.216,0.695
	c0.051,0.242,0.081,0.494,0.081,0.746c0,0.268-0.019,0.551-0.048,0.836c-0.029,0.289-0.074,0.586-0.128,0.883
	c-0.051,0.293-0.113,0.59-0.179,0.879c-0.07,0.289-0.143,0.566-0.212,0.838c-0.077,0.268-0.15,0.52-0.224,0.754
	c-0.069,0.23-0.135,0.439-0.197,0.627c-0.063,0.184-0.114,0.336-0.158,0.457c-0.043,0.117-0.072,0.205-0.087,0.246v0.004h-0.003
	v0.004c-0.011,0.029-0.022,0.063-0.026,0.092c-0.011,0.031-0.018,0.064-0.018,0.094c-0.008,0.033-0.008,0.066-0.008,0.1
	c0,0.029,0,0.063,0.008,0.096c0,0.029,0.007,0.063,0.015,0.092c0.007,0.031,0.019,0.061,0.029,0.094
	c0.011,0.029,0.025,0.059,0.036,0.088c0.018,0.029,0.033,0.055,0.055,0.084c0.015,0.027,0.037,0.053,0.059,0.078
	c0.023,0.021,0.044,0.043,0.07,0.066c0.021,0.021,0.048,0.043,0.077,0.061c0.021,0.02,0.051,0.033,0.08,0.049
	c0.029,0.014,0.058,0.029,0.087,0.039c0.029,0.012,0.059,0.02,0.092,0.029c0.033,0.008,0.062,0.012,0.095,0.02
	c0.029,0,0.062,0.004,0.095,0.004h1.114h1.106h1.113h1.11h1.113h1.106h1.113h1.106c0.128,0,0.249,0.01,0.37,0.033
	c0.117,0.021,0.234,0.051,0.341,0.09c0.109,0.041,0.22,0.092,0.319,0.146c0.099,0.059,0.193,0.125,0.278,0.199
	c0.088,0.068,0.168,0.15,0.238,0.238c0.073,0.084,0.135,0.176,0.19,0.27c0.051,0.1,0.095,0.201,0.128,0.309
	c0.033,0.105,0.055,0.215,0.066,0.33c0.008,0.084,0.011,0.168,0.004,0.248c-0.004,0.084-0.011,0.168-0.029,0.246
	c-0.015,0.084-0.033,0.16-0.062,0.238c-0.026,0.076-0.056,0.152-0.091,0.227c-0.037,0.068-0.081,0.139-0.125,0.209
	c-0.048,0.064-0.099,0.131-0.154,0.189c-0.059,0.063-0.117,0.117-0.183,0.172c-0.062,0.055-0.131,0.104-0.205,0.146
	c-0.029,0.023-0.059,0.041-0.088,0.063c-0.029,0.025-0.052,0.049-0.077,0.074s-0.043,0.055-0.07,0.084
	c-0.014,0.025-0.036,0.055-0.051,0.088c-0.018,0.029-0.029,0.063-0.044,0.096c-0.014,0.031-0.021,0.064-0.029,0.098
	c-0.007,0.037-0.014,0.07-0.018,0.107c-0.003,0.035-0.003,0.068-0.003,0.105s0.007,0.07,0.015,0.105
	c0.004,0.037,0.011,0.07,0.022,0.104s0.021,0.066,0.041,0.098c0.01,0.033,0.029,0.063,0.047,0.092
	c0.019,0.029,0.04,0.059,0.066,0.084c0.021,0.027,0.044,0.053,0.069,0.078c0.026,0.021,0.055,0.043,0.084,0.066
	c0.025,0.018,0.059,0.039,0.091,0.055c0.063,0.033,0.121,0.068,0.176,0.105c0.055,0.041,0.106,0.08,0.157,0.125
	c0.048,0.043,0.095,0.096,0.136,0.143c0.041,0.055,0.081,0.105,0.117,0.162c0.033,0.055,0.062,0.113,0.091,0.172
	c0.026,0.061,0.048,0.123,0.066,0.186c0.019,0.063,0.033,0.129,0.041,0.195c0.011,0.064,0.015,0.135,0.015,0.201
	c0,0.092-0.008,0.18-0.026,0.268c-0.014,0.088-0.04,0.176-0.073,0.256s-0.07,0.16-0.114,0.23c-0.047,0.076-0.099,0.146-0.158,0.209
	c-0.059,0.066-0.121,0.125-0.19,0.18c-0.07,0.051-0.143,0.098-0.22,0.139c-0.077,0.041-0.161,0.076-0.249,0.1
	c-0.085,0.029-0.176,0.047-0.264,0.059C-84.914,20.881-84.95,20.889-84.99,20.896z M-106.015,29.932h-0.484h-0.487h-0.483h-0.484
	h-0.484h-0.483h-0.487h-0.484c-0.121,0-0.241-0.016-0.359-0.037c-0.113-0.025-0.227-0.059-0.333-0.107
	c-0.106-0.043-0.205-0.098-0.3-0.16c-0.095-0.066-0.183-0.139-0.264-0.221c-0.081-0.08-0.154-0.168-0.22-0.264
	c-0.066-0.094-0.121-0.193-0.165-0.299c-0.044-0.111-0.077-0.221-0.103-0.338c-0.025-0.113-0.036-0.234-0.036-0.359v-1.289v-1.289
	v-1.293v-1.291v-1.289v-1.293v-1.289v-1.289c0-0.125,0.011-0.246,0.036-0.359c0.026-0.117,0.059-0.23,0.103-0.338
	c0.044-0.105,0.099-0.205,0.165-0.299c0.066-0.096,0.139-0.184,0.22-0.264c0.081-0.082,0.168-0.154,0.264-0.221
	c0.096-0.063,0.194-0.117,0.3-0.164c0.106-0.045,0.22-0.078,0.333-0.104c0.118-0.025,0.238-0.035,0.359-0.035h0.707h0.711h0.703
	h0.707h0.707h0.707h0.708h0.706v0.061v0.063v0.059v0.063v0.063v0.063v0.059v0.063c0,0.002,0,0.004,0,0.006v1.443v1.455v1.453v1.451
	v1.453v1.453v1.451v1.445c0,0.002,0,0.002,0,0.004c0,0.125-0.011,0.246-0.036,0.359c-0.026,0.117-0.059,0.227-0.103,0.338
	c-0.044,0.105-0.099,0.205-0.165,0.299c-0.063,0.096-0.139,0.184-0.22,0.264c-0.077,0.082-0.168,0.154-0.264,0.221
	c-0.095,0.063-0.194,0.117-0.3,0.16c-0.106,0.049-0.22,0.082-0.333,0.107C-105.773,29.916-105.894,29.932-106.015,29.932z"/>
<g>
	<path fill="none" stroke="#A9A9A9" stroke-width="1.5" stroke-linecap="round" stroke-linejoin="round" stroke-miterlimit="10" d="
		M-135.484,24.33c0.822-1.438,2.381-2.406,4.163-2.406c2.648,0,4.805,2.146,4.805,4.803c0,2.65-2.156,4.805-4.805,4.805
		c-2.657,0-4.803-2.154-4.803-4.805C-136.124,25.854-135.891,25.039-135.484,24.33z"/>
	<path fill="none" stroke="#A9A9A9" stroke-width="1.5" stroke-linecap="round" stroke-linejoin="round" stroke-miterlimit="10" d="
		M-135.475,8.732c-0.416-0.701-0.648-1.523-0.648-2.398c0-2.656,2.146-4.803,4.803-4.803c2.648,0,4.805,2.146,4.805,4.803
		c0,2.648-2.156,4.805-4.805,4.805C-133.103,11.139-134.653,10.17-135.475,8.732z"/>
	<path fill="none" stroke="#A9A9A9" stroke-width="1.5" stroke-linecap="round" stroke-linejoin="round" stroke-miterlimit="10" d="
		M-144.857,14.133c-0.824-1.438-2.382-2.406-4.165-2.406c-2.649,0-4.803,2.146-4.803,4.805c0,2.648,2.153,4.803,4.803,4.803
		c1.783,0,3.333-0.969,4.156-2.404c0.415-0.701,0.649-1.523,0.649-2.398S-144.452,14.844-144.857,14.133z"/>
	
		<line fill="none" stroke="#A9A9A9" stroke-width="1.5" stroke-linecap="round" stroke-linejoin="round" stroke-miterlimit="10" x1="-144.857" y1="14.133" x2="-135.475" y2="8.732"/>
	
		<line fill="none" stroke="#A9A9A9" stroke-width="1.5" stroke-linecap="round" stroke-linejoin="round" stroke-miterlimit="10" x1="-144.866" y1="18.93" x2="-135.483" y2="24.33"/>
</g>
<path fill="#A9A9A9" d="M68.739,17.619c0,8.324,6.771,15.096,15.093,15.096c3.575,0,6.862-1.258,9.45-3.342l8.936,8.936
	c0.146,0.148,0.341,0.221,0.535,0.221c0.193,0,0.389-0.072,0.537-0.221c0.295-0.299,0.295-0.775,0-1.072l-8.873-8.875
	c2.779-2.738,4.507-6.539,4.507-10.742c0-8.32-6.771-15.09-15.092-15.09S68.739,9.299,68.739,17.619 M70.259,17.619
	c0-7.484,6.089-13.572,13.573-13.572c7.485,0,13.575,6.088,13.575,13.572c0,7.488-6.09,13.578-13.575,13.578
	C76.348,31.197,70.259,25.107,70.259,17.619"/>
<g>
	
		<line fill="none" stroke="#A9A9A9" stroke-width="3" stroke-linecap="round" stroke-linejoin="round" stroke-miterlimit="10" x1="1.628" y1="1.599" x2="24.628" y2="29.599"/>
	
		<line fill="none" stroke="#A9A9A9" stroke-width="3" stroke-linecap="round" stroke-linejoin="round" stroke-miterlimit="10" x1="24.925" y1="29.896" x2="48.355" y2="1.513"/>
</g>
<g>
	
		<line fill="none" stroke="#191919" stroke-width="3" stroke-linecap="round" stroke-linejoin="round" stroke-miterlimit="10" x1="-116.711" y1="46.365" x2="-156.859" y2="74.365"/>
	
		<line fill="none" stroke="#191919" stroke-width="3" stroke-linecap="round" stroke-linejoin="round" stroke-miterlimit="10" x1="-156.859" y1="74.365" x2="-116.588" y2="103.076"/>
</g>
<g>
	
		<line fill="none" stroke="#A9A9A9" stroke-width="2" stroke-linecap="round" stroke-linejoin="round" stroke-miterlimit="10" x1="-23.964" y1="25.162" x2="-11.98" y2="15.318"/>
	
		<line fill="none" stroke="#A9A9A9" stroke-width="2" stroke-linecap="round" stroke-linejoin="round" stroke-miterlimit="10" x1="-11.854" y1="15.191" x2="-24" y2="5.162"/>
</g>
<circle fill="none" stroke="#A9A9A9" stroke-width="1.5" stroke-linecap="round" stroke-miterlimit="10" cx="145.303" cy="3.972" r="3.5"/>
<circle fill="none" stroke="#A9A9A9" stroke-width="1.5" stroke-linecap="round" stroke-miterlimit="10" cx="145.303" cy="20.886" r="3.5"/>
<circle fill="none" stroke="#A9A9A9" stroke-width="1.5" stroke-linecap="round" stroke-miterlimit="10" cx="145.303" cy="37.8" r="3.5"/>
<g>
	<g>
		<path fill="#A9A9A9" d="M-54.333,25.314c-3.615,0-7.367-1.307-11.152-3.889c-3.027-2.063-5.221-4.387-6.024-5.293
			c-0.432-0.484-0.432-1.219,0-1.703c0.804-0.904,2.997-3.229,6.024-5.291c3.785-2.582,7.537-3.891,11.152-3.891
			c3.613,0,7.366,1.309,11.151,3.891c3.025,2.063,5.222,4.387,6.024,5.291l0,0c0.432,0.484,0.432,1.219,0,1.703
			c-0.803,0.906-2.998,3.23-6.024,5.293C-46.967,24.008-50.72,25.314-54.333,25.314z M-54.333,6.455
			c-7.861,0-14.444,6.717-16.275,8.775c-0.025,0.031-0.025,0.072,0,0.102c1.831,2.059,8.414,8.775,16.275,8.775
			s14.443-6.717,16.274-8.775c0.024-0.029,0.024-0.07,0-0.102l0,0C-39.89,13.172-46.472,6.455-54.333,6.455z"/>
	</g>
	<g>
		<path fill="#A9A9A9" d="M-54.333,22.982c-4.246,0-7.701-3.455-7.701-7.701s3.455-7.699,7.701-7.699s7.699,3.453,7.699,7.699
			S-50.087,22.982-54.333,22.982z M-54.333,8.787c-3.58,0-6.494,2.912-6.494,6.494c0,3.58,2.914,6.494,6.494,6.494
			s6.493-2.914,6.493-6.494C-47.84,11.699-50.753,8.787-54.333,8.787z"/>
	</g>
	<g>
		<path fill="#A9A9A9" d="M-54.333,18.203c-1.609,0-2.922-1.313-2.922-2.922c0-1.611,1.313-2.92,2.922-2.92s2.92,1.309,2.92,2.92
			C-51.413,16.891-52.724,18.203-54.333,18.203z M-54.333,13.568c-0.945,0-1.715,0.768-1.715,1.713c0,0.943,0.77,1.713,1.715,1.713
			s1.714-0.77,1.714-1.713C-52.619,14.336-53.388,13.568-54.333,13.568z"/>
	</g>
</g>
<line fill="none" stroke="#191919" stroke-width="2" stroke-linecap="round" stroke-linejoin="round" stroke-miterlimit="10" x1="-8.946" y1="95.109" x2="5.851" y2="77.881"/>
<line fill="none" stroke="#191919" stroke-width="2" stroke-linecap="round" stroke-linejoin="round" stroke-miterlimit="10" x1="6.008" y1="77.658" x2="-8.992" y2="60.109"/>
<line fill="none" stroke="#191919" stroke-width="2" stroke-linecap="round" stroke-linejoin="round" stroke-miterlimit="10" x1="-22.724" y1="95.1" x2="-37.522" y2="77.871"/>
<line fill="none" stroke="#191919" stroke-width="2" stroke-linecap="round" stroke-linejoin="round" stroke-miterlimit="10" x1="-37.679" y1="77.648" x2="-22.679" y2="60.1"/>
<g>
	
		<line fill="none" stroke="#191919" stroke-width="2" stroke-linecap="round" stroke-linejoin="round" stroke-miterlimit="10" x1="-59.999" y1="94.6" x2="-74.797" y2="77.371"/>
	
		<line fill="none" stroke="#191919" stroke-width="2" stroke-linecap="round" stroke-linejoin="round" stroke-miterlimit="10" x1="-74.954" y1="77.148" x2="-59.954" y2="59.6"/>
	
		<line fill="none" stroke="#191919" stroke-width="2" stroke-linecap="round" stroke-linejoin="round" stroke-miterlimit="10" x1="-83.524" y1="66.1" x2="-83.524" y2="88.301"/>
</g>
<g>
	
		<line fill="none" stroke="#191919" stroke-width="2" stroke-linecap="round" stroke-linejoin="round" stroke-miterlimit="10" x1="32.54" y1="95.302" x2="47.286" y2="78.075"/>
	
		<line fill="none" stroke="#191919" stroke-width="2" stroke-linecap="round" stroke-linejoin="round" stroke-miterlimit="10" x1="47.442" y1="77.853" x2="32.494" y2="60.302"/>
	
		<line fill="none" stroke="#191919" stroke-width="2" stroke-linecap="round" stroke-linejoin="round" stroke-miterlimit="10" x1="56.063" y1="66.601" x2="56.063" y2="88.802"/>
</g>
</svg>
