<?xml version="1.0" encoding="utf-8"?>
<!-- Generator: Adobe Illustrator 16.0.0, SVG Export Plug-In . SVG Version: 6.00 Build 0)  -->
<!DOCTYPE svg PUBLIC "-//W3C//DTD SVG 1.1//EN" "http://www.w3.org/Graphics/SVG/1.1/DTD/svg11.dtd">
<svg version="1.1" id="Layer_1" xmlns="http://www.w3.org/2000/svg" xmlns:xlink="http://www.w3.org/1999/xlink" x="0px" y="0px"
	 width="82.854px" height="73px" viewBox="0 0 82.854 73" enable-background="new 0 0 82.854 73" xml:space="preserve">
<path fill="#006CFF" stroke="#006CFF" stroke-width="3" stroke-linecap="round" stroke-linejoin="round" stroke-miterlimit="10" d="
	M80.386,35.369L44.974,2.874l-0.018-0.02c-1.854-1.67-4.632-1.659-6.466,0.026L2.89,35.872c-1.377,1.278-1.46,3.43-0.18,4.808
	c0.669,0.725,1.502,1.439,2.494,1.439c5.865,0,4.211,0,7.374,0h1.132v28.092c0,0.773,0.623,1.398,1.396,1.398h17.049
	c0.739,0,1.339-0.601,1.339-1.34V55.092c0-0.934,0.758-1.688,1.688-1.688h12.921c0.937,0,1.689,0.755,1.689,1.688v15.18
	c0,0.738,0.6,1.338,1.34,1.338h17.049c0.771,0,1.398-0.625,1.398-1.397V42.12h6.205c2.008,0,3.534-0.56,4.807-1.943
	C81.863,38.793,81.771,36.64,80.386,35.369z"/>
<path fill="none" stroke="#A9A9A9" stroke-width="3" stroke-linecap="round" stroke-linejoin="round" stroke-miterlimit="10" d="
	M178.023,35.758L142.609,3.265l-0.018-0.02c-1.854-1.669-4.631-1.659-6.466,0.025l-35.601,32.991
	c-1.377,1.278-1.46,3.431-0.18,4.808c0.669,0.724,1.503,1.439,2.495,1.439c5.865,0,4.211,0,7.373,0h1.132V70.6
	c0,0.773,0.624,1.396,1.397,1.396h17.049c0.737,0,1.338-0.598,1.338-1.338V55.482c0-0.935,0.757-1.689,1.688-1.689h12.922
	c0.935,0,1.689,0.756,1.689,1.689V70.66c0,0.74,0.598,1.338,1.339,1.338h17.05c0.771,0,1.396-0.623,1.396-1.396V42.509h6.205
	c2.01,0,3.537-0.561,4.809-1.942C179.5,39.182,179.406,37.029,178.023,35.758z"/>
<path fill="#006CFF" d="M471.802,29.18c-0.266-0.81-0.688-1.54-1.231-2.162c-0.896-1.106-2.148-1.9-3.58-2.193l-17.306-3.559
	l-8.654-15.224c-0.162-0.283-0.352-0.548-0.553-0.799c-1.16-1.574-3.017-2.532-5.001-2.532c-2.231,0-4.306,1.206-5.409,3.146
	l-8.752,15.399l-17.352,3.568c-2.187,0.447-3.972,2.045-4.664,4.168c-0.626,1.933-0.256,4.038,0.942,5.644
	c0.16,0.229,0.334,0.451,0.524,0.661l11.791,12.921l-1.966,17.58c-0.188,1.697,0.337,3.379,1.401,4.66
	c0.357,0.469,0.78,0.896,1.271,1.249c1.071,0.777,2.335,1.189,3.661,1.189c0.892,0,1.753-0.186,2.564-0.553l16.133-7.314
	l16.136,7.316c2.026,0.914,4.438,0.66,6.227-0.64c1.801-1.31,2.771-3.504,2.521-5.724l-1.97-17.603l11.938-13.084
	C471.986,33.65,472.49,31.308,471.802,29.18"/>
<path fill="#A9A9A9" d="M503.678,71.867c-1.325,0-2.59-0.412-3.66-1.189c-1.805-1.307-2.772-3.502-2.524-5.721l1.969-17.604
	l-11.939-13.086c-1.506-1.646-2.012-3.99-1.321-6.116c0.692-2.123,2.479-3.721,4.664-4.169l17.352-3.568l8.752-15.399
	c1.104-1.94,3.178-3.147,5.41-3.147c2.229,0,4.303,1.207,5.406,3.145l8.756,15.401l17.349,3.568
	c2.185,0.448,3.971,2.046,4.663,4.168c0.688,2.128,0.185,4.471-1.324,6.118l-11.938,13.085l1.969,17.601
	c0.248,2.222-0.719,4.416-2.521,5.726c-1.79,1.299-4.198,1.553-6.225,0.639L522.377,64l-16.133,7.314
	C505.432,71.682,504.57,71.867,503.678,71.867 M522.377,4.828c-1.172,0-2.258,0.632-2.838,1.649l-9.082,15.981
	c-0.211,0.371-0.572,0.632-0.988,0.72l-18.01,3.703c-1.146,0.235-2.082,1.073-2.444,2.185c-0.359,1.115-0.097,2.342,0.692,3.203
	l12.394,13.583c0.286,0.315,0.424,0.739,0.377,1.164l-2.043,18.271c-0.132,1.162,0.378,2.313,1.321,2.998
	c0.941,0.682,2.211,0.813,3.266,0.334l16.743-7.592c0.389-0.176,0.834-0.176,1.223,0l16.745,7.592
	c1.062,0.477,2.324,0.348,3.265-0.334c0.943-0.686,1.45-1.836,1.321-3l-2.045-18.27c-0.047-0.425,0.089-0.849,0.376-1.164
	l12.393-13.581c0.789-0.863,1.056-2.09,0.693-3.206c-0.361-1.111-1.3-1.949-2.441-2.184l-18.01-3.703
	c-0.416-0.088-0.777-0.349-0.988-0.72L525.21,6.476C524.631,5.46,523.545,4.828,522.377,4.828"/>
<g>
	<path fill="#006CFF" d="M224.041,32.446c-11.455,0-20.775,9.32-20.775,20.777c0,11.454,9.32,20.776,20.775,20.776
		c11.458,0,20.777-9.322,20.777-20.776C244.819,41.766,235.499,32.446,224.041,32.446z M224.041,70.628
		c-9.598,0-17.406-7.81-17.406-17.405c0-9.598,7.81-17.408,17.406-17.408c9.599,0,17.407,7.809,17.407,17.408
		C241.448,62.82,233.64,70.628,224.041,70.628z"/>
	<path fill="#006CFF" d="M224.041,46.021c-3.971,0-7.2,3.229-7.2,7.201c0,3.971,3.229,7.2,7.2,7.2c3.973,0,7.203-3.229,7.203-7.2
		C231.244,49.251,228.014,46.021,224.041,46.021z M224.041,57.055c-2.111,0-3.831-1.72-3.831-3.832c0-2.111,1.72-3.832,3.831-3.832
		c2.113,0,3.834,1.721,3.834,3.832C227.875,55.335,226.155,57.055,224.041,57.055z"/>
	<path fill="#006CFF" d="M286.963,59.6c-0.185-0.908-1.079-1.49-1.987-1.306l-6.534,1.363c-0.066,0.014-0.127-0.025-0.146-0.087
		l-4.534-12.856c-1.379-3.909-5.09-6.542-9.239-6.542h-2.082l0.041-18.784c0.006-1.499-0.563-2.91-1.604-3.99
		c-1.101-1.146-2.65-1.75-4.235-1.75h-30.914v-5.396c0-5.097-4.147-9.253-9.246-9.253h-5.979c-0.921,0-1.729,0.716-1.756,1.644
		c-0.021,0.955,0.741,1.73,1.689,1.73h6.044c3.242,0,5.88,2.638,5.88,5.879v20.01c0.551-0.04,1.12-0.066,1.686-0.066
		c9.371,0,17.451,5.634,21.044,13.688h13.979l-0.007,3.726l-0.007,8.94c0.551-0.1,1.114-0.146,1.69-0.146
		c0.575,0,1.141,0.047,1.684,0.146l0.007-8.94v-4.063h2.088c2.725,0,5.156,1.724,6.063,4.295l4.528,12.853
		c0.496,1.418,1.85,2.34,3.308,2.34c0.231,0,0.471-0.025,0.709-0.08l6.528-1.359C286.573,61.402,287.156,60.514,286.963,59.6z
		 M259.1,25.683h-33.374v-6.661h31.048c0.623,0,1.212,0.245,1.656,0.689c0.438,0.444,0.684,1.034,0.676,1.664L259.1,25.683z"/>
	<path fill="#006CFF" d="M260.743,58.725c-4.212,0-7.639,3.426-7.639,7.637S256.531,74,260.743,74c4.211,0,7.638-3.428,7.638-7.639
		S264.954,58.725,260.743,58.725z M260.743,70.716c-2.401,0-4.354-1.955-4.354-4.354c0-2.4,1.953-4.354,4.354-4.354
		c2.4,0,4.354,1.953,4.354,4.354C265.097,68.762,263.145,70.716,260.743,70.716z"/>
	<circle fill="#006CFF" cx="260.743" cy="66.361" r="1.434"/>
</g>
<g>
	<path fill="#A9A9A9" d="M316.042,32.447c-11.455,0-20.775,9.321-20.775,20.776c0,11.457,9.32,20.776,20.775,20.776
		c11.458,0,20.778-9.319,20.778-20.776C336.821,41.768,327.5,32.447,316.042,32.447z M316.042,70.629
		c-9.597,0-17.406-7.809-17.406-17.406c0-9.599,7.811-17.407,17.406-17.407c9.599,0,17.407,7.809,17.407,17.407
		C333.449,62.822,325.641,70.629,316.042,70.629z"/>
	<path fill="#A9A9A9" d="M316.042,46.021c-3.97,0-7.2,3.23-7.2,7.201c0,3.973,3.23,7.201,7.2,7.201c3.973,0,7.203-3.229,7.203-7.201
		C323.245,49.252,320.015,46.021,316.042,46.021z M316.042,57.055c-2.111,0-3.831-1.72-3.831-3.832c0-2.111,1.72-3.83,3.831-3.83
		c2.114,0,3.834,1.719,3.834,3.83C319.876,55.335,318.156,57.055,316.042,57.055z"/>
	<path fill="#A9A9A9" d="M378.964,59.6c-0.184-0.908-1.079-1.49-1.987-1.306l-6.533,1.365c-0.067,0.014-0.127-0.027-0.146-0.086
		l-4.534-12.858c-1.379-3.91-5.09-6.542-9.238-6.542h-2.082l0.041-18.785c0.006-1.499-0.564-2.91-1.605-3.99
		c-1.1-1.146-2.65-1.75-4.235-1.75h-30.914v-5.396c0-5.097-4.147-9.253-9.245-9.253h-5.979c-0.921,0-1.729,0.716-1.756,1.644
		c-0.021,0.955,0.742,1.73,1.689,1.73h6.045c3.241,0,5.88,2.638,5.88,5.879v20.01c0.55-0.04,1.12-0.066,1.685-0.066
		c9.371,0,17.451,5.634,21.044,13.687h13.979l-0.008,3.727l-0.007,8.939c0.552-0.099,1.114-0.146,1.69-0.146
		s1.141,0.048,1.684,0.146l0.007-8.939v-4.063h2.089c2.724,0,5.155,1.724,6.063,4.295l4.528,12.853
		c0.497,1.418,1.85,2.34,3.308,2.34c0.232,0,0.471-0.025,0.709-0.078l6.528-1.359C378.574,61.404,379.157,60.516,378.964,59.6z
		 M351.101,25.683h-33.374v-6.661h31.049c0.623,0,1.212,0.246,1.655,0.689c0.438,0.444,0.684,1.034,0.677,1.664L351.101,25.683z"/>
	<path fill="#A9A9A9" d="M352.744,58.725c-4.212,0-7.638,3.426-7.638,7.637c0,4.213,3.426,7.639,7.638,7.639
		c4.211,0,7.638-3.426,7.638-7.639C360.382,62.15,356.955,58.725,352.744,58.725z M352.744,70.716c-2.401,0-4.354-1.952-4.354-4.354
		c0-2.399,1.953-4.354,4.354-4.354c2.4,0,4.354,1.954,4.354,4.354C357.099,68.764,355.147,70.716,352.744,70.716z"/>
	<circle fill="#A9A9A9" cx="352.744" cy="66.362" r="1.434"/>
</g>
<path fill="#7FB5FF" d="M74.734,126.053c-0.243-0.746-0.637-1.423-1.139-1.996c-0.828-1.031-1.992-1.772-3.324-2.048l-16.018-3.293
	l-8.01-14.085c-0.152-0.266-0.326-0.51-0.517-0.744c-1.076-1.462-2.795-2.354-4.635-2.354c-2.068,0-3.986,1.119-5.008,2.916
	l-8.104,14.256l-16.065,3.304c-2.025,0.417-3.679,1.896-4.32,3.862c-0.58,1.793-0.232,3.746,0.885,5.236
	c0.146,0.213,0.31,0.418,0.484,0.609l10.91,11.955l-1.822,16.278c-0.174,1.575,0.316,3.135,1.307,4.323
	c0.332,0.433,0.724,0.826,1.179,1.156c0.991,0.721,2.162,1.103,3.387,1.103c0.828,0,1.625-0.173,2.377-0.515l14.938-6.771
	l14.938,6.772c1.875,0.849,4.107,0.613,5.764-0.59c1.668-1.213,2.566-3.244,2.336-5.3l-1.821-16.298l11.053-12.114
	C74.904,130.195,75.373,128.025,74.734,126.053"/>
<path fill="#A9A9A9" d="M99.487,167c-1.231,0-2.405-0.381-3.4-1.104c-1.674-1.215-2.572-3.252-2.343-5.313l1.827-16.347
	l-11.089-12.151c-1.396-1.528-1.863-3.705-1.227-5.681c0.643-1.971,2.303-3.454,4.332-3.87l16.112-3.313l8.127-14.299
	c1.023-1.803,2.948-2.924,5.021-2.924c2.071,0,3.995,1.121,5.021,2.92l8.13,14.303l16.11,3.313c2.026,0.416,3.687,1.899,4.331,3.87
	c0.639,1.976,0.17,4.15-1.23,5.681l-11.085,12.151l1.828,16.345c0.229,2.062-0.667,4.099-2.343,5.313
	c-1.661,1.207-3.897,1.441-5.778,0.594l-14.983-6.793l-14.979,6.791C101.115,166.828,100.314,167,99.487,167 M116.849,104.75
	c-1.087,0-2.097,0.588-2.634,1.533l-8.435,14.838c-0.196,0.346-0.531,0.588-0.917,0.67l-16.724,3.438
	c-1.064,0.22-1.935,0.996-2.271,2.029c-0.333,1.035-0.091,2.174,0.644,2.975l11.508,12.613c0.267,0.293,0.395,0.687,0.351,1.078
	l-1.896,16.967c-0.123,1.078,0.352,2.146,1.229,2.783c0.873,0.635,2.052,0.756,3.028,0.311l15.551-7.049
	c0.358-0.162,0.772-0.162,1.134,0l15.548,7.049c0.986,0.442,2.159,0.324,3.031-0.311c0.877-0.637,1.348-1.705,1.228-2.785
	l-1.896-16.965c-0.043-0.393,0.082-0.785,0.348-1.078l11.507-12.613c0.733-0.801,0.981-1.938,0.646-2.977
	c-0.337-1.031-1.206-1.809-2.269-2.027l-16.723-3.438c-0.386-0.082-0.724-0.324-0.918-0.67l-8.437-14.84
	C118.943,105.337,117.934,104.75,116.849,104.75"/>
<g>
	
		<polygon fill="none" stroke="#A9A9A9" stroke-width="2.5" stroke-linecap="round" stroke-linejoin="round" stroke-miterlimit="10" points="
		236.899,164.889 236.26,170.366 240.686,167.077 254.517,143.12 250.728,140.932 	"/>
	<path fill="none" stroke="#A9A9A9" stroke-width="2.5" stroke-linecap="round" stroke-linejoin="round" stroke-miterlimit="10" d="
		M238.71,132.82l28.843,16.652c2.997-5.193,2.879-11.328,0.227-16.244l9.227-15.979c3.344-0.77,6.373-2.869,8.223-6.076
		l-22.188-12.809c-1.852,3.205-2.153,6.879-1.148,10.16l-9.226,15.977C247.081,124.665,241.708,127.629,238.71,132.82z"/>
</g>
<g>
	<polygon fill="#58595B" points="179.442,164.889 178.803,170.367 183.229,167.076 197.06,143.119 193.271,140.932 	"/>
	
		<polygon fill="none" stroke="#58595B" stroke-width="2" stroke-linecap="round" stroke-linejoin="round" stroke-miterlimit="10" points="
		179.442,164.889 178.803,170.367 183.229,167.076 197.06,143.119 193.271,140.932 	"/>
	<path fill="#FF9CC2" d="M181.253,132.82l28.843,16.652c2.997-5.193,2.878-11.328,0.229-16.244l9.225-15.979
		c3.344-0.771,6.372-2.869,8.224-6.074l-22.188-12.811c-1.853,3.204-2.154,6.879-1.15,10.159l-9.225,15.978
		C189.624,124.664,184.251,127.628,181.253,132.82"/>
	<path fill="none" stroke="#FF9CC2" stroke-width="3" stroke-linecap="round" stroke-linejoin="round" stroke-miterlimit="10" d="
		M181.253,132.82l28.843,16.652c2.997-5.193,2.878-11.328,0.229-16.244l9.225-15.979c3.344-0.771,6.372-2.869,8.224-6.074
		l-22.188-12.811c-1.853,3.204-2.154,6.879-1.15,10.159l-9.225,15.978C189.624,124.664,184.251,127.628,181.253,132.82z"/>
</g>
<g>
	<path fill="none" stroke="#A9A9A9" stroke-width="2.8" stroke-linecap="round" stroke-linejoin="round" stroke-miterlimit="10" d="
		M345.096,149.959c1.781-3.113,5.156-5.215,9.021-5.215c5.74,0,10.41,4.652,10.41,10.41c0,5.738-4.67,10.406-10.41,10.406
		c-5.756,0-10.407-4.668-10.407-10.406C343.708,153.26,344.215,151.495,345.096,149.959z"/>
	<path fill="none" stroke="#A9A9A9" stroke-width="2.8" stroke-linecap="round" stroke-linejoin="round" stroke-miterlimit="10" d="
		M345.115,116.161c-0.9-1.517-1.407-3.3-1.407-5.193c0-5.758,4.651-10.407,10.407-10.407c5.74,0,10.41,4.649,10.41,10.407
		c0,5.74-4.67,10.41-10.41,10.41C350.252,121.377,346.895,119.273,345.115,116.161z"/>
	<path fill="none" stroke="#A9A9A9" stroke-width="2.8" stroke-linecap="round" stroke-linejoin="round" stroke-miterlimit="10" d="
		M324.783,127.864c-1.781-3.113-5.16-5.212-9.021-5.212c-5.739,0-10.408,4.652-10.408,10.41c0,5.734,4.669,10.406,10.408,10.406
		c3.861,0,7.224-2.1,9.004-5.213c0.898-1.52,1.407-3.301,1.407-5.193C326.173,131.165,325.664,129.402,324.783,127.864z"/>
	
		<line fill="none" stroke="#A9A9A9" stroke-width="2.8" stroke-linecap="round" stroke-linejoin="round" stroke-miterlimit="10" x1="324.783" y1="127.864" x2="345.115" y2="116.161"/>
	
		<line fill="none" stroke="#A9A9A9" stroke-width="2.8" stroke-linecap="round" stroke-linejoin="round" stroke-miterlimit="10" x1="324.766" y1="138.256" x2="345.096" y2="149.959"/>
</g>
<g>
	<g>
		<g>
			<defs>
				<rect id="SVGID_1_" x="419.5" y="153" width="50.999" height="9"/>
			</defs>
			<clipPath id="SVGID_2_">
				<use xlink:href="#SVGID_1_"  overflow="visible"/>
			</clipPath>
			
				<linearGradient id="SVGID_3_" gradientUnits="userSpaceOnUse" x1="-306.4109" y1="-291.9922" x2="-305.4109" y2="-291.9922" gradientTransform="matrix(0 -167.3333 167.3333 0 49305.0547 -51065.8789)">
				<stop  offset="0" style="stop-color:#FFFFFF"/>
				<stop  offset="0.3842" style="stop-color:#FFF427"/>
				<stop  offset="0.4821" style="stop-color:#FDD925"/>
				<stop  offset="0.6305" style="stop-color:#FAB622"/>
				<stop  offset="0.7706" style="stop-color:#F99D20"/>
				<stop  offset="0.8977" style="stop-color:#F78D1E"/>
				<stop  offset="1" style="stop-color:#F7881E"/>
			</linearGradient>
			<rect x="419.5" y="153" clip-path="url(#SVGID_2_)" fill="url(#SVGID_3_)" width="50.999" height="9"/>
		</g>
	</g>
	<g>
		<g>
			<defs>
				<path id="SVGID_4_" d="M439,108c0,2.157,1.145,4.047,2.855,5.102l-10.727,17.418l-19.595-8.203
					c0.299-0.713,0.465-1.494,0.465-2.315c0-3.313-2.687-6-6-6c-3.314,0-6,2.687-6,6s2.686,6,6,6c0.965,0,1.873-0.233,2.68-0.64
					l10.817,21.633L419.479,147h0.021h50.98h0.019l-0.015-0.007l10.817-21.64c0.813,0.41,1.728,0.646,2.696,0.646
					c3.315,0,6.001-2.688,6.001-6c0-3.313-2.686-6-6.001-6c-3.313,0-6,2.687-6,6c0,0.817,0.167,1.599,0.464,2.31l-19.615,8.211
					l-10.709-17.414C449.852,112.048,451,110.16,451,108c0-3.316-2.688-6-6-6S439,104.684,439,108"/>
			</defs>
			<clipPath id="SVGID_5_">
				<use xlink:href="#SVGID_4_"  overflow="visible"/>
			</clipPath>
			
				<linearGradient id="SVGID_6_" gradientUnits="userSpaceOnUse" x1="-306.4119" y1="-291.9922" x2="-305.41" y2="-291.9922" gradientTransform="matrix(0 -167.3333 167.3333 0 49305.0547 -51065.8789)">
				<stop  offset="0" style="stop-color:#FFFFFF"/>
				<stop  offset="0.3842" style="stop-color:#FFF427"/>
				<stop  offset="0.4821" style="stop-color:#FDD925"/>
				<stop  offset="0.6305" style="stop-color:#FAB622"/>
				<stop  offset="0.7706" style="stop-color:#F99D20"/>
				<stop  offset="0.8977" style="stop-color:#F78D1E"/>
				<stop  offset="1" style="stop-color:#F7881E"/>
			</linearGradient>
			<rect x="400" y="102" clip-path="url(#SVGID_5_)" fill="url(#SVGID_6_)" width="90" height="45"/>
		</g>
	</g>
</g>
<path fill="#A9A9A9" d="M89.969,203.593c-0.015-0.092-0.037-0.18-0.063-0.271c-0.024-0.088-0.055-0.176-0.088-0.264
	c-0.032-0.084-0.068-0.168-0.113-0.254c-0.04-0.08-0.084-0.16-0.131-0.24c-0.049-0.076-0.104-0.158-0.161-0.23
	c-0.053-0.074-0.114-0.146-0.177-0.215c0.074-0.086,0.137-0.178,0.202-0.27c0.063-0.089,0.117-0.183,0.173-0.281
	c0.052-0.096,0.099-0.197,0.143-0.297c0.041-0.103,0.081-0.205,0.113-0.312s0.059-0.213,0.082-0.317
	c0.021-0.111,0.038-0.222,0.051-0.33c0.015-0.109,0.021-0.222,0.021-0.334c0-0.109-0.003-0.224-0.014-0.336
	c-0.02-0.213-0.058-0.422-0.125-0.623c-0.06-0.201-0.14-0.396-0.238-0.582c-0.095-0.185-0.213-0.355-0.341-0.521
	c-0.131-0.162-0.274-0.315-0.432-0.451c-0.162-0.139-0.333-0.264-0.514-0.373c-0.184-0.11-0.377-0.2-0.579-0.278
	c-0.2-0.076-0.41-0.135-0.626-0.176c-0.216-0.039-0.438-0.063-0.67-0.063h-0.967h-0.97h-0.97h-0.972h-0.971h-0.967h-0.975h-0.967
	c0.047-0.15,0.1-0.318,0.154-0.494c0.051-0.177,0.104-0.365,0.161-0.562c0.055-0.197,0.108-0.401,0.161-0.615
	c0.051-0.211,0.102-0.432,0.153-0.649c0.047-0.226,0.096-0.446,0.131-0.674c0.044-0.229,0.081-0.459,0.11-0.687
	c0.029-0.227,0.055-0.451,0.073-0.674c0.015-0.223,0.021-0.443,0.021-0.656c0-0.219-0.011-0.436-0.037-0.641
	c-0.028-0.205-0.063-0.406-0.108-0.596c-0.044-0.191-0.1-0.375-0.161-0.551c-0.063-0.176-0.129-0.344-0.198-0.502
	c-0.074-0.156-0.149-0.308-0.228-0.445c-0.077-0.141-0.157-0.271-0.234-0.393c-0.081-0.121-0.158-0.23-0.235-0.334
	c-0.071-0.099-0.143-0.189-0.212-0.267c-0.1-0.125-0.206-0.242-0.309-0.353c-0.109-0.11-0.22-0.213-0.329-0.313
	c-0.109-0.098-0.224-0.186-0.333-0.271c-0.114-0.084-0.228-0.159-0.34-0.229c-0.11-0.063-0.224-0.127-0.338-0.18
	c-0.113-0.056-0.224-0.099-0.333-0.136c-0.11-0.037-0.216-0.063-0.323-0.08c-0.105-0.02-0.208-0.028-0.307-0.028
	c-0.172,0-0.333,0.01-0.487,0.032c-0.157,0.019-0.304,0.048-0.447,0.084c-0.139,0.031-0.274,0.072-0.398,0.121
	c-0.128,0.043-0.242,0.093-0.349,0.14c-0.105,0.047-0.205,0.101-0.293,0.146c-0.084,0.047-0.161,0.092-0.223,0.131
	c-0.065,0.041-0.117,0.078-0.157,0.107c-0.044,0.025-0.069,0.047-0.085,0.059c-0.021,0.019-0.047,0.039-0.065,0.06
	c-0.022,0.021-0.04,0.043-0.063,0.067c-0.018,0.023-0.037,0.05-0.051,0.074c-0.015,0.021-0.029,0.047-0.044,0.076
	c-0.01,0.025-0.021,0.055-0.033,0.082c-0.007,0.029-0.018,0.059-0.025,0.088c-0.004,0.029-0.011,0.06-0.011,0.088
	c-0.003,0.029-0.003,0.06-0.003,0.09v0.543v0.541v0.547v0.541v0.544v0.54v0.544v0.545l-0.451,0.967l-0.446,0.972l-0.446,0.971
	l-0.451,0.971l-0.447,0.967l-0.445,0.971l-0.447,0.967l-0.447,0.972c-0.01-0.045-0.021-0.088-0.04-0.133
	c-0.019-0.041-0.041-0.08-0.062-0.121c-0.023-0.037-0.053-0.072-0.081-0.104c-0.029-0.033-0.06-0.066-0.096-0.097
	c-0.032-0.024-0.072-0.051-0.109-0.071c-0.041-0.023-0.081-0.046-0.121-0.06c-0.044-0.017-0.088-0.025-0.136-0.037
	c-0.044-0.008-0.093-0.013-0.141-0.013h-0.809h-0.805h-0.807h-0.81h-0.806h-0.807h-0.809H62.11c-0.23,0-0.457,0.025-0.681,0.07
	c-0.216,0.043-0.428,0.109-0.634,0.197c-0.201,0.084-0.393,0.191-0.575,0.311c-0.179,0.121-0.344,0.263-0.498,0.414
	c-0.154,0.154-0.293,0.318-0.413,0.498c-0.125,0.185-0.228,0.375-0.312,0.576c-0.088,0.201-0.154,0.416-0.202,0.637
	c-0.044,0.22-0.066,0.447-0.066,0.683v1.289v1.289v1.293v1.289v1.291v1.293v1.289v1.288c0,0.234,0.021,0.464,0.066,0.683
	c0.048,0.222,0.113,0.433,0.202,0.638c0.084,0.198,0.187,0.393,0.312,0.575c0.12,0.181,0.259,0.345,0.413,0.498
	c0.154,0.152,0.319,0.293,0.498,0.414c0.184,0.119,0.374,0.228,0.575,0.312c0.206,0.088,0.418,0.153,0.634,0.201
	c0.224,0.045,0.45,0.065,0.681,0.065h0.484h0.487h0.482h0.484h0.484h0.482h0.487h0.483c0.168,0,0.338-0.017,0.501-0.037
	c0.17-0.024,0.329-0.065,0.483-0.112c0.161-0.048,0.315-0.105,0.462-0.177c0.15-0.069,0.289-0.149,0.425-0.246
	c0.141-0.088,0.269-0.188,0.39-0.299c0.12-0.11,0.236-0.229,0.344-0.353c0.102-0.129,0.197-0.264,0.286-0.403
	c0.087-0.144,0.164-0.293,0.229-0.449c0.136,0.063,0.274,0.127,0.417,0.183c0.144,0.057,0.29,0.11,0.437,0.157
	c0.146,0.052,0.3,0.097,0.447,0.138c0.153,0.039,0.3,0.076,0.445,0.108c0.15,0.033,0.297,0.063,0.44,0.088
	c0.139,0.021,0.277,0.048,0.414,0.063c0.136,0.014,0.264,0.029,0.389,0.035c0.121,0.008,0.238,0.012,0.344,0.012h1.483H75.4h1.479
	h1.483h1.483h1.479h1.479h1.48c0.189,0,0.369-0.016,0.545-0.045c0.181-0.029,0.352-0.072,0.517-0.131
	c0.168-0.06,0.329-0.129,0.483-0.209c0.153-0.084,0.301-0.18,0.437-0.285c0.135-0.104,0.263-0.221,0.38-0.348
	c0.118-0.125,0.225-0.261,0.319-0.406c0.091-0.141,0.172-0.293,0.238-0.451c0.068-0.162,0.125-0.326,0.159-0.498
	c0.02-0.08,0.033-0.164,0.045-0.246c0.011-0.08,0.018-0.164,0.025-0.244c0.003-0.084,0.007-0.166,0.003-0.246
	c0-0.076-0.003-0.16-0.011-0.242c-0.007-0.076-0.018-0.156-0.033-0.233c-0.014-0.08-0.033-0.156-0.051-0.238
	c-0.022-0.075-0.044-0.151-0.07-0.229c-0.028-0.076-0.058-0.152-0.087-0.228c0.117-0.065,0.231-0.144,0.34-0.223
	c0.106-0.082,0.209-0.171,0.305-0.265c0.095-0.092,0.184-0.19,0.264-0.297c0.08-0.104,0.154-0.213,0.223-0.33
	c0.066-0.113,0.125-0.229,0.176-0.352c0.052-0.125,0.096-0.248,0.129-0.381c0.036-0.129,0.065-0.26,0.081-0.395
	c0.021-0.134,0.028-0.269,0.028-0.41c0-0.054-0.004-0.104-0.004-0.158c-0.003-0.051-0.007-0.105-0.011-0.158
	c-0.008-0.051-0.014-0.105-0.022-0.156c-0.007-0.053-0.019-0.104-0.028-0.154c-0.008-0.051-0.022-0.1-0.037-0.149
	c-0.011-0.052-0.025-0.103-0.041-0.15c-0.019-0.051-0.037-0.098-0.056-0.149c-0.015-0.047-0.036-0.094-0.059-0.142
	c0.121-0.069,0.234-0.145,0.34-0.229c0.11-0.08,0.212-0.168,0.305-0.261c0.096-0.096,0.183-0.194,0.264-0.301
	c0.084-0.102,0.158-0.213,0.224-0.326c0.066-0.112,0.128-0.229,0.175-0.354c0.056-0.123,0.1-0.248,0.133-0.377
	c0.033-0.127,0.063-0.261,0.081-0.396c0.019-0.137,0.024-0.271,0.024-0.41c0-0.096-0.003-0.188-0.01-0.282
	C89.998,203.777,89.986,203.686,89.969,203.593z M87.01,205.615c-0.033,0.008-0.07,0.021-0.103,0.037
	c-0.037,0.014-0.074,0.031-0.104,0.051c-0.033,0.021-0.062,0.043-0.091,0.066c-0.029,0.024-0.06,0.047-0.084,0.076
	c-0.021,0.024-0.048,0.055-0.07,0.088c-0.021,0.028-0.041,0.063-0.059,0.096c-0.019,0.033-0.033,0.068-0.044,0.104
	c-0.011,0.041-0.019,0.074-0.025,0.113c-0.007,0.037-0.01,0.073-0.014,0.112c0,0.037,0,0.074,0.003,0.111
	c0.003,0.039,0.01,0.076,0.021,0.113c0.009,0.033,0.019,0.068,0.037,0.105c0.01,0.033,0.029,0.069,0.047,0.104
	c0.02,0.029,0.04,0.061,0.063,0.09c0.024,0.033,0.052,0.059,0.081,0.086c0.036,0.035,0.073,0.072,0.102,0.109
	c0.033,0.037,0.065,0.08,0.091,0.117c0.029,0.039,0.06,0.084,0.081,0.125c0.025,0.043,0.048,0.088,0.066,0.131
	c0.018,0.045,0.037,0.092,0.051,0.139c0.016,0.045,0.029,0.092,0.037,0.141c0.011,0.047,0.019,0.095,0.025,0.146
	c0.004,0.047,0.004,0.098,0.004,0.146c0,0.094-0.007,0.182-0.021,0.27c-0.02,0.088-0.041,0.172-0.074,0.254
	c-0.032,0.08-0.073,0.16-0.116,0.234c-0.044,0.072-0.096,0.143-0.154,0.209c-0.059,0.061-0.124,0.123-0.19,0.176
	c-0.069,0.055-0.144,0.102-0.22,0.143c-0.081,0.039-0.161,0.072-0.249,0.099c-0.085,0.028-0.176,0.049-0.268,0.059
	c-0.036,0.005-0.077,0.013-0.113,0.023c-0.033,0.006-0.07,0.018-0.103,0.034c-0.037,0.017-0.073,0.029-0.103,0.054
	c-0.033,0.019-0.062,0.041-0.092,0.063c-0.029,0.023-0.06,0.049-0.084,0.074c-0.026,0.029-0.047,0.059-0.07,0.088
	c-0.021,0.031-0.039,0.066-0.059,0.098c-0.019,0.033-0.033,0.07-0.043,0.107c-0.016,0.037-0.022,0.072-0.029,0.109
	c-0.008,0.041-0.008,0.076-0.011,0.117c0,0.033,0,0.074,0.003,0.108c0.004,0.037,0.011,0.074,0.021,0.111
	c0.008,0.034,0.02,0.071,0.033,0.104c0.016,0.037,0.033,0.07,0.051,0.103c0.02,0.032,0.041,0.063,0.063,0.096
	c0.026,0.029,0.052,0.056,0.078,0.084c0.051,0.045,0.095,0.097,0.136,0.142c0.04,0.051,0.077,0.102,0.109,0.156
	c0.037,0.055,0.065,0.106,0.087,0.166c0.028,0.059,0.048,0.112,0.065,0.176c0.02,0.059,0.033,0.117,0.044,0.178
	c0.012,0.063,0.016,0.129,0.019,0.191c0,0.063,0,0.125-0.007,0.188c-0.003,0.065-0.015,0.133-0.029,0.198
	c-0.018,0.08-0.043,0.156-0.077,0.234c-0.033,0.072-0.073,0.146-0.117,0.211c-0.044,0.07-0.095,0.133-0.153,0.191
	c-0.06,0.059-0.122,0.113-0.188,0.164c-0.064,0.053-0.139,0.096-0.217,0.137c-0.073,0.035-0.153,0.068-0.237,0.098
	c-0.08,0.025-0.169,0.049-0.257,0.06c-0.087,0.021-0.175,0.022-0.271,0.022h-1.48h-1.479h-1.479h-1.483h-1.483H75.4h-1.479h-1.483
	c-0.128,0-0.264-0.004-0.41-0.022c-0.143-0.011-0.297-0.035-0.454-0.063c-0.153-0.024-0.315-0.061-0.477-0.098
	s-0.322-0.08-0.479-0.133c-0.158-0.047-0.312-0.098-0.458-0.156c-0.146-0.055-0.285-0.113-0.413-0.176
	c-0.128-0.066-0.249-0.129-0.349-0.201c-0.014-0.01-0.021-0.018-0.033-0.027v-1.063v-1.451v-1.453v-1.452v-1.451v-1.453v-1.455
	v-0.955l0.044-0.021l0.16-0.082l0.162-0.08l0.161-0.08l0.161-0.082l0.162-0.08c0.021-0.01,0.036-0.018,0.058-0.03
	c0.022-0.013,0.037-0.023,0.056-0.037c0.018-0.017,0.037-0.024,0.055-0.041l0.048-0.047c0.016-0.017,0.029-0.033,0.044-0.05
	c0.016-0.018,0.029-0.034,0.041-0.055c0.016-0.018,0.026-0.039,0.037-0.059c0.011-0.018,0.022-0.039,0.029-0.059l0.486-1.052
	l0.484-1.047l0.483-1.051l0.486-1.047l0.483-1.054l0.484-1.047l0.482-1.047l0.484-1.051c0.007-0.016,0.014-0.025,0.018-0.041
	c0.003-0.016,0.011-0.025,0.016-0.039c0.004-0.016,0.008-0.029,0.012-0.041c0.006-0.016,0.006-0.029,0.014-0.045
	c0-0.014,0.003-0.025,0.003-0.039c0.004-0.016,0.008-0.029,0.008-0.045c0-0.014,0.005-0.029,0.005-0.043v-0.045v-0.508v-0.51v-0.51
	v-0.509v-0.51v-0.509v-0.51v-0.51l0.108-0.055c0.037-0.018,0.077-0.033,0.121-0.051c0.04-0.016,0.081-0.033,0.128-0.047
	c0.044-0.017,0.092-0.029,0.141-0.045c0.047-0.015,0.095-0.025,0.146-0.037c0.051-0.01,0.106-0.021,0.158-0.029
	c0.055-0.006,0.105-0.014,0.165-0.018c0.055-0.004,0.112-0.009,0.172-0.009c0.073,0,0.165,0.025,0.273,0.078
	c0.107,0.052,0.229,0.123,0.353,0.216c0.128,0.096,0.264,0.213,0.403,0.344c0.135,0.137,0.271,0.287,0.406,0.455
	c0.133,0.168,0.261,0.354,0.377,0.553c0.121,0.197,0.228,0.406,0.315,0.631c0.091,0.223,0.169,0.453,0.216,0.695
	c0.051,0.242,0.081,0.494,0.081,0.746c0,0.268-0.019,0.551-0.048,0.836c-0.029,0.289-0.074,0.586-0.128,0.883
	c-0.051,0.293-0.113,0.59-0.179,0.879c-0.07,0.289-0.144,0.566-0.213,0.838c-0.076,0.268-0.149,0.52-0.224,0.754
	c-0.069,0.23-0.135,0.439-0.197,0.627c-0.063,0.184-0.113,0.336-0.157,0.457c-0.043,0.117-0.072,0.205-0.087,0.246v0.004H76.86
	v0.004c-0.011,0.029-0.021,0.063-0.025,0.092c-0.011,0.031-0.019,0.064-0.019,0.094c-0.008,0.033-0.008,0.066-0.008,0.101
	c0,0.028,0,0.063,0.008,0.096c0,0.029,0.008,0.063,0.016,0.093c0.007,0.03,0.019,0.061,0.028,0.094
	c0.012,0.029,0.025,0.059,0.036,0.088c0.019,0.029,0.033,0.055,0.056,0.084c0.015,0.027,0.037,0.053,0.059,0.078
	c0.023,0.021,0.044,0.043,0.07,0.066c0.021,0.021,0.048,0.043,0.077,0.061c0.021,0.02,0.051,0.033,0.079,0.049
	c0.029,0.014,0.059,0.029,0.088,0.039c0.028,0.012,0.059,0.02,0.092,0.029c0.033,0.008,0.062,0.012,0.095,0.02
	c0.029,0,0.063,0.004,0.095,0.004h1.114h1.106h1.112h1.11h1.113h1.105h1.113h1.106c0.128,0,0.248,0.01,0.369,0.033
	c0.117,0.021,0.234,0.051,0.342,0.09c0.108,0.041,0.22,0.092,0.318,0.146c0.1,0.059,0.193,0.125,0.278,0.199
	c0.088,0.067,0.168,0.149,0.238,0.237c0.072,0.084,0.135,0.177,0.189,0.271c0.051,0.1,0.095,0.201,0.128,0.309
	c0.033,0.105,0.056,0.215,0.066,0.33c0.008,0.084,0.011,0.168,0.004,0.248c-0.004,0.084-0.011,0.168-0.029,0.246
	c-0.015,0.084-0.033,0.16-0.062,0.238c-0.026,0.076-0.057,0.151-0.091,0.227c-0.037,0.068-0.081,0.139-0.125,0.209
	c-0.049,0.064-0.1,0.131-0.154,0.189c-0.06,0.063-0.117,0.117-0.184,0.172c-0.062,0.055-0.131,0.104-0.204,0.146
	c-0.029,0.022-0.06,0.041-0.089,0.063c-0.028,0.024-0.052,0.049-0.076,0.074c-0.025,0.024-0.043,0.055-0.07,0.084
	c-0.014,0.024-0.036,0.055-0.051,0.088c-0.019,0.028-0.029,0.063-0.044,0.096c-0.015,0.031-0.021,0.064-0.029,0.098
	c-0.007,0.037-0.014,0.07-0.018,0.107c-0.004,0.035-0.004,0.068-0.004,0.105c0,0.036,0.008,0.069,0.016,0.104
	c0.004,0.036,0.011,0.069,0.021,0.104c0.012,0.033,0.021,0.065,0.041,0.098c0.011,0.033,0.029,0.063,0.047,0.092
	c0.02,0.029,0.04,0.059,0.066,0.084c0.021,0.027,0.044,0.053,0.069,0.078c0.025,0.021,0.055,0.043,0.084,0.066
	c0.024,0.018,0.059,0.039,0.091,0.055c0.063,0.033,0.121,0.068,0.176,0.104c0.055,0.041,0.106,0.08,0.157,0.125
	c0.048,0.043,0.095,0.097,0.136,0.144c0.041,0.055,0.081,0.104,0.117,0.162c0.033,0.055,0.062,0.112,0.091,0.172
	c0.026,0.061,0.048,0.123,0.066,0.186s0.033,0.129,0.041,0.195c0.011,0.064,0.015,0.135,0.015,0.201c0,0.092-0.008,0.18-0.026,0.268
	c-0.014,0.088-0.04,0.176-0.072,0.256c-0.033,0.08-0.07,0.16-0.114,0.23c-0.047,0.076-0.099,0.146-0.158,0.209
	c-0.059,0.066-0.121,0.125-0.189,0.18c-0.07,0.051-0.144,0.098-0.221,0.139s-0.161,0.076-0.249,0.101
	c-0.085,0.028-0.176,0.047-0.264,0.059C87.086,205.6,87.05,205.607,87.01,205.615z M65.985,214.65h-0.483h-0.487h-0.482h-0.484
	h-0.484H63.08h-0.487H62.11c-0.121,0-0.24-0.017-0.358-0.037c-0.113-0.025-0.228-0.059-0.333-0.107
	c-0.106-0.043-0.205-0.098-0.3-0.16c-0.096-0.066-0.184-0.139-0.265-0.221c-0.081-0.08-0.153-0.168-0.22-0.264
	c-0.066-0.094-0.121-0.193-0.165-0.299c-0.044-0.111-0.077-0.222-0.103-0.338c-0.025-0.113-0.036-0.234-0.036-0.359v-1.289v-1.289
	v-1.293v-1.291v-1.289v-1.293v-1.289v-1.289c0-0.125,0.011-0.246,0.036-0.359c0.025-0.117,0.059-0.229,0.103-0.338
	c0.044-0.104,0.099-0.205,0.165-0.299c0.066-0.096,0.139-0.184,0.22-0.264c0.081-0.082,0.168-0.154,0.265-0.221
	c0.096-0.063,0.193-0.117,0.3-0.164c0.105-0.045,0.22-0.078,0.333-0.104c0.118-0.024,0.237-0.035,0.358-0.035h0.707h0.711h0.703
	h0.707h0.707h0.707h0.708h0.706v0.062v0.063v0.059v0.063v0.063v0.063v0.059v0.063c0,0.002,0,0.004,0,0.006v1.443v1.455v1.452v1.451
	v1.453v1.453v1.451v1.445c0,0.002,0,0.002,0,0.004c0,0.125-0.011,0.246-0.036,0.359c-0.025,0.117-0.059,0.227-0.103,0.338
	c-0.044,0.104-0.1,0.205-0.165,0.299c-0.063,0.096-0.139,0.184-0.22,0.264c-0.077,0.082-0.168,0.154-0.265,0.221
	c-0.095,0.063-0.193,0.117-0.3,0.16c-0.106,0.049-0.22,0.082-0.333,0.107C66.227,214.634,66.106,214.65,65.985,214.65z"/>
<g>
	<path fill="none" stroke="#A9A9A9" stroke-width="1.5" stroke-linecap="round" stroke-linejoin="round" stroke-miterlimit="10" d="
		M36.516,209.048c0.822-1.438,2.381-2.405,4.163-2.405c2.648,0,4.805,2.146,4.805,4.803c0,2.649-2.155,4.805-4.805,4.805
		c-2.657,0-4.803-2.154-4.803-4.805C35.876,210.572,36.109,209.757,36.516,209.048z"/>
	<path fill="none" stroke="#A9A9A9" stroke-width="1.5" stroke-linecap="round" stroke-linejoin="round" stroke-miterlimit="10" d="
		M36.525,193.451c-0.416-0.701-0.647-1.523-0.647-2.398c0-2.656,2.146-4.803,4.803-4.803c2.648,0,4.805,2.146,4.805,4.803
		c0,2.648-2.155,4.805-4.805,4.805C38.897,195.857,37.347,194.889,36.525,193.451z"/>
	<path fill="none" stroke="#A9A9A9" stroke-width="1.5" stroke-linecap="round" stroke-linejoin="round" stroke-miterlimit="10" d="
		M27.143,198.852c-0.824-1.438-2.382-2.406-4.165-2.406c-2.648,0-4.803,2.146-4.803,4.805c0,2.648,2.153,4.803,4.803,4.803
		c1.783,0,3.333-0.969,4.156-2.404c0.415-0.701,0.649-1.522,0.649-2.397S27.548,199.563,27.143,198.852z"/>
	
		<line fill="none" stroke="#A9A9A9" stroke-width="1.5" stroke-linecap="round" stroke-linejoin="round" stroke-miterlimit="10" x1="27.143" y1="198.852" x2="36.525" y2="193.451"/>
	
		<line fill="none" stroke="#A9A9A9" stroke-width="1.5" stroke-linecap="round" stroke-linejoin="round" stroke-miterlimit="10" x1="27.134" y1="203.648" x2="36.517" y2="209.048"/>
</g>
<path fill="#A9A9A9" d="M240.739,202.337c0,8.324,6.771,15.097,15.094,15.097c3.575,0,6.861-1.259,9.45-3.343l8.936,8.937
	c0.146,0.147,0.341,0.221,0.535,0.221c0.192,0,0.389-0.072,0.537-0.221c0.295-0.299,0.295-0.775,0-1.072l-8.873-8.875
	c2.778-2.738,4.507-6.539,4.507-10.742c0-8.32-6.771-15.09-15.092-15.09C247.511,187.248,240.739,194.018,240.739,202.337
	 M242.259,202.337c0-7.483,6.089-13.571,13.573-13.571s13.575,6.088,13.575,13.571c0,7.488-6.091,13.578-13.575,13.578
	C248.348,215.916,242.259,209.826,242.259,202.337"/>
<g>
	
		<line fill="none" stroke="#A9A9A9" stroke-width="3" stroke-linecap="round" stroke-linejoin="round" stroke-miterlimit="10" x1="173.628" y1="186.316" x2="196.628" y2="214.316"/>
	
		<line fill="none" stroke="#A9A9A9" stroke-width="3" stroke-linecap="round" stroke-linejoin="round" stroke-miterlimit="10" x1="196.925" y1="214.614" x2="220.355" y2="186.23"/>
</g>
<g>
	
		<line fill="none" stroke="#191919" stroke-width="3" stroke-linecap="round" stroke-linejoin="round" stroke-miterlimit="10" x1="55.289" y1="231.083" x2="15.141" y2="259.083"/>
	
		<line fill="none" stroke="#191919" stroke-width="3" stroke-linecap="round" stroke-linejoin="round" stroke-miterlimit="10" x1="15.141" y1="259.083" x2="55.412" y2="287.794"/>
</g>
<g>
	
		<line fill="none" stroke="#A9A9A9" stroke-width="2" stroke-linecap="round" stroke-linejoin="round" stroke-miterlimit="10" x1="148.036" y1="209.88" x2="160.02" y2="200.037"/>
	
		<line fill="none" stroke="#A9A9A9" stroke-width="2" stroke-linecap="round" stroke-linejoin="round" stroke-miterlimit="10" x1="160.146" y1="199.91" x2="148" y2="189.88"/>
</g>
<circle fill="none" stroke="#A9A9A9" stroke-width="1.5" stroke-linecap="round" stroke-miterlimit="10" cx="317.303" cy="188.689" r="3.5"/>
<circle fill="none" stroke="#A9A9A9" stroke-width="1.5" stroke-linecap="round" stroke-miterlimit="10" cx="317.303" cy="205.604" r="3.5"/>
<circle fill="none" stroke="#A9A9A9" stroke-width="1.5" stroke-linecap="round" stroke-miterlimit="10" cx="317.303" cy="222.518" r="3.5"/>
<g>
	<g>
		<path fill="#A9A9A9" d="M117.667,210.033c-3.615,0-7.367-1.307-11.152-3.889c-3.027-2.063-5.221-4.388-6.023-5.293
			c-0.433-0.484-0.433-1.22,0-1.703c0.804-0.904,2.996-3.229,6.023-5.291c3.785-2.582,7.537-3.892,11.152-3.892
			c3.612,0,7.366,1.31,11.15,3.892c3.025,2.063,5.223,4.387,6.024,5.291l0,0c0.432,0.483,0.432,1.219,0,1.703
			c-0.803,0.905-2.998,3.229-6.024,5.293C125.033,208.727,121.28,210.033,117.667,210.033z M117.667,191.173
			c-7.861,0-14.444,6.718-16.275,8.775c-0.024,0.03-0.024,0.071,0,0.102c1.831,2.06,8.414,8.775,16.275,8.775
			c7.86,0,14.442-6.718,16.273-8.775c0.024-0.028,0.024-0.069,0-0.102l0,0C132.11,197.891,125.528,191.173,117.667,191.173z"/>
	</g>
	<g>
		<path fill="#A9A9A9" d="M117.667,207.701c-4.246,0-7.701-3.455-7.701-7.701s3.455-7.699,7.701-7.699s7.699,3.453,7.699,7.699
			S121.913,207.701,117.667,207.701z M117.667,193.505c-3.58,0-6.494,2.912-6.494,6.494c0,3.58,2.914,6.494,6.494,6.494
			s6.493-2.914,6.493-6.494C124.16,196.417,121.247,193.505,117.667,193.505z"/>
	</g>
	<g>
		<path fill="#A9A9A9" d="M117.667,202.921c-1.609,0-2.922-1.313-2.922-2.922c0-1.61,1.313-2.92,2.922-2.92
			c1.608,0,2.92,1.31,2.92,2.92S119.276,202.921,117.667,202.921z M117.667,198.287c-0.945,0-1.715,0.768-1.715,1.713
			c0,0.943,0.77,1.713,1.715,1.713c0.944,0,1.714-0.77,1.714-1.713C119.381,199.055,118.612,198.287,117.667,198.287z"/>
	</g>
</g>
<line fill="none" stroke="#191919" stroke-width="2" stroke-linecap="round" stroke-linejoin="round" stroke-miterlimit="10" x1="163.054" y1="279.828" x2="177.851" y2="262.6"/>
<line fill="none" stroke="#191919" stroke-width="2" stroke-linecap="round" stroke-linejoin="round" stroke-miterlimit="10" x1="178.008" y1="262.376" x2="163.008" y2="244.828"/>
<line fill="none" stroke="#191919" stroke-width="2" stroke-linecap="round" stroke-linejoin="round" stroke-miterlimit="10" x1="149.276" y1="279.818" x2="134.478" y2="262.589"/>
<line fill="none" stroke="#191919" stroke-width="2" stroke-linecap="round" stroke-linejoin="round" stroke-miterlimit="10" x1="134.321" y1="262.367" x2="149.321" y2="244.818"/>
<g>
	
		<line fill="none" stroke="#191919" stroke-width="2" stroke-linecap="round" stroke-linejoin="round" stroke-miterlimit="10" x1="112.001" y1="279.318" x2="97.203" y2="262.089"/>
	
		<line fill="none" stroke="#191919" stroke-width="2" stroke-linecap="round" stroke-linejoin="round" stroke-miterlimit="10" x1="97.046" y1="261.867" x2="112.046" y2="244.318"/>
	
		<line fill="none" stroke="#191919" stroke-width="2" stroke-linecap="round" stroke-linejoin="round" stroke-miterlimit="10" x1="88.476" y1="250.818" x2="88.476" y2="273.02"/>
</g>
<g>
	
		<line fill="none" stroke="#191919" stroke-width="2" stroke-linecap="round" stroke-linejoin="round" stroke-miterlimit="10" x1="204.54" y1="280.02" x2="219.286" y2="262.793"/>
	
		<line fill="none" stroke="#191919" stroke-width="2" stroke-linecap="round" stroke-linejoin="round" stroke-miterlimit="10" x1="219.442" y1="262.57" x2="204.494" y2="245.02"/>
	
		<line fill="none" stroke="#191919" stroke-width="2" stroke-linecap="round" stroke-linejoin="round" stroke-miterlimit="10" x1="228.063" y1="251.318" x2="228.063" y2="273.52"/>
</g>
</svg>
