<?xml version="1.0" encoding="utf-8"?>
<!-- Generator: Adobe Illustrator 16.0.0, SVG Export Plug-In . SVG Version: 6.00 Build 0)  -->
<!DOCTYPE svg PUBLIC "-//W3C//DTD SVG 1.1//EN" "http://www.w3.org/Graphics/SVG/1.1/DTD/svg11.dtd">
<svg version="1.1" id="Layer_1" xmlns="http://www.w3.org/2000/svg" xmlns:xlink="http://www.w3.org/1999/xlink" x="0px" y="0px"
	 width="12.074px" height="12.5px" viewBox="18.11 18.75 12.074 12.5" enable-background="new 18.11 18.75 12.074 12.5"
	 xml:space="preserve">
<g>
	<g>
		<defs>
			<rect id="SVGID_1_" x="18.11" y="18.75" width="12.074" height="12.5"/>
		</defs>
		<clipPath id="SVGID_2_">
			<use xlink:href="#SVGID_1_"  overflow="visible"/>
		</clipPath>
		<path clip-path="url(#SVGID_2_)" fill="#A9A9A9" d="M18.11,23.989c0,2.891,2.351,5.242,5.24,5.242
			c1.242,0,2.383-0.437,3.282-1.161l3.103,3.103c0.051,0.052,0.118,0.077,0.186,0.077c0.068,0,0.135-0.025,0.188-0.077
			c0.102-0.104,0.102-0.269,0-0.372l-3.082-3.081c0.965-0.951,1.565-2.271,1.565-3.73c0-2.889-2.351-5.239-5.241-5.239
			C20.461,18.75,18.11,21.101,18.11,23.989 M18.637,23.989c0-2.598,2.114-4.712,4.713-4.712c2.599,0,4.714,2.114,4.714,4.712
			c0,2.601-2.115,4.715-4.714,4.715C20.751,28.704,18.637,26.59,18.637,23.989"/>
	</g>
</g>
</svg>
