<?xml version="1.0" encoding="utf-8"?>
<!-- Generator: Adobe Illustrator 16.0.0, SVG Export Plug-In . SVG Version: 6.00 Build 0)  -->
<!DOCTYPE svg PUBLIC "-//W3C//DTD SVG 1.1//EN" "http://www.w3.org/Graphics/SVG/1.1/DTD/svg11.dtd">
<svg version="1.1" id="Layer_1" xmlns="http://www.w3.org/2000/svg" xmlns:xlink="http://www.w3.org/1999/xlink" x="0px" y="0px"
	 width="24.146px" height="25px" viewBox="12.073 12.5 24.146 25" enable-background="new 12.073 12.5 24.146 25"
	 xml:space="preserve">
<g>
	<g>
		<defs>
			<rect id="SVGID_1_" x="12.073" y="12.5" width="24.146" height="25"/>
		</defs>
		<clipPath id="SVGID_2_">
			<use xlink:href="#SVGID_1_"  overflow="visible"/>
		</clipPath>
		<path clip-path="url(#SVGID_2_)" fill="#A9A9A9" d="M12.073,22.979c0,5.781,4.702,10.484,10.48,10.484
			c2.483,0,4.767-0.874,6.563-2.321l6.205,6.204c0.102,0.104,0.236,0.154,0.372,0.154c0.135,0,0.27-0.051,0.373-0.154
			c0.204-0.207,0.204-0.537,0-0.744l-6.162-6.162c1.929-1.902,3.13-4.541,3.13-7.46c0-5.778-4.702-10.479-10.481-10.479
			C16.775,12.5,12.073,17.201,12.073,22.979 M13.128,22.979c0-5.197,4.229-9.425,9.426-9.425c5.198,0,9.428,4.229,9.428,9.425
			c0,5.2-4.229,9.429-9.428,9.429C17.356,32.408,13.128,28.179,13.128,22.979"/>
	</g>
</g>
</svg>
