<?xml version="1.0" encoding="utf-8"?>
<!-- Generator: Adobe Illustrator 15.1.0, SVG Export Plug-In . SVG Version: 6.00 Build 0)  -->
<!DOCTYPE svg PUBLIC "-//W3C//DTD SVG 1.1//EN" "http://www.w3.org/Graphics/SVG/1.1/DTD/svg11.dtd">
<svg version="1.1" id="Layer_1" xmlns="http://www.w3.org/2000/svg" xmlns:xlink="http://www.w3.org/1999/xlink" x="0px" y="0px"
	 width="48.293px" height="50px" viewBox="0 0 48.293 50" enable-background="new 0 0 48.293 50" xml:space="preserve">
<g>
	<defs>
		<rect id="SVGID_1_" width="48.293" height="50"/>
	</defs>
	<clipPath id="SVGID_2_">
		<use xlink:href="#SVGID_1_"  overflow="visible"/>
	</clipPath>
	<path clip-path="url(#SVGID_2_)" fill="#A9A9A9" d="M0,20.958C0,32.52,9.405,41.925,20.961,41.925
		c4.967,0,9.532-1.747,13.126-4.642l12.41,12.409C46.7,49.899,46.971,50,47.242,50c0.269,0,0.539-0.101,0.746-0.308
		c0.409-0.414,0.409-1.076,0-1.488L35.664,35.878c3.858-3.804,6.26-9.082,6.26-14.92C41.923,9.403,32.52,0,20.961,0
		C9.405,0,0,9.403,0,20.958 M2.11,20.958c0-10.394,8.457-18.85,18.851-18.85c10.397,0,18.855,8.456,18.855,18.85
		c0,10.4-8.458,18.858-18.855,18.858C10.567,39.816,2.11,31.358,2.11,20.958"/>
</g>
</svg>
