<?xml version="1.0" encoding="utf-8"?>
<!-- Generator: Adobe Illustrator 16.0.0, SVG Export Plug-In . SVG Version: 6.00 Build 0)  -->
<!DOCTYPE svg PUBLIC "-//W3C//DTD SVG 1.1//EN" "http://www.w3.org/Graphics/SVG/1.1/DTD/svg11.dtd">
<svg version="1.1" id="Layer_1" xmlns="http://www.w3.org/2000/svg" xmlns:xlink="http://www.w3.org/1999/xlink" x="0px" y="0px"
	 width="14.172px" height="21.984px" viewBox="47.641 -0.842 14.172 21.984" enable-background="new 47.641 -0.842 14.172 21.984"
	 xml:space="preserve">
<path fill="#006CFF" stroke="#006CFF" stroke-width="3" stroke-linecap="round" stroke-linejoin="round" stroke-miterlimit="10" d="
	M-19.781-154.598l-35.412-32.495l-0.018-0.021c-1.853-1.67-4.632-1.658-6.466,0.026l-35.6,32.992c-1.377,1.279-1.46,3.43-0.18,4.808
	c0.669,0.725,1.502,1.439,2.494,1.439c5.866,0,4.211,0,7.374,0h1.132v28.092c0,0.773,0.623,1.398,1.396,1.398h17.049
	c0.739,0,1.338-0.601,1.338-1.34v-15.179c0-0.934,0.758-1.688,1.689-1.688h12.921c0.936,0,1.689,0.755,1.689,1.688v15.179
	c0,0.739,0.6,1.34,1.34,1.34h17.049c0.77,0,1.398-0.625,1.398-1.398v-28.092h6.205c2.008,0,3.535-0.56,4.807-1.943
	S-18.396-153.327-19.781-154.598z"/>
<path fill="none" stroke="#A9A9A9" stroke-width="3" stroke-linecap="round" stroke-linejoin="round" stroke-miterlimit="10" d="
	M77.857-154.208l-35.414-32.493l-0.019-0.02c-1.853-1.669-4.631-1.659-6.466,0.025l-35.6,32.99c-1.377,1.278-1.46,3.431-0.18,4.809
	c0.669,0.723,1.503,1.438,2.495,1.438c5.865,0,4.211,0,7.373,0h1.132v28.092c0,0.773,0.624,1.396,1.397,1.396h17.049
	c0.738,0,1.338-0.598,1.338-1.338v-15.178c0-0.935,0.758-1.689,1.689-1.689h12.922c0.934,0,1.689,0.756,1.689,1.689v15.178
	c0,0.74,0.598,1.338,1.338,1.338h17.051c0.77,0,1.396-0.623,1.396-1.396v-28.092h6.205c2.011,0,3.537-0.561,4.81-1.942
	C79.333-150.785,79.24-152.937,77.857-154.208z"/>
<path fill="#006CFF" d="M371.635-161.724c-0.266-0.811-0.688-1.54-1.231-2.162c-0.896-1.106-2.148-1.9-3.58-2.193l-17.306-3.559
	l-8.653-15.226c-0.162-0.282-0.352-0.548-0.552-0.799c-1.161-1.573-3.018-2.531-5.002-2.531c-2.231,0-4.306,1.205-5.409,3.146
	l-8.752,15.399l-17.352,3.567c-2.187,0.447-3.972,2.045-4.664,4.168c-0.626,1.934-0.256,4.038,0.942,5.645
	c0.16,0.229,0.334,0.451,0.524,0.661l11.791,12.921l-1.966,17.58c-0.188,1.696,0.337,3.379,1.401,4.659
	c0.357,0.47,0.781,0.896,1.271,1.249c1.071,0.778,2.335,1.19,3.661,1.19c0.892,0,1.753-0.186,2.564-0.553l16.133-7.314l16.136,7.316
	c2.026,0.914,4.438,0.66,6.227-0.641c1.801-1.31,2.771-3.504,2.521-5.724l-1.97-17.602l11.938-13.084
	C371.819-157.254,372.323-159.596,371.635-161.724"/>
<path fill="#A9A9A9" d="M403.511-118.1c-1.325,0-2.59-0.412-3.66-1.189c-1.805-1.307-2.772-3.502-2.524-5.721l1.969-17.604
	L387.355-155.7c-1.506-1.646-2.012-3.989-1.321-6.115c0.692-2.123,2.479-3.722,4.664-4.169l17.352-3.568l8.752-15.399
	c1.104-1.939,3.177-3.146,5.41-3.146c2.229,0,4.303,1.207,5.406,3.145l8.756,15.401l17.349,3.568
	c2.185,0.447,3.971,2.046,4.663,4.168c0.688,2.128,0.185,4.471-1.324,6.117l-11.938,13.085l1.969,17.602
	c0.248,2.222-0.719,4.416-2.521,5.725c-1.79,1.301-4.198,1.554-6.225,0.64l-16.135-7.316l-16.133,7.314
	C405.265-118.285,404.403-118.1,403.511-118.1 M422.21-185.138c-1.172,0-2.258,0.632-2.838,1.648l-9.082,15.981
	c-0.211,0.371-0.572,0.632-0.988,0.72l-18.01,3.703c-1.146,0.235-2.082,1.073-2.444,2.186c-0.359,1.114-0.097,2.342,0.692,3.202
	l12.394,13.583c0.286,0.315,0.424,0.739,0.377,1.164l-2.043,18.271c-0.132,1.162,0.377,2.313,1.321,2.998
	c0.941,0.682,2.211,0.813,3.265,0.334l16.744-7.592c0.389-0.176,0.834-0.176,1.223,0l16.745,7.592
	c1.062,0.477,2.324,0.348,3.265-0.334c0.943-0.687,1.45-1.836,1.321-3l-2.045-18.27c-0.047-0.425,0.089-0.849,0.376-1.164
	l12.393-13.58c0.789-0.863,1.056-2.091,0.693-3.206c-0.361-1.111-1.3-1.949-2.441-2.185l-18.01-3.703
	c-0.416-0.088-0.777-0.349-0.988-0.72l-9.086-15.982C424.464-184.506,423.378-185.138,422.21-185.138"/>
<g>
	<path fill="#006CFF" d="M123.314-157.521c-11.455,0-20.774,9.319-20.774,20.775c0,11.455,9.319,20.777,20.774,20.777
		c11.459,0,20.778-9.322,20.778-20.777S134.773-157.521,123.314-157.521z M123.314-119.338c-9.597,0-17.405-7.809-17.405-17.406
		c0-9.597,7.81-17.406,17.405-17.406c9.6,0,17.408,7.809,17.408,17.406C140.723-127.146,132.914-119.338,123.314-119.338z"/>
	<path fill="#006CFF" d="M123.314-143.945c-3.969,0-7.199,3.229-7.199,7.2c0,3.972,3.23,7.201,7.199,7.201
		c3.974,0,7.203-3.229,7.203-7.201C130.518-140.715,127.288-143.945,123.314-143.945z M123.314-132.912
		c-2.11,0-3.83-1.719-3.83-3.832c0-2.11,1.72-3.832,3.83-3.832c2.115,0,3.834,1.722,3.834,3.832
		C127.148-134.631,125.43-132.912,123.314-132.912z"/>
	<path fill="#006CFF" d="M186.236-130.367c-0.184-0.907-1.078-1.489-1.986-1.305l-6.534,1.363c-0.067,0.014-0.127-0.025-0.146-0.086
		l-4.534-12.857c-1.379-3.91-5.091-6.542-9.239-6.542h-2.082l0.041-18.784c0.006-1.499-0.564-2.909-1.605-3.989
		c-1.1-1.146-2.649-1.75-4.234-1.75H125v-5.396c0-5.097-4.148-9.253-9.246-9.253h-5.979c-0.922,0-1.729,0.716-1.756,1.644
		c-0.021,0.955,0.742,1.73,1.689,1.73h6.044c3.242,0,5.88,2.638,5.88,5.879v20.01c0.551-0.04,1.12-0.065,1.686-0.065
		c9.371,0,17.451,5.634,21.043,13.688h13.979l-0.007,3.726l-0.007,8.94c0.551-0.1,1.114-0.146,1.69-0.146
		c0.575,0,1.141,0.047,1.684,0.146l0.007-8.94v-4.063h2.088c2.724,0,5.156,1.724,6.063,4.295l4.527,12.853
		c0.497,1.418,1.85,2.34,3.309,2.34c0.231,0,0.471-0.025,0.709-0.08l6.527-1.359C185.848-128.564,186.43-129.453,186.236-130.367z
		 M158.374-164.284H125v-6.66h31.048c0.623,0,1.212,0.244,1.656,0.688c0.438,0.444,0.683,1.034,0.676,1.664L158.374-164.284z"/>
	<path fill="#006CFF" d="M160.018-131.242c-4.213,0-7.639,3.427-7.639,7.638s3.426,7.639,7.639,7.639
		c4.211,0,7.637-3.428,7.637-7.639S164.229-131.242,160.018-131.242z M160.018-119.25c-2.401,0-4.354-1.955-4.354-4.354
		c0-2.4,1.953-4.354,4.354-4.354c2.4,0,4.354,1.953,4.354,4.354C164.371-121.204,162.418-119.25,160.018-119.25z"/>
	<circle fill="#006CFF" cx="160.018" cy="-123.605" r="1.434"/>
</g>
<g>
	<path fill="#A9A9A9" d="M215.855-157.52c-11.455,0-20.774,9.319-20.774,20.774c0,11.457,9.319,20.777,20.774,20.777
		c11.459,0,20.778-9.32,20.778-20.777C236.634-148.199,227.314-157.52,215.855-157.52z M215.855-119.337
		c-9.597,0-17.405-7.808-17.405-17.407c0-9.598,7.81-17.405,17.405-17.405c9.6,0,17.408,7.809,17.408,17.405
		C233.264-127.145,225.455-119.337,215.855-119.337z"/>
	<path fill="#A9A9A9" d="M215.855-143.945c-3.969,0-7.199,3.23-7.199,7.2c0,3.974,3.23,7.202,7.199,7.202
		c3.974,0,7.203-3.229,7.203-7.202C223.059-140.714,219.829-143.945,215.855-143.945z M215.855-132.912
		c-2.11,0-3.83-1.719-3.83-3.832c0-2.11,1.72-3.83,3.83-3.83c2.115,0,3.834,1.72,3.834,3.83
		C219.689-134.631,217.971-132.912,215.855-132.912z"/>
	<path fill="#A9A9A9" d="M278.777-130.366c-0.184-0.907-1.078-1.49-1.986-1.306l-6.534,1.365c-0.067,0.014-0.127-0.027-0.146-0.086
		l-4.534-12.858c-1.379-3.911-5.091-6.542-9.239-6.542h-2.082l0.041-18.785c0.006-1.499-0.564-2.91-1.605-3.989
		c-1.1-1.146-2.649-1.75-4.234-1.75h-30.914v-5.396c0-5.097-4.148-9.253-9.246-9.253h-5.979c-0.922,0-1.729,0.716-1.756,1.644
		c-0.021,0.955,0.742,1.73,1.689,1.73h6.044c3.242,0,5.88,2.638,5.88,5.879v20.01c0.551-0.04,1.12-0.065,1.686-0.065
		c9.371,0,17.451,5.634,21.044,13.687h13.979l-0.007,3.727l-0.007,8.939c0.551-0.099,1.114-0.146,1.69-0.146
		s1.141,0.047,1.684,0.146l0.007-8.939v-4.063h2.088c2.724,0,5.156,1.723,6.063,4.295l4.527,12.854
		c0.498,1.418,1.851,2.339,3.309,2.339c0.232,0,0.471-0.025,0.709-0.078l6.527-1.359
		C278.389-128.563,278.971-129.451,278.777-130.366z M250.915-164.283h-33.374v-6.66h31.048c0.623,0,1.212,0.245,1.656,0.688
		c0.438,0.444,0.683,1.034,0.676,1.664L250.915-164.283z"/>
	<path fill="#A9A9A9" d="M252.559-131.242c-4.213,0-7.639,3.428-7.639,7.639c0,4.212,3.426,7.638,7.639,7.638
		c4.211,0,7.637-3.426,7.637-7.638C260.195-127.815,256.77-131.242,252.559-131.242z M252.559-119.25
		c-2.401,0-4.354-1.953-4.354-4.354s1.953-4.354,4.354-4.354c2.4,0,4.354,1.954,4.354,4.354
		C256.913-121.203,254.959-119.25,252.559-119.25z"/>
	<circle fill="#A9A9A9" cx="252.559" cy="-123.604" r="1.434"/>
</g>
<path fill="#7FB5FF" d="M-25.266-63.913c-0.244-0.747-0.637-1.423-1.139-1.997c-0.828-1.029-1.992-1.771-3.324-2.047l-16.018-3.293
	l-8.01-14.085c-0.152-0.266-0.326-0.51-0.516-0.744c-1.076-1.462-2.795-2.354-4.635-2.354c-2.068,0-3.986,1.119-5.008,2.916
	l-8.104,14.256l-16.066,3.304c-2.025,0.417-3.678,1.896-4.32,3.862c-0.58,1.793-0.232,3.746,0.885,5.236
	c0.146,0.213,0.309,0.418,0.484,0.609l10.91,11.955l-1.822,16.278c-0.174,1.576,0.316,3.135,1.307,4.324
	c0.332,0.432,0.723,0.825,1.178,1.154c0.992,0.723,2.162,1.104,3.387,1.104c0.828,0,1.625-0.172,2.377-0.515l14.939-6.771
	l14.938,6.771c1.875,0.85,4.107,0.614,5.764-0.59c1.668-1.212,2.566-3.244,2.336-5.299l-1.822-16.298l11.053-12.114
	C-25.096-59.771-24.627-61.94-25.266-63.913"/>
<path fill="#A9A9A9" d="M-0.679-22.967c-1.232,0-2.406-0.381-3.401-1.104c-1.674-1.216-2.572-3.253-2.343-5.313l1.828-16.346
	l-11.089-12.152c-1.397-1.529-1.864-3.705-1.227-5.68c0.643-1.972,2.303-3.455,4.332-3.871l16.112-3.313l8.127-14.299
	c1.024-1.803,2.949-2.924,5.021-2.924c2.071,0,3.995,1.121,5.021,2.92l8.13,14.303l16.111,3.313c2.025,0.416,3.686,1.899,4.33,3.871
	c0.639,1.975,0.17,4.149-1.23,5.68L37.958-45.729l1.828,16.344c0.229,2.062-0.667,4.099-2.343,5.314
	c-1.661,1.206-3.897,1.44-5.778,0.594L16.682-30.27L1.703-23.479C0.949-23.139,0.148-22.967-0.679-22.967 M16.682-85.217
	c-1.087,0-2.097,0.588-2.634,1.533L5.615-68.846c-0.197,0.346-0.532,0.588-0.917,0.67l-16.724,3.438
	c-1.065,0.219-1.935,0.995-2.271,2.028c-0.333,1.035-0.09,2.174,0.644,2.975l11.508,12.612c0.266,0.293,0.394,0.688,0.35,1.079
	l-1.896,16.966c-0.123,1.079,0.351,2.147,1.229,2.784c0.873,0.634,2.052,0.755,3.029,0.311l15.55-7.049
	c0.359-0.162,0.773-0.162,1.134,0l15.548,7.049c0.986,0.442,2.159,0.323,3.031-0.311c0.877-0.637,1.348-1.705,1.229-2.785
	l-1.897-16.965c-0.043-0.393,0.082-0.786,0.348-1.079l11.507-12.611c0.733-0.802,0.981-1.939,0.646-2.978
	c-0.337-1.031-1.206-1.809-2.268-2.026l-16.724-3.438c-0.386-0.082-0.723-0.324-0.918-0.67l-8.437-14.84
	C18.777-84.629,17.767-85.217,16.682-85.217"/>
<g>
	
		<polygon fill="none" stroke="#A9A9A9" stroke-width="2.5" stroke-linecap="round" stroke-linejoin="round" stroke-miterlimit="10" points="
		136.732,-25.443 136.093,-19.967 140.52,-23.256 154.35,-47.213 150.561,-49.4 	"/>
	<path fill="none" stroke="#A9A9A9" stroke-width="2.5" stroke-linecap="round" stroke-linejoin="round" stroke-miterlimit="10" d="
		M138.543-57.512l28.844,16.652c2.996-5.193,2.879-11.328,0.227-16.244l9.226-15.979c3.345-0.77,6.373-2.869,8.224-6.076
		l-22.188-12.809c-1.851,3.205-2.153,6.879-1.147,10.16L152.5-65.831C146.915-65.668,141.542-62.703,138.543-57.512z"/>
</g>
<g>
	<polygon fill="#58595B" points="79.275,-25.078 78.637,-19.6 83.063,-22.891 96.893,-46.848 93.104,-49.035 	"/>
	
		<polygon fill="none" stroke="#58595B" stroke-width="2" stroke-linecap="round" stroke-linejoin="round" stroke-miterlimit="10" points="
		79.275,-25.078 78.637,-19.6 83.063,-22.891 96.893,-46.848 93.104,-49.035 	"/>
	<path fill="#FF9CC2" d="M81.086-57.146l28.844,16.651c2.996-5.192,2.877-11.328,0.228-16.243l9.225-15.979
		c3.345-0.77,6.372-2.869,8.224-6.074l-22.188-12.811c-1.852,3.205-2.154,6.879-1.15,10.16l-9.225,15.977
		C89.458-65.303,84.084-62.338,81.086-57.146"/>
	<path fill="none" stroke="#FF9CC2" stroke-width="3" stroke-linecap="round" stroke-linejoin="round" stroke-miterlimit="10" d="
		M81.086-57.146l28.844,16.651c2.996-5.192,2.877-11.328,0.228-16.243l9.225-15.979c3.345-0.77,6.372-2.869,8.224-6.074
		l-22.188-12.811c-1.852,3.205-2.154,6.879-1.15,10.16l-9.225,15.977C89.458-65.303,84.084-62.338,81.086-57.146z"/>
</g>
<g>
	<path fill="none" stroke="#A9A9A9" stroke-width="2.8" stroke-linecap="round" stroke-linejoin="round" stroke-miterlimit="10" d="
		M244.93-40.007c1.78-3.113,5.155-5.215,9.02-5.215c5.74,0,10.41,4.652,10.41,10.41c0,5.737-4.67,10.405-10.41,10.405
		c-5.756,0-10.407-4.668-10.407-10.405C243.542-36.706,244.048-38.472,244.93-40.007z"/>
	<path fill="none" stroke="#A9A9A9" stroke-width="2.8" stroke-linecap="round" stroke-linejoin="round" stroke-miterlimit="10" d="
		M244.949-73.806c-0.9-1.517-1.407-3.299-1.407-5.193c0-5.758,4.651-10.407,10.407-10.407c5.74,0,10.41,4.649,10.41,10.407
		c0,5.74-4.67,10.41-10.41,10.41C250.085-68.589,246.729-70.692,244.949-73.806z"/>
	<path fill="none" stroke="#A9A9A9" stroke-width="2.8" stroke-linecap="round" stroke-linejoin="round" stroke-miterlimit="10" d="
		M224.617-62.103c-1.781-3.113-5.16-5.211-9.021-5.211c-5.74,0-10.408,4.651-10.408,10.41c0,5.733,4.668,10.405,10.408,10.405
		c3.861,0,7.223-2.1,9.004-5.213c0.898-1.52,1.407-3.301,1.407-5.192C226.006-58.802,225.498-60.563,224.617-62.103z"/>
	
		<line fill="none" stroke="#A9A9A9" stroke-width="2.8" stroke-linecap="round" stroke-linejoin="round" stroke-miterlimit="10" x1="224.617" y1="-62.103" x2="244.949" y2="-73.806"/>
	
		<line fill="none" stroke="#A9A9A9" stroke-width="2.8" stroke-linecap="round" stroke-linejoin="round" stroke-miterlimit="10" x1="224.6" y1="-51.71" x2="244.93" y2="-40.007"/>
</g>
<g>
	<g>
		<g>
			<defs>
				<rect id="SVGID_1_" x="319.333" y="-36.967" width="50.999" height="9"/>
			</defs>
			<clipPath id="SVGID_2_">
				<use xlink:href="#SVGID_1_"  overflow="visible"/>
			</clipPath>
			
				<linearGradient id="SVGID_3_" gradientUnits="userSpaceOnUse" x1="-430.6626" y1="-128.3499" x2="-429.6626" y2="-128.3499" gradientTransform="matrix(0 -167.3333 167.3333 0 21822.0703 -72047.2578)">
				<stop  offset="0" style="stop-color:#FFFFFF"/>
				<stop  offset="0.3842" style="stop-color:#FFF427"/>
				<stop  offset="0.4821" style="stop-color:#FDD925"/>
				<stop  offset="0.6305" style="stop-color:#FAB622"/>
				<stop  offset="0.7706" style="stop-color:#F99D20"/>
				<stop  offset="0.8977" style="stop-color:#F78D1E"/>
				<stop  offset="1" style="stop-color:#F7881E"/>
			</linearGradient>
			<rect x="319.333" y="-36.967" clip-path="url(#SVGID_2_)" fill="url(#SVGID_3_)" width="50.999" height="9"/>
		</g>
	</g>
	<g>
		<g>
			<defs>
				<path id="SVGID_4_" d="M338.833-81.967c0,2.157,1.145,4.047,2.855,5.102l-10.727,17.418l-19.595-8.202
					c0.299-0.714,0.465-1.495,0.465-2.316c0-3.314-2.686-6-6-6s-6,2.686-6,6c0,3.313,2.686,6,6,6c0.965,0,1.873-0.234,2.68-0.639
					l10.817,21.632l-0.02,0.007h0.021h50.979h0.02l-0.015-0.007l10.817-21.641c0.813,0.41,1.728,0.646,2.696,0.646
					c3.314,0,6.001-2.688,6.001-6c0-3.314-2.687-6-6.001-6c-3.313,0-6,2.686-6,6c0,0.818,0.167,1.598,0.464,2.309l-19.615,8.212
					L347.972-76.86c1.713-1.059,2.861-2.946,2.861-5.106c0-3.316-2.688-6-6-6C341.521-87.966,338.833-85.283,338.833-81.967"/>
			</defs>
			<clipPath id="SVGID_5_">
				<use xlink:href="#SVGID_4_"  overflow="visible"/>
			</clipPath>
			
				<linearGradient id="SVGID_6_" gradientUnits="userSpaceOnUse" x1="-430.6621" y1="-128.3499" x2="-429.6639" y2="-128.3499" gradientTransform="matrix(0 -167.3333 167.3333 0 21822.0703 -72047.2578)">
				<stop  offset="0" style="stop-color:#FFFFFF"/>
				<stop  offset="0.3842" style="stop-color:#FFF427"/>
				<stop  offset="0.4821" style="stop-color:#FDD925"/>
				<stop  offset="0.6305" style="stop-color:#FAB622"/>
				<stop  offset="0.7706" style="stop-color:#F99D20"/>
				<stop  offset="0.8977" style="stop-color:#F78D1E"/>
				<stop  offset="1" style="stop-color:#F7881E"/>
			</linearGradient>
			<rect x="299.833" y="-87.967" clip-path="url(#SVGID_5_)" fill="url(#SVGID_6_)" width="90" height="45"/>
		</g>
	</g>
</g>
<path fill="#A9A9A9" d="M-10.198,13.627c-0.015-0.092-0.037-0.18-0.063-0.271c-0.025-0.088-0.055-0.176-0.088-0.265
	c-0.033-0.084-0.069-0.168-0.114-0.254c-0.04-0.08-0.084-0.159-0.131-0.239c-0.048-0.076-0.103-0.158-0.161-0.23
	c-0.052-0.074-0.114-0.146-0.176-0.215c0.074-0.086,0.136-0.178,0.202-0.271c0.063-0.088,0.117-0.182,0.173-0.28
	c0.051-0.097,0.098-0.197,0.142-0.297c0.041-0.103,0.081-0.205,0.113-0.312c0.033-0.106,0.059-0.213,0.082-0.318
	c0.021-0.11,0.039-0.221,0.051-0.329c0.015-0.109,0.021-0.222,0.021-0.334c0-0.109-0.003-0.224-0.014-0.337
	c-0.019-0.213-0.058-0.422-0.125-0.622c-0.059-0.201-0.14-0.396-0.238-0.582c-0.095-0.185-0.213-0.355-0.341-0.521
	c-0.131-0.162-0.274-0.316-0.432-0.451c-0.162-0.139-0.333-0.264-0.513-0.373c-0.184-0.11-0.377-0.201-0.579-0.278
	c-0.201-0.076-0.411-0.136-0.626-0.177c-0.216-0.039-0.439-0.063-0.67-0.063h-0.967h-0.97h-0.97h-0.971h-0.971H-19.5h-0.974h-0.967
	c0.047-0.15,0.099-0.318,0.154-0.494c0.051-0.176,0.105-0.365,0.161-0.561c0.055-0.197,0.109-0.402,0.161-0.615
	c0.051-0.211,0.102-0.433,0.154-0.65c0.047-0.225,0.095-0.447,0.131-0.674c0.044-0.229,0.081-0.459,0.11-0.686
	c0.029-0.228,0.055-0.451,0.073-0.675c0.015-0.223,0.022-0.442,0.022-0.655c0-0.22-0.011-0.437-0.037-0.642
	c-0.029-0.205-0.063-0.406-0.109-0.596c-0.044-0.191-0.099-0.375-0.161-0.551c-0.063-0.177-0.129-0.345-0.198-0.502
	c-0.074-0.156-0.15-0.308-0.228-0.445c-0.077-0.141-0.157-0.271-0.234-0.393c-0.081-0.121-0.158-0.23-0.235-0.334
	c-0.072-0.099-0.143-0.189-0.212-0.267c-0.1-0.125-0.206-0.242-0.309-0.352c-0.109-0.111-0.22-0.213-0.329-0.313
	c-0.109-0.098-0.224-0.186-0.333-0.271c-0.114-0.084-0.228-0.16-0.34-0.23c-0.11-0.063-0.224-0.127-0.338-0.18
	c-0.113-0.055-0.223-0.099-0.333-0.135c-0.11-0.037-0.216-0.063-0.323-0.08c-0.106-0.021-0.208-0.029-0.307-0.029
	c-0.172,0-0.333,0.01-0.487,0.033c-0.157,0.018-0.304,0.047-0.447,0.084c-0.139,0.031-0.275,0.072-0.399,0.121
	c-0.128,0.043-0.242,0.092-0.348,0.139s-0.205,0.1-0.293,0.146c-0.084,0.047-0.161,0.092-0.223,0.131
	c-0.065,0.041-0.117,0.078-0.157,0.106c-0.044,0.025-0.07,0.047-0.085,0.06c-0.021,0.018-0.047,0.039-0.066,0.059
	c-0.022,0.021-0.04,0.043-0.063,0.068c-0.018,0.022-0.037,0.049-0.051,0.073c-0.015,0.021-0.029,0.048-0.044,0.076
	c-0.01,0.025-0.021,0.056-0.033,0.082c-0.007,0.029-0.018,0.06-0.025,0.088c-0.004,0.029-0.011,0.06-0.011,0.088
	c-0.003,0.029-0.003,0.06-0.003,0.091v0.543v0.541v0.547V-0.1v0.543v0.541v0.543v0.545l-0.451,0.967l-0.447,0.971l-0.446,0.972
	l-0.451,0.971l-0.447,0.967l-0.446,0.972l-0.447,0.967l-0.447,0.971c-0.01-0.045-0.021-0.088-0.04-0.133
	c-0.019-0.041-0.041-0.08-0.062-0.121c-0.023-0.037-0.052-0.072-0.081-0.105c-0.029-0.032-0.059-0.065-0.095-0.096
	c-0.033-0.024-0.073-0.051-0.11-0.072c-0.041-0.022-0.081-0.045-0.121-0.059c-0.044-0.016-0.088-0.025-0.136-0.037
	c-0.044-0.008-0.092-0.012-0.14-0.012h-0.809h-0.805h-0.806h-0.81h-0.805h-0.807h-0.809h-0.806c-0.231,0-0.457,0.024-0.681,0.07
	c-0.216,0.043-0.428,0.108-0.634,0.196c-0.201,0.084-0.392,0.191-0.575,0.312c-0.179,0.121-0.344,0.262-0.498,0.414
	c-0.154,0.153-0.293,0.317-0.413,0.498c-0.125,0.184-0.228,0.375-0.312,0.575c-0.088,0.201-0.154,0.416-0.202,0.638
	c-0.044,0.219-0.066,0.446-0.066,0.682v1.289v1.289v1.293v1.289v1.291v1.293v1.289V22.9c0,0.233,0.021,0.463,0.066,0.682
	c0.048,0.222,0.113,0.433,0.202,0.637c0.084,0.199,0.187,0.394,0.312,0.576c0.12,0.181,0.259,0.345,0.413,0.498
	c0.154,0.152,0.319,0.293,0.498,0.414c0.184,0.119,0.374,0.228,0.575,0.312c0.206,0.088,0.418,0.153,0.634,0.2
	c0.224,0.046,0.45,0.066,0.681,0.066h0.484h0.487h0.483h0.484h0.484h0.483h0.487h0.484c0.168,0,0.337-0.016,0.501-0.037
	c0.169-0.024,0.329-0.065,0.483-0.113c0.161-0.047,0.315-0.104,0.462-0.176c0.15-0.069,0.289-0.149,0.425-0.246
	c0.14-0.088,0.268-0.188,0.389-0.299c0.12-0.111,0.237-0.229,0.344-0.352c0.102-0.129,0.197-0.265,0.286-0.404
	c0.087-0.143,0.164-0.293,0.23-0.449c0.135,0.064,0.274,0.127,0.417,0.183c0.143,0.057,0.29,0.11,0.436,0.157
	c0.146,0.052,0.3,0.097,0.447,0.138c0.154,0.039,0.3,0.076,0.446,0.108c0.15,0.033,0.297,0.063,0.44,0.088
	c0.139,0.021,0.278,0.048,0.414,0.063c0.136,0.014,0.264,0.029,0.389,0.035c0.121,0.008,0.238,0.012,0.344,0.012h1.483h1.479h1.479
	h1.484h1.483h1.479h1.479h1.48c0.19,0,0.37-0.016,0.545-0.045c0.181-0.029,0.352-0.072,0.517-0.131
	c0.168-0.06,0.329-0.129,0.483-0.209c0.154-0.084,0.301-0.181,0.437-0.285c0.135-0.104,0.263-0.221,0.38-0.348
	c0.118-0.125,0.224-0.261,0.319-0.406c0.091-0.142,0.172-0.293,0.238-0.451c0.069-0.162,0.125-0.326,0.16-0.498
	c0.019-0.08,0.033-0.164,0.044-0.246c0.011-0.08,0.018-0.164,0.026-0.244c0.003-0.084,0.007-0.166,0.003-0.246
	c0-0.075-0.003-0.159-0.011-0.241c-0.007-0.076-0.018-0.156-0.033-0.234c-0.014-0.08-0.033-0.156-0.051-0.238
	c-0.022-0.076-0.044-0.151-0.07-0.229c-0.029-0.076-0.058-0.152-0.087-0.228c0.117-0.065,0.231-0.143,0.34-0.223
	c0.106-0.082,0.209-0.17,0.304-0.264c0.095-0.093,0.184-0.191,0.264-0.297c0.08-0.104,0.154-0.214,0.223-0.33
	c0.066-0.113,0.125-0.23,0.175-0.353c0.052-0.125,0.096-0.248,0.129-0.381c0.037-0.129,0.066-0.26,0.081-0.395
	c0.021-0.134,0.029-0.269,0.029-0.41c0-0.054-0.004-0.104-0.004-0.158c-0.003-0.051-0.007-0.105-0.011-0.158
	c-0.008-0.051-0.014-0.104-0.022-0.156c-0.007-0.053-0.019-0.104-0.029-0.153c-0.007-0.052-0.022-0.101-0.037-0.15
	c-0.011-0.051-0.025-0.102-0.041-0.15c-0.018-0.051-0.037-0.098-0.055-0.149c-0.015-0.047-0.037-0.094-0.059-0.142
	c0.121-0.069,0.234-0.145,0.34-0.229c0.11-0.08,0.212-0.168,0.304-0.26c0.096-0.097,0.183-0.195,0.264-0.301
	c0.084-0.103,0.158-0.214,0.224-0.326c0.066-0.113,0.128-0.23,0.175-0.355c0.055-0.123,0.099-0.248,0.132-0.377
	c0.034-0.127,0.063-0.26,0.081-0.395c0.019-0.138,0.025-0.271,0.025-0.41c0-0.096-0.003-0.188-0.01-0.283
	C-10.168,13.811-10.18,13.719-10.198,13.627z M-13.157,15.648c-0.033,0.008-0.07,0.021-0.103,0.037
	c-0.037,0.014-0.074,0.03-0.103,0.051c-0.033,0.021-0.062,0.043-0.091,0.065c-0.029,0.025-0.059,0.048-0.084,0.076
	c-0.021,0.025-0.048,0.056-0.07,0.088c-0.022,0.029-0.041,0.063-0.059,0.097s-0.033,0.067-0.044,0.104
	c-0.01,0.041-0.018,0.074-0.025,0.113c-0.007,0.037-0.01,0.074-0.014,0.113c0,0.037,0,0.073,0.003,0.11
	c0.003,0.039,0.01,0.076,0.021,0.113c0.008,0.033,0.018,0.068,0.037,0.105c0.01,0.032,0.029,0.069,0.047,0.104
	c0.019,0.029,0.04,0.062,0.062,0.09c0.025,0.033,0.052,0.06,0.081,0.086c0.036,0.035,0.073,0.072,0.102,0.109
	c0.033,0.037,0.065,0.08,0.091,0.117c0.029,0.039,0.059,0.084,0.081,0.125c0.025,0.043,0.047,0.088,0.066,0.131
	c0.018,0.045,0.037,0.092,0.051,0.139c0.015,0.045,0.029,0.092,0.037,0.142c0.011,0.047,0.018,0.094,0.025,0.146
	c0.004,0.047,0.004,0.098,0.004,0.146c0,0.094-0.007,0.182-0.021,0.27c-0.02,0.088-0.041,0.172-0.074,0.254
	c-0.033,0.08-0.074,0.16-0.117,0.234c-0.044,0.072-0.095,0.143-0.154,0.209c-0.059,0.061-0.124,0.123-0.19,0.176
	c-0.07,0.055-0.144,0.102-0.22,0.143c-0.081,0.039-0.161,0.072-0.249,0.099c-0.085,0.028-0.176,0.049-0.268,0.059
	c-0.036,0.004-0.077,0.012-0.113,0.023c-0.033,0.006-0.07,0.018-0.103,0.035c-0.037,0.016-0.073,0.028-0.102,0.053
	c-0.033,0.018-0.062,0.041-0.092,0.063c-0.029,0.023-0.059,0.05-0.084,0.074c-0.026,0.029-0.047,0.06-0.07,0.088
	c-0.021,0.031-0.039,0.066-0.059,0.099c-0.018,0.032-0.033,0.069-0.043,0.106c-0.015,0.037-0.022,0.072-0.029,0.109
	c-0.008,0.041-0.008,0.076-0.011,0.117c0,0.032,0,0.073,0.003,0.108c0.004,0.037,0.011,0.074,0.022,0.111
	c0.007,0.035,0.019,0.072,0.033,0.104c0.015,0.037,0.033,0.07,0.051,0.103c0.019,0.033,0.041,0.063,0.062,0.096
	c0.026,0.029,0.052,0.056,0.078,0.084c0.051,0.045,0.095,0.097,0.136,0.142c0.04,0.051,0.077,0.102,0.109,0.155
	c0.037,0.056,0.066,0.107,0.087,0.166c0.029,0.06,0.048,0.113,0.066,0.177c0.019,0.059,0.033,0.116,0.044,0.178
	c0.011,0.063,0.015,0.129,0.018,0.19c0,0.063,0,0.125-0.007,0.189c-0.003,0.066-0.014,0.133-0.029,0.199
	c-0.018,0.08-0.043,0.155-0.077,0.233c-0.033,0.072-0.073,0.146-0.117,0.211c-0.044,0.07-0.095,0.134-0.154,0.191
	c-0.059,0.059-0.122,0.113-0.187,0.164c-0.065,0.053-0.139,0.096-0.217,0.137c-0.073,0.035-0.153,0.068-0.237,0.099
	c-0.08,0.024-0.169,0.049-0.257,0.059c-0.087,0.02-0.175,0.023-0.271,0.023h-1.48h-1.479h-1.479h-1.483h-1.484h-1.479h-1.479h-1.483
	c-0.128,0-0.264-0.005-0.41-0.023c-0.143-0.01-0.297-0.035-0.455-0.063c-0.153-0.024-0.315-0.061-0.476-0.098
	c-0.161-0.037-0.322-0.08-0.479-0.133c-0.158-0.047-0.311-0.098-0.458-0.156c-0.146-0.055-0.285-0.113-0.413-0.176
	c-0.128-0.066-0.249-0.129-0.348-0.201c-0.014-0.01-0.021-0.018-0.034-0.027v-1.063v-1.451v-1.453v-1.453v-1.45v-1.453V12.73v-0.955
	l0.044-0.021l0.161-0.082l0.162-0.08l0.161-0.079l0.161-0.082l0.162-0.08c0.021-0.011,0.036-0.019,0.058-0.031
	c0.022-0.012,0.037-0.023,0.055-0.037c0.018-0.016,0.037-0.025,0.055-0.041l0.048-0.047c0.015-0.016,0.029-0.033,0.044-0.049
	c0.015-0.019,0.029-0.035,0.041-0.056c0.015-0.018,0.026-0.039,0.037-0.059c0.011-0.018,0.022-0.039,0.029-0.059l0.487-1.052
	l0.484-1.047l0.483-1.051l0.487-1.047l0.483-1.053l0.484-1.048l0.483-1.047l0.484-1.051c0.007-0.016,0.014-0.024,0.018-0.041
	c0.003-0.016,0.011-0.024,0.015-0.039c0.004-0.016,0.008-0.029,0.012-0.041c0.006-0.016,0.006-0.028,0.014-0.045
	c0-0.014,0.003-0.024,0.003-0.039c0.004-0.016,0.008-0.029,0.008-0.045c0-0.014,0.004-0.029,0.004-0.043V2.244V1.736v-0.51V0.716
	V0.209v-0.51v-0.508v-0.51v-0.511l0.109-0.055c0.037-0.018,0.077-0.033,0.121-0.051c0.04-0.017,0.081-0.033,0.128-0.047
	c0.044-0.017,0.092-0.029,0.14-0.045c0.047-0.015,0.095-0.025,0.146-0.037c0.051-0.011,0.106-0.021,0.158-0.029
	c0.055-0.006,0.106-0.014,0.165-0.018c0.055-0.005,0.113-0.009,0.172-0.009c0.073,0,0.165,0.025,0.274,0.078
	c0.107,0.051,0.228,0.123,0.352,0.215c0.128,0.097,0.264,0.214,0.403,0.345c0.135,0.137,0.271,0.287,0.407,0.455
	c0.132,0.168,0.26,0.354,0.377,0.553c0.121,0.197,0.227,0.406,0.315,0.631c0.091,0.223,0.169,0.453,0.216,0.695
	c0.051,0.241,0.081,0.494,0.081,0.746c0,0.268-0.019,0.551-0.048,0.836c-0.029,0.289-0.074,0.586-0.128,0.883
	c-0.051,0.293-0.113,0.59-0.179,0.879c-0.07,0.289-0.143,0.566-0.212,0.838c-0.077,0.268-0.15,0.521-0.224,0.754
	c-0.069,0.23-0.135,0.439-0.197,0.627c-0.063,0.185-0.114,0.336-0.158,0.457c-0.043,0.117-0.072,0.205-0.087,0.246v0.004h-0.003
	v0.004c-0.011,0.029-0.022,0.063-0.026,0.092c-0.011,0.031-0.018,0.064-0.018,0.095c-0.008,0.033-0.008,0.065-0.008,0.1
	c0,0.029,0,0.063,0.008,0.096c0,0.029,0.007,0.063,0.015,0.093c0.007,0.03,0.019,0.061,0.029,0.094
	c0.011,0.029,0.025,0.059,0.036,0.088c0.018,0.029,0.033,0.055,0.055,0.084c0.015,0.027,0.037,0.053,0.059,0.078
	c0.023,0.021,0.044,0.043,0.07,0.065c0.021,0.021,0.048,0.044,0.077,0.062c0.021,0.02,0.051,0.033,0.08,0.049
	c0.029,0.014,0.058,0.029,0.087,0.039c0.029,0.012,0.059,0.021,0.092,0.029c0.033,0.008,0.062,0.012,0.095,0.02
	c0.029,0,0.062,0.004,0.095,0.004h1.114h1.106h1.113h1.11h1.113h1.106h1.113h1.106c0.128,0,0.249,0.011,0.37,0.033
	c0.117,0.021,0.234,0.051,0.341,0.09c0.109,0.041,0.22,0.092,0.319,0.146c0.099,0.059,0.193,0.125,0.278,0.199
	c0.088,0.067,0.168,0.149,0.238,0.237c0.073,0.084,0.135,0.176,0.19,0.271c0.051,0.1,0.095,0.201,0.128,0.309
	c0.033,0.105,0.055,0.215,0.066,0.33c0.008,0.084,0.011,0.168,0.004,0.248c-0.004,0.084-0.011,0.168-0.029,0.246
	c-0.015,0.084-0.033,0.16-0.062,0.238c-0.026,0.075-0.056,0.151-0.091,0.227c-0.037,0.068-0.081,0.139-0.125,0.209
	c-0.048,0.064-0.099,0.131-0.154,0.189c-0.059,0.063-0.117,0.116-0.183,0.172c-0.062,0.055-0.131,0.104-0.205,0.146
	c-0.029,0.023-0.059,0.041-0.088,0.063c-0.029,0.024-0.052,0.049-0.077,0.074c-0.025,0.024-0.043,0.055-0.07,0.084
	c-0.014,0.024-0.036,0.055-0.051,0.088c-0.018,0.028-0.029,0.063-0.044,0.096c-0.014,0.031-0.021,0.064-0.029,0.098
	c-0.007,0.037-0.014,0.07-0.018,0.107c-0.003,0.035-0.003,0.068-0.003,0.104c0,0.037,0.007,0.07,0.015,0.105
	c0.004,0.037,0.011,0.07,0.022,0.104c0.011,0.034,0.021,0.066,0.041,0.099c0.01,0.033,0.029,0.063,0.047,0.092
	c0.019,0.029,0.04,0.059,0.066,0.084c0.021,0.027,0.044,0.053,0.069,0.078c0.026,0.021,0.055,0.043,0.084,0.065
	c0.025,0.019,0.059,0.039,0.091,0.056c0.063,0.033,0.121,0.067,0.176,0.104c0.055,0.041,0.106,0.08,0.157,0.125
	c0.048,0.043,0.095,0.097,0.136,0.144c0.041,0.055,0.081,0.104,0.117,0.162c0.033,0.055,0.062,0.112,0.091,0.172
	c0.026,0.061,0.048,0.123,0.066,0.186c0.019,0.063,0.033,0.129,0.041,0.195c0.011,0.063,0.015,0.135,0.015,0.201
	c0,0.092-0.008,0.18-0.026,0.268c-0.014,0.088-0.04,0.176-0.073,0.256c-0.033,0.08-0.07,0.16-0.114,0.23
	c-0.047,0.076-0.099,0.146-0.158,0.209c-0.059,0.065-0.121,0.125-0.19,0.18c-0.07,0.051-0.143,0.099-0.22,0.14
	c-0.077,0.04-0.161,0.075-0.249,0.1c-0.085,0.029-0.176,0.047-0.264,0.059C-13.081,15.633-13.117,15.641-13.157,15.648z
	 M-34.181,24.684h-0.484h-0.487h-0.483h-0.484h-0.484h-0.483h-0.487h-0.484c-0.121,0-0.241-0.017-0.359-0.037
	c-0.113-0.025-0.227-0.06-0.333-0.107c-0.106-0.043-0.205-0.098-0.3-0.16c-0.095-0.065-0.183-0.139-0.264-0.221
	c-0.081-0.08-0.154-0.168-0.22-0.264c-0.066-0.095-0.121-0.193-0.165-0.299c-0.044-0.111-0.077-0.222-0.103-0.339
	c-0.025-0.112-0.036-0.233-0.036-0.358V21.61v-1.29v-1.293v-1.291v-1.289v-1.293v-1.289v-1.289c0-0.125,0.011-0.246,0.036-0.359
	c0.026-0.116,0.059-0.229,0.103-0.338c0.044-0.104,0.099-0.205,0.165-0.299c0.066-0.096,0.139-0.184,0.22-0.264
	c0.081-0.082,0.168-0.154,0.264-0.221c0.096-0.063,0.194-0.117,0.3-0.164c0.106-0.046,0.22-0.078,0.333-0.104
	c0.118-0.025,0.238-0.035,0.359-0.035h0.707h0.711h0.703h0.707h0.707h0.707h0.708h0.706v0.062v0.063v0.06v0.063V11.1v0.063v0.06
	v0.063c0,0.002,0,0.004,0,0.006v1.443v1.455v1.453v1.45v1.453v1.453v1.451v1.445c0,0.002,0,0.002,0,0.004
	c0,0.125-0.011,0.246-0.036,0.358c-0.026,0.117-0.059,0.228-0.103,0.339c-0.044,0.104-0.099,0.204-0.165,0.299
	c-0.063,0.096-0.139,0.184-0.22,0.264c-0.077,0.082-0.168,0.154-0.264,0.221c-0.095,0.063-0.194,0.117-0.3,0.16
	c-0.106,0.049-0.22,0.082-0.333,0.107C-33.94,24.668-34.061,24.684-34.181,24.684z"/>
<g>
	<path fill="none" stroke="#A9A9A9" stroke-width="1.5" stroke-linecap="round" stroke-linejoin="round" stroke-miterlimit="10" d="
		M-63.65,19.082c0.822-1.438,2.381-2.406,4.163-2.406c2.648,0,4.805,2.146,4.805,4.804c0,2.649-2.156,4.805-4.805,4.805
		c-2.657,0-4.803-2.154-4.803-4.805C-64.291,20.605-64.058,19.791-63.65,19.082z"/>
	<path fill="none" stroke="#A9A9A9" stroke-width="1.5" stroke-linecap="round" stroke-linejoin="round" stroke-miterlimit="10" d="
		M-63.642,3.484c-0.416-0.701-0.648-1.523-0.648-2.398c0-2.655,2.146-4.803,4.803-4.803c2.648,0,4.805,2.146,4.805,4.803
		c0,2.648-2.156,4.806-4.805,4.806C-61.27,5.891-62.819,4.922-63.642,3.484z"/>
	<path fill="none" stroke="#A9A9A9" stroke-width="1.5" stroke-linecap="round" stroke-linejoin="round" stroke-miterlimit="10" d="
		M-73.023,8.885c-0.824-1.438-2.382-2.405-4.165-2.405c-2.649,0-4.803,2.146-4.803,4.805c0,2.648,2.153,4.803,4.803,4.803
		c1.783,0,3.333-0.969,4.156-2.403c0.415-0.701,0.649-1.523,0.649-2.398S-72.618,9.596-73.023,8.885z"/>
	
		<line fill="none" stroke="#A9A9A9" stroke-width="1.5" stroke-linecap="round" stroke-linejoin="round" stroke-miterlimit="10" x1="-73.023" y1="8.885" x2="-63.641" y2="3.484"/>
	
		<line fill="none" stroke="#A9A9A9" stroke-width="1.5" stroke-linecap="round" stroke-linejoin="round" stroke-miterlimit="10" x1="-73.032" y1="13.682" x2="-63.65" y2="19.082"/>
</g>
<path fill="#A9A9A9" d="M140.573,12.371c0,8.324,6.771,15.096,15.093,15.096c3.575,0,6.861-1.258,9.45-3.342l8.936,8.937
	c0.146,0.147,0.341,0.221,0.535,0.221c0.192,0,0.39-0.072,0.537-0.221c0.295-0.299,0.295-0.775,0-1.072l-8.873-8.875
	c2.778-2.738,4.507-6.539,4.507-10.742c0-8.32-6.771-15.09-15.092-15.09S140.573,4.051,140.573,12.371 M142.092,12.371
	c0-7.483,6.09-13.572,13.573-13.572c7.485,0,13.575,6.089,13.575,13.572c0,7.488-6.09,13.578-13.575,13.578
	C148.182,25.949,142.092,19.859,142.092,12.371"/>
<g>
	
		<line fill="none" stroke="#A9A9A9" stroke-width="3" stroke-linecap="round" stroke-linejoin="round" stroke-miterlimit="10" x1="73.461" y1="-3.649" x2="96.461" y2="24.351"/>
	
		<line fill="none" stroke="#A9A9A9" stroke-width="3" stroke-linecap="round" stroke-linejoin="round" stroke-miterlimit="10" x1="96.758" y1="24.647" x2="120.189" y2="-3.735"/>
</g>
<g>
	
		<line fill="none" stroke="#191919" stroke-width="3" stroke-linecap="round" stroke-linejoin="round" stroke-miterlimit="10" x1="-44.877" y1="41.117" x2="-85.026" y2="69.117"/>
	
		<line fill="none" stroke="#191919" stroke-width="3" stroke-linecap="round" stroke-linejoin="round" stroke-miterlimit="10" x1="-85.026" y1="69.117" x2="-44.754" y2="97.828"/>
</g>
<g>
	
		<line fill="none" stroke="#A9A9A9" stroke-width="2" stroke-linecap="round" stroke-linejoin="round" stroke-miterlimit="10" x1="48.683" y1="20.158" x2="60.666" y2="10.314"/>
	
		<line fill="none" stroke="#A9A9A9" stroke-width="2" stroke-linecap="round" stroke-linejoin="round" stroke-miterlimit="10" x1="60.793" y1="10.187" x2="48.646" y2="0.158"/>
</g>
<circle fill="none" stroke="#A9A9A9" stroke-width="1.5" stroke-linecap="round" stroke-miterlimit="10" cx="217.137" cy="-1.276" r="3.5"/>
<circle fill="none" stroke="#A9A9A9" stroke-width="1.5" stroke-linecap="round" stroke-miterlimit="10" cx="217.137" cy="15.638" r="3.5"/>
<circle fill="none" stroke="#A9A9A9" stroke-width="1.5" stroke-linecap="round" stroke-miterlimit="10" cx="217.137" cy="32.552" r="3.5"/>
<g>
	<g>
		<path fill="#A9A9A9" d="M17.5,20.066c-3.615,0-7.367-1.308-11.152-3.89c-3.027-2.063-5.221-4.387-6.024-5.293
			c-0.432-0.483-0.432-1.219,0-1.702C1.128,8.277,3.321,5.952,6.348,3.89C10.133,1.309,13.885,0,17.5,0
			c3.613,0,7.366,1.31,11.15,3.892c3.025,2.063,5.223,4.387,6.024,5.291l0,0c0.433,0.483,0.433,1.219,0,1.702
			c-0.803,0.906-2.998,3.23-6.024,5.294C24.867,18.76,21.113,20.066,17.5,20.066z M17.5,1.207c-7.861,0-14.444,6.717-16.275,8.775
			c-0.025,0.031-0.025,0.072,0,0.102c1.831,2.06,8.414,8.775,16.275,8.775c7.861,0,14.443-6.717,16.273-8.775
			c0.024-0.028,0.024-0.069,0-0.102l0,0C31.943,7.924,25.361,1.207,17.5,1.207z"/>
	</g>
	<g>
		<path fill="#A9A9A9" d="M17.5,17.734c-4.246,0-7.701-3.455-7.701-7.701s3.455-7.699,7.701-7.699s7.7,3.453,7.7,7.699
			S21.747,17.734,17.5,17.734z M17.5,3.539c-3.58,0-6.494,2.912-6.494,6.494c0,3.58,2.914,6.494,6.494,6.494
			s6.493-2.914,6.493-6.494C23.994,6.451,21.081,3.539,17.5,3.539z"/>
	</g>
	<g>
		<path fill="#A9A9A9" d="M17.5,12.955c-1.609,0-2.922-1.313-2.922-2.922c0-1.611,1.313-2.92,2.922-2.92
			c1.609,0,2.92,1.309,2.92,2.92C20.42,11.643,19.109,12.955,17.5,12.955z M17.5,8.32c-0.945,0-1.715,0.768-1.715,1.713
			c0,0.943,0.77,1.713,1.715,1.713c0.945,0,1.714-0.77,1.714-1.713C19.214,9.088,18.445,8.32,17.5,8.32z"/>
	</g>
</g>
<line fill="none" stroke="#191919" stroke-width="2" stroke-linecap="round" stroke-linejoin="round" stroke-miterlimit="10" x1="62.887" y1="89.861" x2="77.684" y2="72.633"/>
<line fill="none" stroke="#191919" stroke-width="2" stroke-linecap="round" stroke-linejoin="round" stroke-miterlimit="10" x1="77.841" y1="72.41" x2="62.841" y2="54.861"/>
<line fill="none" stroke="#191919" stroke-width="2" stroke-linecap="round" stroke-linejoin="round" stroke-miterlimit="10" x1="49.109" y1="89.852" x2="34.311" y2="72.623"/>
<line fill="none" stroke="#191919" stroke-width="2" stroke-linecap="round" stroke-linejoin="round" stroke-miterlimit="10" x1="34.154" y1="72.4" x2="49.154" y2="54.852"/>
<g>
	
		<line fill="none" stroke="#191919" stroke-width="2" stroke-linecap="round" stroke-linejoin="round" stroke-miterlimit="10" x1="11.834" y1="89.352" x2="-2.963" y2="72.123"/>
	
		<line fill="none" stroke="#191919" stroke-width="2" stroke-linecap="round" stroke-linejoin="round" stroke-miterlimit="10" x1="-3.121" y1="71.9" x2="11.879" y2="54.352"/>
	
		<line fill="none" stroke="#191919" stroke-width="2" stroke-linecap="round" stroke-linejoin="round" stroke-miterlimit="10" x1="-11.691" y1="60.852" x2="-11.691" y2="83.053"/>
</g>
<g>
	
		<line fill="none" stroke="#191919" stroke-width="2" stroke-linecap="round" stroke-linejoin="round" stroke-miterlimit="10" x1="104.374" y1="90.054" x2="119.12" y2="72.827"/>
	
		<line fill="none" stroke="#191919" stroke-width="2" stroke-linecap="round" stroke-linejoin="round" stroke-miterlimit="10" x1="119.275" y1="72.604" x2="104.328" y2="55.054"/>
	
		<line fill="none" stroke="#191919" stroke-width="2" stroke-linecap="round" stroke-linejoin="round" stroke-miterlimit="10" x1="127.896" y1="61.353" x2="127.896" y2="83.554"/>
</g>
</svg>
