<?xml version="1.0" encoding="utf-8"?>
<!-- Generator: Adobe Illustrator 15.1.0, SVG Export Plug-In . SVG Version: 6.00 Build 0)  -->
<!DOCTYPE svg PUBLIC "-//W3C//DTD SVG 1.1//EN" "http://www.w3.org/Graphics/SVG/1.1/DTD/svg11.dtd">
<svg version="1.1" id="Layer_1" xmlns="http://www.w3.org/2000/svg" xmlns:xlink="http://www.w3.org/1999/xlink" x="0px" y="0px"
	 width="83.733px" height="73px" viewBox="0 0 83.733 73" enable-background="new 0 0 83.733 73" xml:space="preserve">
<g>
	<defs>
		<rect id="SVGID_1_" width="83.733" height="73"/>
	</defs>
	<clipPath id="SVGID_2_">
		<use xlink:href="#SVGID_1_"  overflow="visible"/>
	</clipPath>
	<path clip-path="url(#SVGID_2_)" fill="#A9A9A9" d="M20.775,31.447C9.32,31.447,0,40.768,0,52.223C0,63.68,9.32,73,20.775,73
		c11.458,0,20.778-9.32,20.778-20.777C41.554,40.768,32.233,31.447,20.775,31.447 M20.775,69.63
		c-9.597,0-17.406-7.808-17.406-17.407c0-9.598,7.809-17.406,17.406-17.406c9.599,0,17.407,7.808,17.407,17.406
		C38.183,61.822,30.375,69.63,20.775,69.63"/>
	<path clip-path="url(#SVGID_2_)" fill="#A9A9A9" d="M20.775,45.021c-3.97,0-7.2,3.231-7.2,7.201c0,3.973,3.23,7.202,7.2,7.202
		c3.973,0,7.203-3.229,7.203-7.202C27.979,48.253,24.749,45.021,20.775,45.021 M20.775,56.055c-2.111,0-3.831-1.719-3.831-3.832
		c0-2.111,1.72-3.83,3.831-3.83c2.114,0,3.834,1.719,3.834,3.83C24.609,54.336,22.889,56.055,20.775,56.055"/>
	<path clip-path="url(#SVGID_2_)" fill="#A9A9A9" d="M83.697,58.601c-0.184-0.908-1.079-1.491-1.987-1.306l-6.534,1.365
		c-0.067,0.014-0.127-0.027-0.146-0.086l-4.534-12.858c-1.379-3.911-5.09-6.542-9.239-6.542h-2.082l0.041-18.784
		c0.006-1.499-0.564-2.911-1.605-3.991c-1.1-1.146-2.65-1.749-4.235-1.749H22.46V9.253C22.46,4.157,18.312,0,13.214,0H7.235
		C6.314,0,5.506,0.717,5.48,1.645C5.459,2.6,6.222,3.375,7.17,3.375h6.044c3.242,0,5.88,2.638,5.88,5.879v20.011
		c0.55-0.04,1.12-0.067,1.684-0.067c9.371,0,17.452,5.634,21.044,13.687h13.979l-0.007,3.726l-0.007,8.94
		c0.551-0.099,1.114-0.146,1.69-0.146s1.141,0.047,1.684,0.146l0.007-8.94v-4.063h2.088c2.725,0,5.156,1.723,6.063,4.295
		l4.528,12.853c0.497,1.418,1.85,2.339,3.308,2.339c0.232,0,0.471-0.025,0.709-0.078l6.528-1.359
		C83.308,60.404,83.891,59.516,83.697,58.601 M55.834,24.684H22.46v-6.661h31.048c0.623,0,1.212,0.246,1.656,0.69
		c0.438,0.444,0.683,1.034,0.676,1.663L55.834,24.684z"/>
	<path clip-path="url(#SVGID_2_)" fill="#A9A9A9" d="M57.478,57.725c-4.212,0-7.638,3.427-7.638,7.639
		c0,4.211,3.426,7.637,7.638,7.637c4.211,0,7.638-3.426,7.638-7.637C65.115,61.151,61.688,57.725,57.478,57.725 M57.478,69.717
		c-2.401,0-4.354-1.953-4.354-4.354c0-2.401,1.953-4.355,4.354-4.355s4.354,1.954,4.354,4.355
		C61.831,67.764,59.879,69.717,57.478,69.717"/>
	<path clip-path="url(#SVGID_2_)" fill="#A9A9A9" d="M57.478,63.929c-0.792,0-1.433,0.643-1.433,1.434
		c0,0.792,0.641,1.434,1.433,1.434s1.433-0.642,1.433-1.434C58.91,64.571,58.27,63.929,57.478,63.929"/>
</g>
</svg>
