<?xml version="1.0" encoding="utf-8"?>
<!-- Generator: Adobe Illustrator 16.0.0, SVG Export Plug-In . SVG Version: 6.00 Build 0)  -->
<!DOCTYPE svg PUBLIC "-//W3C//DTD SVG 1.1//EN" "http://www.w3.org/Graphics/SVG/1.1/DTD/svg11.dtd">
<svg version="1.1" id="Layer_1" xmlns="http://www.w3.org/2000/svg" xmlns:xlink="http://www.w3.org/1999/xlink" x="0px" y="0px"
	 width="160px" height="160px" viewBox="0 0 160 160" enable-background="new 0 0 160 160" xml:space="preserve">
<g>
	<path fill="#B5B5B5" d="M143.57,160H16.432C7.395,160,0,152.606,0,143.569V16.432C0,7.395,7.395,0,16.432,0H143.57
		C152.607,0,160,7.395,160,16.432v127.138C160,152.606,152.607,160,143.57,160z"/>
	<g>
		<g>
			<g>
				<path fill="#FFFFFF" d="M94.377,79.425L65.162,42.453c-0.158-0.199-1.217-1.56-1.652-1.992
					c-1.451-1.461-3.459-2.359-5.666-2.359c-0.613,0-1.73,0.028-3.146,0.213s-4.895,0.552-6.414,3.033L32.836,68.104
					c-0.674,1.168-0.844,2.492-0.586,3.723c0.012,0.078,3.344,16.725,3.344,16.725c0.572,2.852,3.375,4.717,6.227,4.145
					s4.717-3.374,4.145-6.226l-2.971-14.806l6.824-11.822V88.26c0,0.48-14.684,44.499-14.684,44.499
					c-1.369,3.982,0.77,8.36,4.75,9.729c3.982,1.368,8.359-0.77,9.729-4.751l15.725-45.735c0.273-0.793,0.531-3.282,0.531-3.742
					V62.996l-6.188-7.841c-0.281-0.345-0.217-0.851,0.129-1.124c0.344-0.279,0.844-0.216,1.119,0.125l25.148,31.826
					c1.805,2.282,5.146,2.674,7.43,0.871C95.789,85.05,96.182,81.707,94.377,79.425z"/>
			</g>
			<g>
				<path fill="#FFFFFF" d="M66.793,92.706l-7.168,20.85l9.463,24.807c1.389,3.628,5.49,5.465,9.117,4.077
					c3.627-1.381,5.465-5.481,4.076-9.109L66.793,92.706z"/>
			</g>
		</g>
		<circle fill="#FFFFFF" cx="56.774" cy="25.93" r="9.362"/>
		<g>
			<g>
				<path fill="#FFFFFF" d="M126.262,143.435c-0.551,0-1.088-0.285-1.387-0.795l-30.75-52.566c-0.447-0.765-0.189-1.749,0.576-2.195
					c0.766-0.448,1.748-0.189,2.195,0.575l30.75,52.565c0.447,0.765,0.189,1.749-0.576,2.196
					C126.816,143.363,126.537,143.435,126.262,143.435z"/>
			</g>
		</g>
	</g>
</g>
</svg>
