<?xml version="1.0" encoding="utf-8"?>
<!-- Generator: Adobe Illustrator 16.0.0, SVG Export Plug-In . SVG Version: 6.00 Build 0)  -->
<!DOCTYPE svg PUBLIC "-//W3C//DTD SVG 1.1//EN" "http://www.w3.org/Graphics/SVG/1.1/DTD/svg11.dtd">
<svg version="1.1" id="Layer_1" xmlns="http://www.w3.org/2000/svg" xmlns:xlink="http://www.w3.org/1999/xlink" x="0px" y="0px"
	 width="160px" height="160px" viewBox="0 0 160 160" enable-background="new 0 0 160 160" xml:space="preserve">
<g>
	<path fill="#003984" d="M143.569,160H16.432c-9.037,0-16.431-7.395-16.431-16.432V16.432C0.001,7.395,7.395,0,16.432,0h127.137
		C152.606,0,160,7.395,160,16.432v127.137C160,152.605,152.606,160,143.569,160z"/>
	<g>
		<g>
			<circle fill="#FFFFFF" cx="80.404" cy="29.935" r="5.676"/>
			<circle fill="#FFFFFF" cx="96.464" cy="29.935" r="5.676"/>
			<circle fill="#FFFFFF" cx="112.524" cy="29.935" r="5.675"/>
		</g>
		<g>
			<path fill="#FFFFFF" d="M106.968,57.215L106.968,57.215c-3.031,0-5.51,2.479-5.51,5.511v5.155c0,0.87-0.705,1.575-1.576,1.575
				h-0.104c-0.87,0-1.575-0.705-1.575-1.575v-7.529c0-2.798-1.996-5.301-4.769-5.668c-3.356-0.444-6.251,2.187-6.251,5.461v7.736
				c0,0.87-0.705,1.575-1.575,1.575h-0.104c-0.87,0-1.576-0.705-1.576-1.575v-10.11c0-2.798-1.996-5.301-4.769-5.668
				c-3.356-0.444-6.251,2.187-6.251,5.461v10.317c0,0.87-0.705,1.575-1.575,1.575h-0.104c-0.87,0-1.575-0.705-1.575-1.575V29.976
				c0-2.797-1.997-5.301-4.77-5.667c-3.356-0.445-6.251,2.187-6.251,5.46v50.275v0.536v4.831c0,0-0.032,2.145-1.135,2.145
				s-4.287-5.236-5.293-12.276c-1.006-7.041-1.844-10.142-4.191-11.65c-2.347-1.509-5.515-1.467-6.09-0.839
				c-0.575,0.628,1.09,20.367,1.09,20.367s0.894,30.938,21.404,30.938h4.805h2.314h27.672c8.565,0,13.271-6.017,13.271-11.93v-17.19
				v-4.931V62.726C112.478,59.694,109.998,57.215,106.968,57.215z"/>
			<path fill="#FFFFFF" d="M103.749,138.586H62.065c-2.098,0-3.799-1.701-3.799-3.799v-11.064c0-2.099,1.701-3.799,3.799-3.799
				h41.684c2.099,0,3.8,1.7,3.8,3.799v11.064C107.549,136.885,105.848,138.586,103.749,138.586z"/>
		</g>
	</g>
</g>
</svg>
