<?xml version="1.0" encoding="utf-8"?>
<!-- Generator: Adobe Illustrator 15.1.0, SVG Export Plug-In . SVG Version: 6.00 Build 0)  -->
<!DOCTYPE svg PUBLIC "-//W3C//DTD SVG 1.1//EN" "http://www.w3.org/Graphics/SVG/1.1/DTD/svg11.dtd">
<svg version="1.1" id="Layer_1" xmlns="http://www.w3.org/2000/svg" xmlns:xlink="http://www.w3.org/1999/xlink" x="0px" y="0px"
	 width="160px" height="160px" viewBox="0 0 160 160" enable-background="new 0 0 160 160" xml:space="preserve">
<g>
	<g>
		<path fill="#213F7F" d="M143.537,160H16.4c-9.037,0-16.432-7.395-16.432-16.432V16.431C-0.032,7.394,7.363,0,16.4,0h127.137
			c9.037,0,16.432,7.394,16.432,16.431v127.137C159.969,152.605,152.574,160,143.537,160z"/>
		<g>
			<path fill="#FFFFFF" d="M73.865,20.24l-13.198-9.033c-0.007-0.005-0.016-0.008-0.023-0.013c-0.105-0.07-0.217-0.124-0.33-0.179
				c-0.064-0.032-0.125-0.071-0.191-0.098c-0.083-0.033-0.17-0.053-0.255-0.078c-0.097-0.029-0.192-0.065-0.29-0.084
				c-0.078-0.015-0.158-0.015-0.236-0.024c-0.103-0.011-0.204-0.029-0.307-0.029c-0.003,0-0.005-0.001-0.009-0.001
				c-0.003,0-0.006,0.001-0.009,0.001c-0.103,0-0.205,0.019-0.307,0.029c-0.079,0.009-0.158,0.009-0.236,0.024
				c-0.099,0.019-0.194,0.055-0.29,0.084c-0.086,0.025-0.173,0.045-0.256,0.078c-0.065,0.027-0.127,0.066-0.191,0.098
				c-0.112,0.055-0.224,0.109-0.329,0.179c-0.008,0.005-0.016,0.008-0.023,0.013L44.187,20.24c-1.321,0.904-1.663,2.726-0.758,4.047
				c0.904,1.322,2.726,1.663,4.047,0.758l8.638-5.912v20.421c0,1.602,1.311,2.912,2.912,2.912c1.602,0,2.912-1.311,2.912-2.912
				V19.134l8.638,5.912c1.322,0.904,3.143,0.563,4.048-0.758C75.528,22.966,75.187,21.145,73.865,20.24z"/>
			<path fill="#FFFFFF" d="M86.071,32.928l13.197,9.033c0.008,0.005,0.017,0.008,0.023,0.013c0.105,0.07,0.218,0.124,0.329,0.179
				c0.064,0.032,0.126,0.071,0.191,0.098c0.084,0.034,0.17,0.053,0.256,0.079c0.097,0.029,0.191,0.064,0.29,0.083
				c0.077,0.015,0.157,0.015,0.236,0.024c0.103,0.011,0.204,0.029,0.308,0.029c0.002,0,0.006,0.001,0.008,0.001
				c0.004,0,0.006-0.001,0.01-0.001c0.102,0,0.204-0.019,0.307-0.029c0.078-0.009,0.158-0.009,0.236-0.024
				c0.098-0.019,0.193-0.055,0.289-0.083c0.086-0.026,0.174-0.045,0.256-0.079c0.066-0.026,0.128-0.066,0.191-0.098
				c0.113-0.055,0.225-0.109,0.33-0.179c0.008-0.005,0.016-0.008,0.023-0.013l13.197-9.033c1.321-0.904,1.663-2.726,0.758-4.047
				c-0.904-1.322-2.726-1.663-4.047-0.758l-8.639,5.913V13.613c0-1.602-1.311-2.912-2.912-2.912s-2.912,1.311-2.912,2.912v20.422
				l-8.638-5.913c-1.321-0.904-3.143-0.563-4.048,0.758C84.408,30.202,84.75,32.023,86.071,32.928z"/>
		</g>
		<g>
			<g>
				<path fill="#FFFFFF" d="M115.004,145.021H44.933c-6.666,0-12.088-5.422-12.088-12.088v-70.07
					c0-6.665,5.422-12.088,12.088-12.088h70.071c6.665,0,12.088,5.423,12.088,12.088v70.07
					C127.092,139.6,121.669,145.021,115.004,145.021z M44.933,56.838c-3.322,0-6.024,2.703-6.024,6.025v70.07
					c0,3.322,2.703,6.025,6.024,6.025h70.071c3.322,0,6.024-2.703,6.024-6.025v-70.07c0-3.322-2.702-6.025-6.024-6.025H44.933z"/>
			</g>
		</g>
	</g>
	<g>
		<path fill="#FFFFFF" d="M56.472,96.643c-0.624,0.586-1.387,0.916-2.657,0.908c-1.858-0.012-2.68-1.926-2.564-3.504
			c0.074-1.006,0.716-1.695,1.263-2.484c1.688-2.436,3.204-4.994,4.935-7.4c1.371-1.906,2.887-3.484,5.205-4.125
			c0.913-0.253,1.792-0.561,2.69-0.873c3.161-1.1,6.342-2.17,9.577-3.036c1.688-0.453,3.604-1.225,5.272-0.329
			c1.251,0.673,2.397,2.139,2.124,3.669c0,0-2.771,15.481-2.771,15.481c3.781,0.729,7.563,1.461,11.345,2.189
			c1.277,0.246,2.684,0.377,3.756,1.189c1.146,0.871,1.691,2.311,2.402,3.512c0.709,1.201,1.423,2.404,2.142,3.602
			c1.837,3.061,3.604,6.164,5.438,9.227c0.074,0.125,1.281,2.156,1.275,2.16c0.995-0.59,2.062-1.477,3.256-1.541
			c1.396-0.074,2.611,0.738,2.994,2.035c0.623,2.104-0.193,3.072-1.795,4.072c-1.6,0.996-3.206,1.994-4.814,2.979
			c-1.781,1.09-3.4,1.162-4.651-0.824c-2.557-4.197-5.113-8.393-7.67-12.59c-0.704-1.156-1.405-2.313-2.112-3.467
			c-2.355-0.461-4.701-0.977-7.051-1.467c-3.706-0.771-7.41-1.547-11.116-2.318c-1.658-0.346-3.313-0.514-4.562-1.76
			c-2.326-2.322-1.88-4.695-1.316-7.518c0.532-2.662,1.01-5.338,1.514-8.006c0.035-0.188,0.193-1.922,0.371-1.984l-5.378,1.873
			c-1.879,2.799-3.755,5.6-5.637,8.396C57.407,95.5,56.988,96.158,56.472,96.643z"/>
		<circle fill="#FFFFFF" cx="80.543" cy="68.315" r="6.416"/>
		<g>
			<path fill="#FFFFFF" d="M74.591,133.898c-11.984,0-21.734-9.75-21.734-21.734c0-8.051,4.667-15.654,11.778-19.443l-0.647,6.146
				c-3.817,4.154-6.144,7.094-6.144,13.297c0,9.234,7.513,16.748,16.748,16.748s17.247-7.762,17.247-16.998l3.607,5.807
				C92.918,126.543,86.576,133.898,74.591,133.898z"/>
		</g>
	</g>
</g>
</svg>
