<?xml version="1.0" encoding="utf-8"?>
<!-- Generator: Adobe Illustrator 16.0.0, SVG Export Plug-In . SVG Version: 6.00 Build 0)  -->
<!DOCTYPE svg PUBLIC "-//W3C//DTD SVG 1.1//EN" "http://www.w3.org/Graphics/SVG/1.1/DTD/svg11.dtd">
<svg version="1.1" id="Layer_1" xmlns="http://www.w3.org/2000/svg" xmlns:xlink="http://www.w3.org/1999/xlink" x="0px" y="0px"
	 width="160px" height="160px" viewBox="0 0 160 160" enable-background="new 0 0 160 160" xml:space="preserve">
<g>
	<path fill="#B5B5B5" d="M143.568,160H16.432C7.395,160,0,152.605,0,143.568V16.432C0,7.395,7.395,0,16.432,0h127.137
		C152.605,0,160,7.395,160,16.432v127.137C160,152.605,152.605,160,143.568,160z"/>
	<g>
		<g>
			<g>
				<path fill="#FFFFFF" d="M76.389,127.482c-10.666,0-14.823-9.098-15.531-13.908c-0.338-2.301,1.25-4.438,3.55-4.777
					c2.287-0.328,4.436,1.252,4.774,3.551c0.18,1.096,1.399,6.721,7.207,6.721c5.871,0,8.736-4.85,8.971-9.66l0.08-1.917
					c0.257-6.661,0.707-10.49,7.501-18.08c5.667-6.327,6.328-15.624,5.415-19.998c-0.039-0.184-4.665-18.497-22.29-17.664
					c-14.646,0.704-17.522,17.79-17.55,17.962c-0.364,2.292-2.515,3.859-4.814,3.495c-2.295-0.364-3.859-2.52-3.496-4.815
					c1.318-8.302,8.332-24.224,25.455-25.045c20.97-1.016,29.545,17.71,30.932,24.347c1.119,5.352,1.015,17.954-7.382,27.332
					c-5.089,5.684-5.151,7.33-5.362,12.791l-0.086,2.003C93.265,120.055,85.958,127.482,76.389,127.482z"/>
			</g>
			<g>
				<path fill="#FFFFFF" d="M70.925,95.041"/>
			</g>
			<g>
				<path fill="#FFFFFF" d="M91.721,74.04c-1.095,0-2.065-0.778-2.271-1.893l-0.177-0.882c-0.051-0.252-2.616-10.334-12.278-9.858
					c-8.046,0.386-9.628,9.773-9.643,9.866c-0.2,1.263-1.378,2.125-2.646,1.922c-1.26-0.202-2.12-1.386-1.921-2.646
					c0.724-4.563,4.578-13.309,13.987-13.761c11.484-0.512,16.232,9.734,16.995,13.377l0.229,1.142
					c0.231,1.257-0.6,2.462-1.855,2.692C92,74.029,91.858,74.04,91.721,74.04z"/>
			</g>
			<g>
				<g>
					<circle fill="#FFFFFF" cx="78.332" cy="76.048" r="4.32"/>
				</g>
				<g>
					<circle fill="#FFFFFF" cx="67.486" cy="83.794" r="4.32"/>
				</g>
				<g>
					<circle fill="#FFFFFF" cx="48.231" cy="97.548" r="4.32"/>
				</g>
				<g>
					<circle fill="#FFFFFF" cx="37.384" cy="105.294" r="4.32"/>
				</g>
				<g>
					<g>
						<path fill="#FFFFFF" d="M59,97.691l-7.413-10.377c-0.927-1.299-0.626-3.103,0.672-4.029c1.298-0.928,3.102-0.627,4.029,0.672
							L63.7,94.334c0.927,1.299,0.626,3.103-0.672,4.029C61.73,99.291,59.927,98.99,59,97.691z"/>
					</g>
				</g>
			</g>
		</g>
		<g>
			<g>
				<path fill="#FFFFFF" d="M115.596,69.191c-1.146,0-2.097-0.909-2.137-2.064c-0.303-8.626-4.755-16.563-11.908-21.23
					c-0.991-0.646-1.27-1.972-0.623-2.962c0.645-0.989,1.974-1.266,2.96-0.623c8.32,5.428,13.497,14.648,13.849,24.665
					c0.041,1.181-0.883,2.172-2.063,2.213C115.647,69.191,115.621,69.191,115.596,69.191z"/>
			</g>
			<g>
				<path fill="#FFFFFF" d="M124.794,70.789c-1.146,0-2.096-0.909-2.137-2.065c-0.46-13.112-7.229-25.178-18.107-32.275
					c-0.99-0.646-1.27-1.971-0.623-2.961c0.645-0.99,1.973-1.267,2.961-0.624c12.045,7.858,19.539,21.207,20.047,35.71
					c0.042,1.181-0.882,2.172-2.063,2.213C124.845,70.788,124.819,70.789,124.794,70.789z"/>
			</g>
		</g>
	</g>
</g>
</svg>
