<?xml version="1.0" encoding="utf-8"?>
<!-- Generator: Adobe Illustrator 16.0.0, SVG Export Plug-In . SVG Version: 6.00 Build 0)  -->
<!DOCTYPE svg PUBLIC "-//W3C//DTD SVG 1.1//EN" "http://www.w3.org/Graphics/SVG/1.1/DTD/svg11.dtd">
<svg version="1.1" id="Layer_1" xmlns="http://www.w3.org/2000/svg" xmlns:xlink="http://www.w3.org/1999/xlink" x="0px" y="0px"
	 width="160px" height="160px" viewBox="0 0 160 160" enable-background="new 0 0 160 160" xml:space="preserve">
<g>
	<path fill="#FFFFFF" d="M140.664,7.749H19.335c-3.183,0-6.078,1.304-8.18,3.406c-2.102,2.102-3.406,4.997-3.406,8.18v121.33
		c0,3.183,1.305,6.078,3.406,8.179c2.102,2.103,4.997,3.407,8.18,3.407h121.329c3.183,0,6.078-1.305,8.18-3.407
		c2.102-2.101,3.406-4.996,3.406-8.179V19.335c0-3.183-1.305-6.078-3.406-8.179C146.742,9.054,143.847,7.749,140.664,7.749z"/>
	<path fill="#003984" d="M19.335,0h121.329c5.322,0,10.156,2.174,13.659,5.677C157.826,9.179,160,14.015,160,19.335v121.33
		c0,5.321-2.174,10.156-5.677,13.658c-3.503,3.503-8.337,5.677-13.659,5.677H19.335c-5.321,0-10.155-2.174-13.658-5.677
		C2.174,150.821,0,145.985,0,140.665V19.335c0-5.32,2.174-10.156,5.677-13.658C9.18,2.174,14.014,0,19.335,0z"/>
	<path fill-rule="evenodd" clip-rule="evenodd" fill="#FFFFFF" d="M38.924,89.703c4.018,0,7.273,3.256,7.273,7.272
		c0,4.018-3.256,7.273-7.273,7.273c-4.016,0-7.272-3.256-7.272-7.273C31.651,92.959,34.908,89.703,38.924,89.703 M92.012,45.358
		c3.604-4.177,10.574-3.825,14.862-0.353c4.417,3.578,14.862,13.359,14.86,13.358c4.867,5.259,9.757,26.324,12.088,34.08
		c-2.955-0.128-6.703-0.216-11.242-0.264v36.049c0,2.552-2.088,4.64-4.641,4.64l0,0c-2.551,0-4.64-2.088-4.64-4.64V92.139
		c-3.569,0.001-7.472,0.02-11.704,0.056l4.764-13.042c1.458-3.428,2.966-6.342-0.031-8.768l-8.254-6.688v7.796
		c0,0.814-0.264,1.569-0.708,2.188c-0.677,1-1.822,1.661-3.114,1.661h-21.5c-2.066,0-3.758-1.692-3.758-3.759
		c0-2.067,1.691-3.759,3.758-3.759h17.806V54.321C90.558,51.723,90.227,47.428,92.012,45.358z M26.178,107.688h60.316v5.017H26.178
		V107.688z M92.273,31.021c-2.701-3.734-7.805-5.015-12.005-2.81c-4.607,2.418-6.383,8.112-3.965,12.721
		c2.417,4.607,8.113,6.382,12.722,3.964c2.963-1.555,4.755-4.466,5.012-7.572 M56.166,90.143h10.158
		c0-1.693-0.063-3.403-0.063-5.079c0-0.947,0.395-1.807,1.026-2.422c0.616-0.632,1.476-1.026,2.423-1.026
		c4.438,0,8.905,0.063,13.354,0.063c1.862,0,3.387,1.524,3.387,3.386c0,1.862-1.524,3.386-3.387,3.386h-9.969
		c0,3.656-0.063,7.327-0.063,10.974c0,2.758-2.257,5.015-5.016,5.015H54.6c-2.76,0-5.016-2.257-5.016-5.015
		c0-5.706-0.189-11.495-0.189-17.244c0-1.861,1.523-3.386,3.387-3.386c1.861,0,3.385,1.524,3.385,3.386V90.143z"/>
	<circle fill-rule="evenodd" clip-rule="evenodd" fill="#FFFFFF" cx="84.585" cy="36.438" r="9.562"/>
</g>
</svg>
