<?xml version="1.0" encoding="utf-8"?>
<!-- Generator: Adobe Illustrator 15.1.0, SVG Export Plug-In . SVG Version: 6.00 Build 0)  -->
<!DOCTYPE svg PUBLIC "-//W3C//DTD SVG 1.1//EN" "http://www.w3.org/Graphics/SVG/1.1/DTD/svg11.dtd">
<svg version="1.1" id="Layer_1" xmlns="http://www.w3.org/2000/svg" xmlns:xlink="http://www.w3.org/1999/xlink" x="0px" y="0px"
	 width="160px" height="160px" viewBox="0 0 160 160" enable-background="new 0 0 160 160" xml:space="preserve">
<g>
	<path fill="#213F7F" d="M143.568,160H16.432C7.395,160,0,152.605,0,143.569V16.432C0,7.395,7.395,0,16.432,0h127.137
		C152.605,0,160,7.395,160,16.432v127.138C160,152.605,152.605,160,143.568,160z"/>
	<g>
		<path fill="#FFFFFF" d="M26.11,94.646c-0.894,0.839-1.985,1.31-3.803,1.3c-2.657-0.018-3.834-2.758-3.669-5.015
			c0.106-1.437,1.025-2.423,1.808-3.553c2.414-3.485,4.582-7.144,7.058-10.587c1.962-2.728,4.131-4.983,7.446-5.901
			c1.308-0.362,2.565-0.802,3.851-1.247c4.521-1.574,9.072-3.105,13.699-4.344c2.415-0.646,5.155-1.752,7.542-0.47
			c1.79,0.963,3.43,3.061,3.039,5.249c0,0.001-3.965,22.147-3.965,22.147c5.409,1.043,10.82,2.09,16.23,3.132
			c1.827,0.352,3.839,0.539,5.373,1.702c1.64,1.245,2.42,3.305,3.437,5.024c1.015,1.717,2.035,3.439,3.063,5.151
			c2.628,4.378,5.157,8.817,7.78,13.2c0.106,0.176,1.833,3.082,1.824,3.088c1.424-0.844,2.949-2.111,4.658-2.203
			c1.998-0.107,3.735,1.055,4.283,2.91c0.892,3.01-0.276,4.396-2.567,5.826c-2.288,1.426-4.587,2.853-6.888,4.262
			c-2.548,1.559-4.864,1.662-6.654-1.18c-3.657-6.004-7.314-12.008-10.972-18.012c-1.008-1.652-2.011-3.307-3.022-4.958
			c-3.369-0.661-6.725-1.397-10.086-2.098c-5.301-1.105-10.601-2.213-15.901-3.318c-2.372-0.495-4.741-0.733-6.526-2.517
			c-3.328-3.323-2.689-6.717-1.882-10.754c0.761-3.81,1.444-7.637,2.167-11.454c0.05-0.267,0.274-2.749,0.53-2.839l-7.694,2.681
			c-2.688,4.003-5.37,8.011-8.064,12.011C27.445,93.011,26.848,93.952,26.11,94.646z"/>
		<circle fill="#FFFFFF" cx="60.544" cy="54.122" r="9.179"/>
		<g>
			<path fill="#FFFFFF" d="M52.029,147.942c-17.145,0-31.093-13.948-31.093-31.092c0-11.518,6.677-22.396,16.85-27.814l-0.926,8.793
				c-5.461,5.941-8.789,10.146-8.789,19.021c0,13.211,10.747,23.959,23.958,23.959c13.21,0,24.673-11.105,24.673-24.316l5.16,8.305
				C78.247,137.421,69.175,147.942,52.029,147.942z"/>
		</g>
	</g>
	<g>
		<path fill="#FFFFFF" d="M91.539,31.484h-2.541c-0.507,0-0.923,0.369-0.923,0.823v6.789c0,0.453,0.416,0.821,0.923,0.821h2.541
			c0.505,0,0.922-0.368,0.922-0.821v-6.789C92.461,31.854,92.044,31.484,91.539,31.484"/>
		<path fill="#FFFFFF" d="M144.201,31.484h-2.539c-0.508,0-0.923,0.369-0.923,0.823v6.789c0,0.453,0.415,0.821,0.923,0.821h2.539
			c0.508,0,0.924-0.368,0.924-0.821v-6.789C145.125,31.854,144.709,31.484,144.201,31.484"/>
		<path fill="#FFFFFF" d="M93.632,19.464v42.028c0,1.106,0.8,2.057,1.923,2.442v2.414c0,0.425,0.394,0.772,0.872,0.772h5.145
			c0.478,0,0.87-0.348,0.87-0.772v-2.231h28.318v2.231c0,0.425,0.392,0.772,0.868,0.772h5.146c0.479,0,0.871-0.348,0.871-0.772
			v-2.414c1.124-0.386,1.923-1.336,1.923-2.442V19.464C139.567,13.303,93.632,13.818,93.632,19.464 M103.448,18.837
			c0-0.484,0.443-0.878,0.985-0.878h24.443c0.542,0,0.984,0.394,0.984,0.878v2.047c0,0.481-0.442,0.875-0.984,0.875h-24.443
			c-0.542,0-0.985-0.394-0.985-0.875V18.837z M100.027,59.079c-1.497,0-2.709-1.079-2.709-2.411c0-1.331,1.212-2.41,2.709-2.41
			c1.494,0,2.704,1.079,2.704,2.41C102.731,58,101.521,59.079,100.027,59.079 M123.137,61.672c0,0.381-0.352,0.695-0.78,0.695
			h-11.514c-0.427,0-0.779-0.314-0.779-0.695v-1.096c0-0.38,0.353-0.692,0.779-0.692h11.514c0.429,0,0.78,0.313,0.78,0.692V61.672z
			 M133.825,59.884c-1.496,0-2.705-1.081-2.705-2.411c0-1.332,1.209-2.412,2.705-2.412s2.707,1.08,2.707,2.412
			C136.532,58.803,135.321,59.884,133.825,59.884 M137.763,48.188c0,0.883-0.815,1.523-1.804,1.606
			c-12.789,1.083-25.491,1.254-38.062,0c-0.984-0.098-1.805-0.724-1.805-1.606v-20.9c0-0.884,0.813-1.607,1.805-1.607h38.062
			c0.991,0,1.804,0.724,1.804,1.607V48.188z"/>
	</g>
</g>
</svg>
