<?xml version="1.0" encoding="utf-8"?>
<!-- Generator: Adobe Illustrator 15.1.0, SVG Export Plug-In . SVG Version: 6.00 Build 0)  -->
<!DOCTYPE svg PUBLIC "-//W3C//DTD SVG 1.1//EN" "http://www.w3.org/Graphics/SVG/1.1/DTD/svg11.dtd">
<svg version="1.1" id="Layer_1" xmlns="http://www.w3.org/2000/svg" xmlns:xlink="http://www.w3.org/1999/xlink" x="0px" y="0px"
	 width="160px" height="160px" viewBox="0 0 160 160" enable-background="new 0 0 160 160" xml:space="preserve">
<g>
	<path fill="#B5B6B6" d="M143.568,160H16.431C7.394,160,0,152.605,0,143.568V16.431C0,7.394,7.394,0,16.431,0h127.137
		C152.605,0,160,7.394,160,16.431v127.137C160,152.605,152.605,160,143.568,160z"/>
	<g>
		<polygon fill="#FFFFFF" points="13.352,142.603 146.647,107.344 146.647,142.603 		"/>
	</g>
	<g>
		<path fill="#FFFFFF" d="M46.844,66.115c-0.892,0.839-1.984,1.31-3.801,1.3c-2.658-0.017-3.834-2.757-3.669-5.015
			c0.105-1.437,1.024-2.423,1.807-3.553c2.415-3.485,4.583-7.144,7.06-10.586c1.961-2.728,4.13-4.984,7.445-5.902
			c1.307-0.362,2.564-0.801,3.85-1.248c4.521-1.574,9.072-3.105,13.699-4.343c2.416-0.647,5.155-1.752,7.543-0.47
			c1.789,0.963,3.43,3.061,3.037,5.25c0,0-3.963,22.147-3.963,22.147c5.41,1.043,10.819,2.09,16.23,3.131
			c1.828,0.352,3.838,0.54,5.372,1.703c1.642,1.245,2.421,3.305,3.437,5.024c1.016,1.717,2.036,3.439,3.064,5.151
			c2.629,4.378,5.157,8.817,7.781,13.2c0.105,0.177,1.832,3.082,1.823,3.088c1.423-0.843,2.949-2.11,4.658-2.203
			c1.997-0.107,3.735,1.055,4.284,2.91c0.89,3.01-0.279,4.396-2.57,5.826c-2.288,1.427-4.586,2.854-6.887,4.262
			c-2.548,1.559-4.865,1.662-6.654-1.179c-3.656-6.004-7.314-12.008-10.972-18.013c-1.007-1.652-2.011-3.307-3.021-4.957
			c-3.37-0.661-6.727-1.397-10.088-2.098c-5.301-1.105-10.6-2.213-15.901-3.318c-2.372-0.495-4.74-0.733-6.525-2.517
			c-3.327-3.323-2.69-6.716-1.883-10.753c0.761-3.81,1.444-7.637,2.167-11.454c0.049-0.267,0.275-2.75,0.53-2.839l-7.693,2.681
			c-2.688,4.002-5.372,8.01-8.064,12.011C48.182,64.479,47.582,65.421,46.844,66.115z"/>
		<circle fill="#FFFFFF" cx="81.279" cy="25.59" r="9.179"/>
		<g>
			<path fill="#FFFFFF" d="M72.764,119.411c-17.145,0-31.092-13.948-31.092-31.093c0-11.517,6.676-22.395,16.85-27.814l-0.926,8.793
				c-5.461,5.942-8.79,10.146-8.79,19.021c0,13.211,10.748,23.959,23.958,23.959c13.211,0,24.672-11.104,24.672-24.316l5.161,8.306
				C98.98,108.89,89.908,119.411,72.764,119.411z"/>
		</g>
	</g>
</g>
</svg>
