<?xml version="1.0" encoding="utf-8"?>
<!-- Generator: Adobe Illustrator 15.1.0, SVG Export Plug-In . SVG Version: 6.00 Build 0)  -->
<!DOCTYPE svg PUBLIC "-//W3C//DTD SVG 1.1//EN" "http://www.w3.org/Graphics/SVG/1.1/DTD/svg11.dtd">
<svg version="1.1" id="Layer_1" xmlns="http://www.w3.org/2000/svg" xmlns:xlink="http://www.w3.org/1999/xlink" x="0px" y="0px"
	 width="160px" height="160px" viewBox="0 0 160 160" enable-background="new 0 0 160 160" xml:space="preserve">
<g>
	<path fill="#213F7F" d="M143.568,160H16.431C7.394,160,0,152.605,0,143.568V16.431C0,7.394,7.394,0,16.431,0h127.137
		C152.605,0,160,7.394,160,16.431v127.137C160,152.605,152.605,160,143.568,160z"/>
	<g>
		<path fill="#FFFFFF" d="M102.404,70.852v-50.05c0-1.367,1.107-2.475,2.475-2.475h13.971c6.232,0,10.295,0.275,12.188,0.825
			c2.908,0.826,5.344,2.62,7.305,5.383c1.961,2.764,2.943,6.335,2.943,10.711c0,3.376-0.564,6.216-1.697,8.517
			c-1.131,2.301-2.568,4.107-4.311,5.42c-1.742,1.314-3.514,2.182-5.314,2.608c-2.447,0.524-5.99,0.788-10.629,0.788h-4.205
			c-1.369,0-2.477,1.108-2.477,2.475v15.796c0,1.367-1.107,2.476-2.475,2.476h-5.299C103.512,73.327,102.404,72.218,102.404,70.852z
			 M112.652,30.106v10.657c0,1.366,1.107,2.475,2.477,2.475h3.133c4.039,0,6.738-0.288,8.102-0.862
			c1.361-0.576,2.43-1.476,3.201-2.702c0.773-1.226,1.16-2.651,1.16-4.277c0-2-0.541-3.651-1.627-4.953
			c-1.086-1.299-2.457-2.113-4.119-2.438c-1.223-0.25-3.684-0.374-7.375-0.374h-2.475C113.76,27.632,112.652,28.739,112.652,30.106z
			"/>
	</g>
	<g>
		<path fill="#FFFFFF" d="M27.186,94.53c-0.894,0.839-1.985,1.31-3.803,1.3c-2.657-0.018-3.834-2.758-3.669-5.015
			c0.106-1.437,1.025-2.423,1.808-3.553c2.414-3.485,4.582-7.144,7.058-10.586c1.962-2.728,4.131-4.984,7.446-5.902
			c1.308-0.362,2.565-0.801,3.851-1.248c4.521-1.574,9.072-3.105,13.699-4.343c2.415-0.647,5.155-1.752,7.542-0.47
			c1.79,0.963,3.43,3.061,3.039,5.25c0,0-3.965,22.147-3.965,22.147c5.409,1.043,10.82,2.09,16.23,3.132
			c1.827,0.352,3.839,0.539,5.373,1.702c1.641,1.245,2.42,3.305,3.438,5.024c1.014,1.717,2.035,3.439,3.063,5.151
			c2.629,4.378,5.158,8.817,7.781,13.2c0.105,0.176,1.832,3.082,1.824,3.088c1.424-0.844,2.949-2.111,4.658-2.203
			c1.998-0.107,3.734,1.055,4.283,2.91c0.891,3.01-0.277,4.396-2.568,5.826c-2.287,1.426-4.586,2.853-6.887,4.262
			c-2.549,1.559-4.865,1.662-6.654-1.18c-3.658-6.004-7.314-12.008-10.972-18.012c-1.008-1.652-2.011-3.307-3.022-4.958
			c-3.369-0.661-6.725-1.397-10.086-2.098c-5.301-1.105-10.601-2.213-15.901-3.318c-2.372-0.495-4.741-0.733-6.526-2.517
			c-3.328-3.323-2.689-6.717-1.882-10.754c0.761-3.81,1.444-7.637,2.167-11.454c0.05-0.267,0.274-2.75,0.53-2.839l-7.694,2.681
			c-2.688,4.003-5.37,8.011-8.064,12.011C28.521,92.895,27.923,93.836,27.186,94.53z"/>
		<circle fill="#FFFFFF" cx="61.62" cy="54.006" r="9.179"/>
		<g>
			<path fill="#FFFFFF" d="M53.105,147.826c-17.145,0-31.093-13.948-31.093-31.092c0-11.518,6.677-22.396,16.85-27.814l-0.926,8.793
				c-5.461,5.941-8.789,10.146-8.789,19.021c0,13.211,10.747,23.959,23.958,23.959c13.21,0,24.673-11.105,24.673-24.316l5.16,8.305
				C79.323,137.305,70.25,147.826,53.105,147.826z"/>
		</g>
	</g>
</g>
</svg>
