<?xml version="1.0" encoding="utf-8"?>
<!-- Generator: Adobe Illustrator 15.1.0, SVG Export Plug-In . SVG Version: 6.00 Build 0)  -->
<!DOCTYPE svg PUBLIC "-//W3C//DTD SVG 1.1//EN" "http://www.w3.org/Graphics/SVG/1.1/DTD/svg11.dtd">
<svg version="1.1" id="Layer_1" xmlns="http://www.w3.org/2000/svg" xmlns:xlink="http://www.w3.org/1999/xlink" x="0px" y="0px"
	 width="160px" height="160px" viewBox="0 0 160 160" enable-background="new 0 0 160 160" xml:space="preserve">
<g>
	<g>
		<path fill="#B5B6B6" d="M143.569,160H16.432C7.395,160,0,152.606,0,143.569V16.432C0,7.395,7.395,0,16.432,0h127.138
			C152.606,0,160,7.395,160,16.432v127.138C160,152.606,152.606,160,143.569,160z"/>
	</g>
	<g>
		<g>
			<path fill="#FFFFFF" d="M90.899,31.962v12.081c0,0-0.335,1.754-1.962,1.654c0,0-1.149,0.15-1.628-1.455V30.358
				c0,0,0.097-4.412,4.643-4.964h9.719c0,0,3.588,0.102,4.497,4.663v14.034c0,0,0.097,1.361-1.531,1.607
				c0,0-1.435,0.349-1.962-1.507v-12.23h-0.718v32.583c0,0-0.049,2.354-2.44,2.354c0,0-1.819,0.252-2.395-2.204V45.596h-0.717
				v19.048c0,0-0.145,2.27-2.585,2.264c0,0-2.011-0.058-2.204-2.362V31.962H90.899z"/>
			<ellipse fill="#FFFFFF" cx="96.788" cy="20.124" rx="4.11" ry="4.304"/>
		</g>
		<g>
			<path fill="#FFFFFF" d="M120.42,41.786l3.666-12.957c0,0,1.183-3.033,4.261-3.28h6.564c0,0,2.721,0.063,4.083,3.156
				c0,0,3.756,12.648,3.783,12.741c0.584,1.963-2.643,3.2-3.253,1.113l-3.253-11.133h-0.709l5.322,19.236h-4.969
				c0,0,0,14.394,0,14.473c0,2.168-3.785,2.479-3.785,0.186V50.725h-1.005c0,0,0,14.329,0,14.411c0,2.378-3.847,2.339-3.847-0.122
				V50.849h-5.086l5.441-19.361l-0.709-0.061c0,0-3.125,10.975-3.135,11.009c-0.274,0.96-1.208,1.335-2.078,1.15
				C121.042,43.443,120.182,42.624,120.42,41.786z"/>
			<ellipse fill="#FFFFFF" cx="131.658" cy="20.293" rx="3.904" ry="4.082"/>
		</g>
		<path fill="#FFFFFF" d="M116.636,67.332c0,0.43-0.249,0.777-0.557,0.777h-3.805c-0.307,0-0.556-0.348-0.556-0.777V13.887
			c0-0.43,0.249-0.777,0.556-0.777h3.805c0.308,0,0.557,0.348,0.557,0.777V67.332z"/>
	</g>
	<g>
		<path fill="#FFFFFF" d="M27.186,94.774c-0.894,0.839-1.985,1.31-3.803,1.3c-2.657-0.018-3.834-2.758-3.669-5.015
			c0.106-1.437,1.025-2.423,1.808-3.553c2.414-3.485,4.582-7.144,7.058-10.587c1.962-2.728,4.131-4.983,7.446-5.901
			c1.308-0.362,2.565-0.802,3.851-1.247c4.521-1.574,9.072-3.105,13.699-4.344c2.415-0.646,5.155-1.752,7.542-0.47
			c1.79,0.963,3.43,3.061,3.039,5.249c0,0.001-3.965,22.147-3.965,22.147c5.409,1.043,10.82,2.09,16.23,3.132
			c1.827,0.352,3.839,0.539,5.373,1.702c1.64,1.245,2.42,3.305,3.437,5.024c1.015,1.717,2.035,3.439,3.063,5.151
			c2.628,4.378,5.157,8.817,7.78,13.2c0.106,0.176,1.833,3.082,1.824,3.088c1.424-0.844,2.949-2.111,4.658-2.203
			c1.998-0.107,3.735,1.055,4.283,2.91c0.892,3.01-0.276,4.396-2.567,5.826c-2.288,1.426-4.587,2.853-6.888,4.262
			c-2.548,1.559-4.864,1.662-6.654-1.18c-3.657-6.004-7.314-12.008-10.972-18.012c-1.008-1.652-2.011-3.307-3.022-4.958
			c-3.369-0.661-6.725-1.397-10.086-2.098c-5.301-1.105-10.601-2.213-15.901-3.318c-2.372-0.495-4.741-0.733-6.526-2.517
			c-3.328-3.323-2.689-6.717-1.882-10.754c0.761-3.81,1.444-7.637,2.167-11.454c0.05-0.267,0.274-2.749,0.53-2.839l-7.694,2.681
			c-2.688,4.003-5.37,8.011-8.064,12.011C28.521,93.139,27.923,94.08,27.186,94.774z"/>
		<circle fill="#FFFFFF" cx="61.619" cy="54.25" r="9.179"/>
		<g>
			<path fill="#FFFFFF" d="M53.104,148.07c-17.145,0-31.093-13.948-31.093-31.092c0-11.518,6.677-22.396,16.85-27.814l-0.926,8.793
				c-5.461,5.941-8.789,10.146-8.789,19.021c0,13.211,10.747,23.959,23.958,23.959c13.21,0,24.673-11.105,24.673-24.316l5.16,8.305
				C79.322,137.549,70.25,148.07,53.104,148.07z"/>
		</g>
	</g>
</g>
</svg>
