<?xml version="1.0" encoding="utf-8"?>
<!-- Generator: Adobe Illustrator 15.1.0, SVG Export Plug-In . SVG Version: 6.00 Build 0)  -->
<!DOCTYPE svg PUBLIC "-//W3C//DTD SVG 1.1//EN" "http://www.w3.org/Graphics/SVG/1.1/DTD/svg11.dtd">
<svg version="1.1" id="Layer_1" xmlns="http://www.w3.org/2000/svg" xmlns:xlink="http://www.w3.org/1999/xlink" x="0px" y="0px"
	 width="160px" height="160px" viewBox="0 0 160 160" enable-background="new 0 0 160 160" xml:space="preserve">
<g>
	<path fill="#B5B6B6" d="M143.568,160H16.431C7.394,160,0,152.606,0,143.569V16.432C0,7.395,7.394,0,16.431,0h127.137
		C152.605,0,160,7.395,160,16.432v127.138C160,152.606,152.605,160,143.568,160z"/>
	<g>
		<path fill-rule="evenodd" clip-rule="evenodd" fill="#FFFFFF" d="M87.941,49.098c0-1.236,1.008-2.244,2.246-2.244h45.447
			c1.233,0,2.242,1.008,2.242,2.244v4.956c0,0.47,0.386,0.857,0.855,0.857h1.496c0.47,0,0.852-0.388,0.852-0.857v-6.561
			c0-1.423-0.479-2.91-1.315-4.06l-4.091-5.638c-0.724-1.005-2-1.629-3.159-1.938c-4.552-1.209-11.641-1.982-19.606-1.982
			c-7.965,0-15.055,0.773-19.605,1.982c-1.159,0.309-2.436,0.933-3.16,1.938l-4.09,5.638c-0.837,1.149-1.316,2.637-1.316,4.06v6.561
			c0,0.47,0.383,0.857,0.852,0.857h1.498c0.469,0,0.855-0.388,0.855-0.857V49.098z"/>
		<path fill-rule="evenodd" clip-rule="evenodd" fill="#FFFFFF" d="M131.574,56.424H94.243v3.763c0,0.587-0.481,1.065-1.067,1.065
			h-2.988c-0.594,0-1.072-0.479-1.072-1.065V49.642c0-0.591,0.479-1.071,1.072-1.071h45.447c0.588,0,1.066,0.48,1.066,1.071v10.545
			c0,0.587-0.479,1.065-1.066,1.065h-2.994c-0.586,0-1.066-0.479-1.066-1.065V56.424z"/>
		<path fill-rule="evenodd" clip-rule="evenodd" fill="#FFFFFF" d="M131.363,19.897h-36.91c-1.644,0-2.99,1.345-2.99,2.993v11.943
			c0.5-0.24,1.023-0.43,1.541-0.567c1.009-0.268,2.046-0.493,3.088-0.69v-2.779c0-1.438,0.881-2.387,1.924-2.611
			c1.857-0.401,3.746-0.582,5.665-0.582c1.923,0,3.812,0.181,5.667,0.582c1.045,0.225,1.926,1.174,1.926,2.611v1.459
			c0.543-0.009,1.092-0.014,1.635-0.014c0.549,0,1.092,0.005,1.64,0.014v-1.459c0-1.438,0.876-2.387,1.922-2.611
			c1.854-0.401,3.744-0.582,5.667-0.582c1.918,0,3.807,0.181,5.665,0.582c1.042,0.225,1.923,1.174,1.923,2.611v2.779
			c1.043,0.197,2.08,0.423,3.088,0.69c0.519,0.138,1.042,0.327,1.546,0.567V22.891C134.358,21.242,133.008,19.897,131.363,19.897
			L131.363,19.897z"/>
	</g>
	<g>
		<path fill="#FFFFFF" d="M26.865,94.774c-0.894,0.839-1.985,1.31-3.803,1.3c-2.657-0.018-3.834-2.758-3.669-5.015
			c0.106-1.437,1.025-2.423,1.808-3.553c2.414-3.485,4.582-7.144,7.058-10.587c1.962-2.728,4.131-4.983,7.446-5.901
			c1.308-0.362,2.565-0.802,3.851-1.247c4.521-1.574,9.072-3.105,13.699-4.344c2.415-0.646,5.155-1.752,7.542-0.47
			c1.79,0.963,3.43,3.061,3.039,5.249c0,0.001-3.965,22.147-3.965,22.147c5.409,1.043,10.82,2.09,16.23,3.132
			c1.827,0.352,3.839,0.539,5.373,1.702c1.64,1.245,2.42,3.305,3.437,5.024c1.015,1.717,2.035,3.439,3.063,5.151
			c2.628,4.378,5.157,8.817,7.78,13.2c0.106,0.176,1.833,3.082,1.824,3.088c1.424-0.844,2.949-2.111,4.658-2.203
			c1.998-0.107,3.735,1.055,4.283,2.91c0.892,3.01-0.276,4.396-2.567,5.826c-2.288,1.426-4.587,2.853-6.888,4.262
			c-2.548,1.559-4.864,1.662-6.654-1.18c-3.657-6.004-7.314-12.008-10.972-18.012c-1.008-1.652-2.011-3.307-3.022-4.958
			c-3.369-0.661-6.725-1.397-10.086-2.098c-5.301-1.105-10.601-2.213-15.901-3.318c-2.372-0.495-4.741-0.733-6.526-2.517
			c-3.328-3.323-2.689-6.717-1.882-10.754c0.761-3.81,1.444-7.637,2.167-11.454c0.05-0.267,0.274-2.749,0.53-2.839l-7.694,2.681
			c-2.688,4.003-5.37,8.011-8.064,12.011C28.2,93.139,27.603,94.08,26.865,94.774z"/>
		<circle fill="#FFFFFF" cx="61.299" cy="54.25" r="9.179"/>
		<g>
			<path fill="#FFFFFF" d="M52.784,148.07c-17.145,0-31.093-13.948-31.093-31.092c0-11.518,6.677-22.396,16.85-27.814l-0.926,8.793
				c-5.461,5.941-8.789,10.146-8.789,19.021c0,13.211,10.747,23.959,23.958,23.959c13.21,0,24.673-11.105,24.673-24.316l5.16,8.305
				C79.002,137.549,69.93,148.07,52.784,148.07z"/>
		</g>
	</g>
</g>
</svg>
