<?xml version="1.0" encoding="utf-8"?>
<!-- Generator: Adobe Illustrator 16.0.0, SVG Export Plug-In . SVG Version: 6.00 Build 0)  -->
<!DOCTYPE svg PUBLIC "-//W3C//DTD SVG 1.1//EN" "http://www.w3.org/Graphics/SVG/1.1/DTD/svg11.dtd">
<svg version="1.1" id="Layer_1" xmlns="http://www.w3.org/2000/svg" xmlns:xlink="http://www.w3.org/1999/xlink" x="0px" y="0px"
	 width="160px" height="160px" viewBox="0 0 160 160" enable-background="new 0 0 160 160" xml:space="preserve">
<g>
	<path fill="#B5B5B5" d="M143.569,160H16.432C7.395,160,0,152.605,0,143.568V16.432C0,7.395,7.395,0,16.432,0h127.138
		C152.606,0,160,7.395,160,16.432v127.137C160,152.605,152.606,160,143.569,160z"/>
	<g>
		<path fill="#FFFFFF" d="M100.117,109.678c-1.329,0.23-8.11,0.202-8.854-0.086c-0.745-0.287-5.342-4.049-6.851-4.418
			c-1.51-0.369-3.891,0.355-4.775,1.169c-0.887,0.813-1.363,1.874-1.258,2.565c0.105,0.692,9.306,7.563,10.236,7.945
			c0.931,0.382,10.845,0.889,12.547,0.68c1.702-0.207,12.997-6.713,12.984-5.928c-0.012,0.784-9.384,8.466-10.885,9.087
			c-1.5,0.62-12.472,3.149-14.331,4.178s-3.024,1.728-3.396,3.573c-0.373,1.846,1.613,3.079,2.043,3.195
			c0.428,0.116,10.556-2.01,11.286-2.189c0.729-0.18,8.678-2.963,9.729-3.55c1.053-0.588,10.925-9.273,10.883-8.788
			c-0.042,0.484-6.466,9.063-7.194,9.944c-0.729,0.881-4.059,4.444-4.615,5.989c-0.557,1.546-0.253,3.006,0.149,3.832
			c0.403,0.826,1.891,1.587,2.339,1.592c0.448,0.004,2.313-3.473,2.956-4.344c0.643-0.872,4.059-4.407,4.758-5.223
			c0.325-0.38,2.542-2.74,4.422-5.318c2.154-2.955,2.695-4.365,3.982-6.146s3.707-4.709,4.844-6.343
			c1.136-1.633,7.379-21.487,9.23-23.675c1.852-2.186,7.127-4.826,7.335-5.086c0.208-0.259,1.51-9.438,0.155-16.251
			c-1.354-6.813-5.642-13.617-5.922-13.62c-0.281-0.002-6.279,4.087-10.249,5.058s-5.727,1.066-7.07,0.941
			c-1.344-0.125-5.667-1.278-9.332-0.949c-3.665,0.329-8.309,2.433-11.653,3.55c-3.346,1.117-12.132,2.714-13.371,3.347
			s-3.633,3.825-3.862,4.412c-0.23,0.586-0.104,3.088-0.71,4.848c-0.605,1.759-2.346,4.938-2.408,5.582
			c-0.062,0.644,0.242,2.057,1.322,2.479c-1.198,0.287-1.58,3.086-1.405,6.301s0.062,5.194,0.448,5.795
			c0.387,0.602,10.136,8.938,12.259,9.508c2.123,0.569,4.106,0.289,7.286-0.186c3.181-0.473,8.013-1.734,7.857-1.102
			C110.869,102.682,101.445,109.447,100.117,109.678z M108.439,91.15c0,0-3.681,1.002-4.852,1.299
			c-1.17,0.297-4.492,1.975-4.819,1.971c-0.327-0.003-1.972-1.85-3.039-2.569s-4.356-1.63-4.541-1.837s0.162-1.26-1.154-4.346
			c-1.315-3.086-3.074-3.774-3.074-3.774s0.71-0.013,1.848-0.721c1.137-0.708,2.063-1.876,2.793-2.962
			c0.729-1.086,2.036-4.847,2.439-5.058c0.404-0.211,3.003,0.458,5.64,0.231s6.376-1.518,7.297-1.154s4.967,4.158,5.971,8.576
			c1.004,4.418-1.354,7.73-1.95,8.574C110.4,90.226,108.439,91.15,108.439,91.15z"/>
		<path fill="#FFFFFF" d="M60.128,50.39c1.33-0.221,8.111-0.148,8.854,0.144c0.743,0.292,5.314,4.085,6.821,4.464
			c1.508,0.379,3.892-0.329,4.783-1.137c0.891-0.808,1.376-1.864,1.274-2.558c-0.101-0.693-9.255-7.624-10.183-8.013
			c-0.928-0.389-10.839-0.961-12.543-0.765c-1.703,0.196-13.041,6.626-13.023,5.841c0.018-0.784,9.441-8.403,10.945-9.014
			c1.505-0.611,12.493-3.066,14.359-4.082c1.866-1.016,3.036-1.707,3.421-3.55s-1.594-3.09-2.021-3.209
			c-0.428-0.119-10.569,1.939-11.301,2.114c-0.731,0.175-8.697,2.904-9.753,3.484s-10.985,9.2-10.94,8.715
			c0.045-0.485,6.525-9.02,7.261-9.896c0.734-0.876,4.088-4.417,4.655-5.959s0.273-3.003-0.124-3.832
			c-0.398-0.829-1.88-1.6-2.328-1.607s-2.336,3.456-2.985,4.323c-0.649,0.868-4.088,4.38-4.792,5.191
			c-0.328,0.377-2.561,2.723-4.459,5.289c-2.173,2.939-2.723,4.346-4.022,6.119c-1.299,1.772-3.738,4.685-4.886,6.31
			s-7.523,21.438-9.39,23.612s-7.159,4.778-7.368,5.037c-0.211,0.258-1.574,9.429-0.266,16.25c1.31,6.822,5.552,13.655,5.832,13.659
			c0.279,0.004,6.306-4.045,10.282-4.989c3.976-0.944,5.733-1.028,7.076-0.894c1.344,0.134,5.658,1.315,9.325,1.012
			c3.667-0.305,8.325-2.378,11.678-3.473c3.353-1.094,12.149-2.633,13.393-3.257s3.658-3.801,3.893-4.386
			c0.233-0.584,0.125-3.088,0.742-4.844c0.616-1.755,2.378-4.921,2.444-5.564s-0.229-2.059-1.305-2.487
			c1.2-0.279,1.601-3.076,1.448-6.292c-0.153-3.216-0.028-5.194-0.411-5.798c-0.382-0.604-10.075-9.005-12.194-9.588
			c-2.119-0.584-4.104-0.317-7.287,0.135s-8.023,1.682-7.864,1.049S58.798,50.611,60.128,50.39z M51.682,68.861
			c0,0,3.687-0.977,4.859-1.266c1.173-0.289,4.507-1.944,4.833-1.939c0.327,0.005,1.96,1.863,3.022,2.59
			c1.063,0.727,4.345,1.659,4.528,1.867c0.183,0.208-0.171,1.258,1.124,4.353c1.296,3.095,3.049,3.796,3.049,3.796
			s-0.709,0.007-1.851,0.708c-1.143,0.701-2.077,1.863-2.813,2.943c-0.737,1.082-2.068,4.834-2.474,5.043
			c-0.405,0.207-3-0.479-5.638-0.27s-6.386,1.475-7.305,1.104s-4.938-4.19-5.913-8.616c-0.974-4.425,1.405-7.722,2.008-8.562
			C49.715,69.772,51.682,68.861,51.682,68.861z"/>
	</g>
</g>
</svg>
