<?xml version="1.0" encoding="utf-8"?>
<!-- Generator: Adobe Illustrator 16.0.0, SVG Export Plug-In . SVG Version: 6.00 Build 0)  -->
<!DOCTYPE svg PUBLIC "-//W3C//DTD SVG 1.1//EN" "http://www.w3.org/Graphics/SVG/1.1/DTD/svg11.dtd">
<svg version="1.1" id="Layer_1" xmlns="http://www.w3.org/2000/svg" xmlns:xlink="http://www.w3.org/1999/xlink" x="0px" y="0px"
	 width="160px" height="160px" viewBox="0 0 160 160" enable-background="new 0 0 160 160" xml:space="preserve">
<g>
	<path fill="#B5B5B5" d="M143.568,160H16.431C7.394,160,0,152.606,0,143.569V16.432C0,7.395,7.394,0,16.431,0h127.137
		C152.605,0,160,7.395,160,16.432v127.138C160,152.606,152.605,160,143.568,160z"/>
	<g>
		<g>
			<path fill="#FFFFFF" d="M100.129,21.532c0-4.838,3.898-8.718,8.718-8.718c4.821,0,8.725,3.88,8.725,8.718
				s-3.903,8.724-8.725,8.724C104.027,30.256,100.129,26.37,100.129,21.532z"/>
			<path fill="#FFFFFF" d="M119.693,46.238l2.876,3.215c0.696,0.776,1.659,1.173,2.627,1.173c1.309,0,1.995-0.47,2.624-1.173
				l7.842-8.763c1.297-1.45,1.173-3.677-0.276-4.975c-1.449-1.297-3.675-1.173-4.974,0.275l-5.217,5.829l-4.902-5.477
				c-1.739-1.77-4.667-2.864-9.76-2.864c-5.09,0-7.836,1.345-8.911,3.458l-3.735,12.289l-2.528,7.336h-8.644v3.941h46.246
				l0.057-3.941h-13.324V46.238z"/>
			<path fill="#FFFFFF" d="M143.847,58.15c0,1.642-1.331,2.974-2.974,2.974H84.424c-1.643,0-2.974-1.332-2.974-2.974l0,0
				c0-1.643,1.331-2.975,2.974-2.975h56.449C142.516,55.176,143.847,56.508,143.847,58.15L143.847,58.15z"/>
		</g>
		<g>
			<g>
				<path fill="#FFFFFF" d="M104.941,34.023c-2.564,0.557-5.433,3.677-6.797,5.826c-2.842,4.479-3.728,10.605-3.287,15.805
					c0.271,3.188,5.272,3.214,5,0c-0.314-3.709,0.389-6.96,1.293-10.548c0.456-1.813,3.077-5.817,5.121-6.261
					C109.422,38.161,108.085,33.341,104.941,34.023L104.941,34.023z"/>
			</g>
		</g>
	</g>
	<path fill="#FFFFFF" d="M51.423,115.842c0,3.191-2.586,5.776-5.776,5.776c-3.182,0-5.768-2.585-5.768-5.776
		c0-3.182,2.586-5.768,5.768-5.768C48.837,110.074,51.423,112.66,51.423,115.842z M125.288,127.022c0,2.244-1.837,4.08-4.081,4.08
		h-7.016c-0.445,6.914-6.172,12.382-13.199,12.382c-7.309,0-13.233-5.924-13.233-13.241c0-5.603,3.486-10.38,8.403-12.311
		l-0.954-3.059l-21.942,0.035c0.01,0.312,0.023,0.623,0.023,0.938c0,15.239-12.398,27.638-27.639,27.638
		c-15.24,0-27.638-12.398-27.638-27.638c0-13.504,9.736-24.77,22.557-27.162l-0.062-0.015l-7.562-27.024h-7.948
		c-2.245,0-4.081-1.836-4.081-4.08c0-2.245,1.836-4.081,4.081-4.081h13.931c1.619,0,3.014,0.963,3.672,2.337
		c0.014,0.027,0.03,0.053,0.043,0.08c0.038,0.083,0.066,0.17,0.099,0.257c0.035,0.091,0.078,0.176,0.104,0.271l6.802,24.326
		c0.027,0,0.055-0.009,0.083-0.009h40.805c2.245,0,4.081,1.837,4.081,4.081l0,0c0,2.244-1.836,4.081-4.081,4.081H58.908h-6.98
		c0,0,7.25,2.552,10.253,4.8h32.074l0.003,0.013c1.694,0.048,3.259,1.142,3.79,2.845l6.532,20.947
		c3.091,0.868,5.723,2.818,7.453,5.429h9.174C123.451,122.942,125.288,124.778,125.288,127.022z M65.375,115.847
		c0-10.877-8.848-19.726-19.725-19.726c-10.876,0-19.724,8.849-19.724,19.726c0,10.876,8.848,19.725,19.724,19.725
		C56.527,135.571,65.375,126.723,65.375,115.847z M106.766,130.244c0-3.183-2.584-5.766-5.771-5.766
		c-3.184,0-5.766,2.583-5.766,5.766c0,3.188,2.582,5.771,5.766,5.771C104.182,136.016,106.766,133.433,106.766,130.244z"/>
</g>
</svg>
